<svg xmlns="http://www.w3.org/2000/svg" version="1.1" viewBox="0 0 285.6 71.72" xml:space="preserve"><defs><clipPath id="clipPath22"><path d="m43.15 748h216.5v53.79h-216.5z"/></clipPath></defs><g transform="matrix(1.333 0 0 -1.333 -57.61 1069)"><g fill="currentColor" transform="translate(102.4 801.7)"><path d="m0 0-8.533-20.06h-2.447v-2.175h8.838v2.074h-3.467l2.21 5.268h9.959l2.141-5.167h-3.399v-2.175h9.145v2.175h-2.448l-8.43 20.06zm1.631-2.89 4.045-9.823h-8.157z"/></g><g clip-path="url(#clipPath22)"><g transform="translate(123.7 787.2)"><path fill="currentColor" d="m0 0c0-0.884 0.108-1.688 0.323-2.414 0.215-0.724 0.549-1.348 1.003-1.869 0.452-0.521 1.02-0.923 1.7-1.206 0.68-0.284 1.483-0.425 2.413-0.425 0.747 0 1.411 0.141 1.988 0.425 0.578 0.283 1.065 0.685 1.462 1.206 0.396 0.521 0.696 1.145 0.901 1.869 0.204 0.726 0.305 1.53 0.305 2.414 0 0.77-0.101 1.513-0.305 2.227-0.205 0.713-0.5 1.342-0.884 1.886-0.385 0.544-0.872 0.981-1.462 1.309-0.589 0.328-1.258 0.493-2.005 0.493-0.952 0-1.768-0.165-2.448-0.493s-1.24-0.765-1.683-1.309c-0.441-0.544-0.77-1.173-0.985-1.886-0.215-0.714-0.323-1.457-0.323-2.227m-5.506-5.575h2.719v17.88h-2.719v2.176h5.506v-9.552h0.068c0.226 0.498 0.532 0.946 0.918 1.342 0.385 0.397 0.821 0.732 1.309 1.003 0.487 0.272 1.002 0.476 1.546 0.612s1.076 0.204 1.598 0.204c1.2 0 2.271-0.187 3.212-0.56 0.94-0.375 1.739-0.913 2.396-1.615 0.657-0.703 1.161-1.553 1.513-2.55 0.351-0.997 0.527-2.118 0.527-3.365 0-1.224-0.17-2.329-0.51-3.314-0.34-0.986-0.832-1.835-1.478-2.55-0.646-0.714-1.445-1.263-2.398-1.649-0.951-0.384-2.039-0.577-3.262-0.577-0.544 0-1.094 0.073-1.649 0.221-0.555 0.147-1.077 0.368-1.563 0.663-0.488 0.294-0.925 0.663-1.309 1.104-0.386 0.443-0.669 0.947-0.85 1.513h-0.068v-3.161h-5.506z"/></g><g transform="translate(152.8 788.6)"><path fill="currentColor" d="m0 0c-0.091 1.427-0.549 2.537-1.376 3.331-0.827 0.793-2.001 1.19-3.519 1.19-0.68 0-1.325-0.102-1.937-0.306s-1.15-0.499-1.615-0.884c-0.464-0.386-0.832-0.861-1.105-1.428-0.271-0.566-0.407-1.201-0.407-1.903zm-9.959-2.175c0-1.79 0.481-3.094 1.444-3.909 0.964-0.817 2.363-1.224 4.198-1.224 0.43 0 0.895 0.062 1.394 0.186 0.498 0.125 0.963 0.312 1.394 0.562 0.43 0.249 0.792 0.561 1.088 0.934 0.294 0.374 0.463 0.81 0.509 1.308h2.584c-0.023-0.951-0.267-1.756-0.731-2.413-0.465-0.657-1.049-1.189-1.751-1.597s-1.484-0.703-2.345-0.884c-0.862-0.181-1.7-0.271-2.516-0.271-1.269 0-2.408 0.181-3.416 0.543-1.008 0.363-1.875 0.895-2.601 1.598-0.725 0.702-1.28 1.552-1.665 2.549-0.386 0.997-0.578 2.13-0.578 3.399s0.192 2.402 0.578 3.399c0.385 0.997 0.94 1.847 1.665 2.55 0.726 0.702 1.593 1.235 2.601 1.597s2.147 0.544 3.416 0.544c1.382 0 2.544-0.232 3.485-0.697 0.94-0.464 1.704-1.093 2.294-1.886 0.589-0.794 1.02-1.728 1.292-2.805 0.272-1.076 0.408-2.237 0.408-3.483z"/></g><g transform="translate(158.3 781.6)"><path fill="currentColor" d="m0 0h2.685v11.15h-2.685v2.176h5.473v-3.162h0.067c0.249 1.179 0.811 2.057 1.683 2.635 0.872 0.577 1.898 0.866 3.076 0.866 0.249 0 0.476-5e-3 0.68-0.017 0.204-0.011 0.396-0.028 0.578-0.05v-2.278c-0.227 0.045-0.482 0.085-0.765 0.119s-0.584 0.052-0.901 0.052c-0.974 0-1.756-0.233-2.346-0.698-0.588-0.464-1.036-1.054-1.341-1.767-0.307-0.714-0.505-1.496-0.596-2.346-0.09-0.85-0.135-1.671-0.135-2.464v-4.215h3.195v-2.175h-8.668z"/></g><g transform="translate(182.6 792.8)"><path fill="currentColor" d="m0 0h-5.065v-9.042c0-0.658 0.102-1.229 0.306-1.717 0.204-0.487 0.668-0.73 1.394-0.73 0.407 0 0.731 0.09 0.968 0.271 0.238 0.182 0.42 0.414 0.544 0.698 0.125 0.283 0.198 0.599 0.221 0.951 0.023 0.351 0.034 0.686 0.034 1.003h2.379c0-1.61-0.34-2.861-1.02-3.757-0.68-0.894-1.857-1.341-3.534-1.341-0.998 0-1.768 0.157-2.311 0.475-0.545 0.317-0.947 0.742-1.207 1.275-0.262 0.532-0.42 1.15-0.477 1.852-0.056 0.703-0.084 1.45-0.084 2.244v7.818h-3.025v2.175h3.025v3.4l2.787 0.951v-4.351h5.065z"/></g><g transform="translate(188.7 783.9)"><path fill="currentColor" d="m0 0c0-0.521 0.102-0.946 0.306-1.274 0.204-0.329 0.463-0.596 0.781-0.799 0.317-0.205 0.686-0.346 1.105-0.425 0.419-0.081 0.833-0.119 1.241-0.119 0.861 0 1.603 0.147 2.226 0.441 0.623 0.295 1.133 0.686 1.53 1.173 0.396 0.487 0.69 1.059 0.884 1.717 0.192 0.657 0.289 1.359 0.289 2.107h-2.346c-0.498 0-1.093-0.016-1.785-0.05-0.691-0.035-1.348-0.137-1.971-0.307-0.624-0.17-1.155-0.447-1.598-0.832-0.441-0.386-0.662-0.93-0.662-1.632m8.362-1.258h-0.068c-0.34-1.223-0.981-2.119-1.92-2.684-0.941-0.567-2.035-0.851-3.281-0.851-0.771 0-1.524 0.086-2.261 0.255-0.737 0.17-1.388 0.447-1.954 0.832-0.567 0.386-1.02 0.885-1.36 1.497-0.34 0.611-0.51 1.348-0.51 2.209 0 1.178 0.261 2.102 0.783 2.771 0.52 0.667 1.19 1.167 2.005 1.495 0.816 0.328 1.716 0.532 2.702 0.612 0.986 0.079 1.943 0.119 2.872 0.119h2.992v0.917c0 1.247-0.318 2.108-0.952 2.584-0.635 0.476-1.564 0.714-2.788 0.714-0.521 0-1.019-0.034-1.495-0.102s-0.89-0.199-1.241-0.391c-0.352-0.193-0.645-0.465-0.884-0.816-0.237-0.352-0.38-0.799-0.425-1.343h-2.991c0.045 0.884 0.261 1.637 0.646 2.261 0.385 0.623 0.884 1.122 1.495 1.496 0.613 0.373 1.309 0.646 2.091 0.815 0.782 0.17 1.592 0.255 2.431 0.255 0.906 0 1.779-0.062 2.616-0.187 0.839-0.124 1.576-0.363 2.21-0.713 0.634-0.352 1.139-0.839 1.513-1.462 0.375-0.624 0.561-1.433 0.561-2.431v-8.872h2.719v-2.174h-5.506z"/></g><g transform="translate(221.7 792.8)"><path fill="currentColor" d="m0 0h-1.7l-6.356-14.79c-0.272-0.656-0.544-1.263-0.816-1.818s-0.583-1.031-0.935-1.428c-0.351-0.396-0.788-0.702-1.308-0.918-0.522-0.215-1.179-0.322-1.972-0.322-0.363 0-0.719 0.023-1.071 0.067-0.352 0.046-0.708 0.091-1.07 0.136v2.108c0.249-0.022 0.51-0.051 0.782-0.085 0.272-0.035 0.555-0.051 0.849-0.051 0.59 0 1.054 0.108 1.394 0.323 0.339 0.215 0.617 0.504 0.833 0.867 0.215 0.362 0.402 0.77 0.56 1.224 0.159 0.453 0.363 0.906 0.612 1.359l-6.016 13.32h-1.7v2.175h7.75v-2.175h-2.991l4.454-10.4 4.384 10.4h-2.991v2.175h7.308z"/></g><g transform="translate(115 774)"><path fill="currentColor" d="m0 0h-2.889v-11.56c0-5.893-2.947-8.838-8.839-8.838-1.79 0-3.251 0.249-4.384 0.747-1.134 0.499-2.023 1.161-2.669 1.989-0.645 0.827-1.087 1.773-1.325 2.839-0.238 1.064-0.357 2.152-0.357 3.263v11.56h-3.025v2.175h9.585v-2.175h-3.569v-11.56c0-0.771 0.073-1.548 0.221-2.329 0.147-0.782 0.436-1.495 0.867-2.141 0.43-0.647 1.025-1.173 1.784-1.582 0.759-0.406 1.739-0.611 2.941-0.611 1.041 0 1.931 0.158 2.668 0.476 0.736 0.317 1.331 0.77 1.784 1.36 0.453 0.588 0.788 1.291 1.003 2.107s0.324 1.723 0.324 2.72v11.56h-3.332v2.175h9.212z"/></g><g transform="translate(116.8 756.1)"><path fill="currentColor" d="m0 0h2.685v11.15h-2.685v2.176h5.473v-2.822h0.068c0.385 0.997 1.059 1.773 2.022 2.329 0.962 0.554 2.022 0.832 3.178 0.832 1.949 0 3.354-0.476 4.215-1.427 0.861-0.952 1.292-2.357 1.292-4.215v-8.022h2.685v-2.175h-8.158v2.175h2.685v7.444c0 1.246-0.254 2.232-0.764 2.958-0.51 0.724-1.445 1.087-2.805 1.087-1.495 0-2.606-0.465-3.331-1.394-0.726-0.929-1.087-2.084-1.087-3.466v-6.629h2.685v-2.175h-8.158z"/></g><path fill="currentColor" d="m142.7 773h-3.195v3.195h3.195zm-5.473-16.86h2.685v11.15h-2.685v2.176h5.473v-13.32h2.685v-2.175h-8.158z"/><g transform="translate(164.1 767.3)"><path fill="currentColor" d="m0 0h-1.904l-5.473-13.32h-3.399l-5.302 13.32h-1.903v2.176h7.614v-2.176h-2.822l4.215-10.74 4.419 10.74h-2.822v2.176h7.377z"/></g><g transform="translate(179.2 763.1)"><path fill="currentColor" d="m0 0c-0.091 1.427-0.549 2.537-1.376 3.331-0.827 0.793-2.001 1.189-3.519 1.189-0.68 0-1.325-0.101-1.937-0.305s-1.15-0.499-1.615-0.884c-0.464-0.385-0.832-0.861-1.105-1.427-0.271-0.567-0.407-1.202-0.407-1.904zm-9.959-2.175c0-1.79 0.481-3.094 1.444-3.909 0.964-0.816 2.363-1.224 4.198-1.224 0.43 0 0.895 0.062 1.394 0.186 0.498 0.125 0.963 0.312 1.394 0.562 0.43 0.249 0.792 0.561 1.088 0.934 0.294 0.374 0.463 0.81 0.509 1.308h2.584c-0.023-0.951-0.267-1.756-0.731-2.413-0.465-0.657-1.049-1.189-1.751-1.597s-1.484-0.703-2.345-0.884c-0.862-0.181-1.7-0.271-2.516-0.271-1.269 0-2.408 0.181-3.416 0.543-1.008 0.363-1.875 0.895-2.601 1.598-0.725 0.702-1.28 1.552-1.665 2.549-0.386 0.997-0.578 2.13-0.578 3.399s0.192 2.402 0.578 3.399c0.385 0.998 0.94 1.847 1.665 2.55 0.726 0.702 1.593 1.235 2.601 1.598 1.008 0.362 2.147 0.543 3.416 0.543 1.382 0 2.544-0.232 3.485-0.697 0.94-0.464 1.704-1.093 2.294-1.886 0.589-0.794 1.02-1.728 1.292-2.804 0.272-1.077 0.408-2.238 0.408-3.484z"/></g><g transform="translate(184.7 756.1)"><path fill="currentColor" d="m0 0h2.685v11.15h-2.685v2.176h5.473v-3.162h0.067c0.249 1.178 0.811 2.057 1.683 2.635s1.898 0.866 3.076 0.866c0.249 0 0.476-5e-3 0.68-0.017s0.396-0.028 0.578-0.05v-2.279c-0.227 0.046-0.482 0.086-0.765 0.12s-0.584 0.051-0.901 0.051c-0.974 0-1.756-0.233-2.346-0.697-0.588-0.465-1.036-1.054-1.341-1.767-0.307-0.714-0.505-1.496-0.596-2.346-0.09-0.85-0.135-1.671-0.135-2.464v-4.215h3.195v-2.175h-8.668z"/></g><g transform="translate(198.6 753.9)"><path fill="currentColor" d="m0 0v5.404h2.175c0.023-0.748 0.176-1.354 0.459-1.818 0.284-0.465 0.663-0.828 1.139-1.088 0.476-0.261 1.014-0.436 1.615-0.527 0.599-0.091 1.218-0.136 1.851-0.136 0.341 0 0.698 0.045 1.072 0.136 0.373 0.091 0.719 0.238 1.037 0.442 0.317 0.204 0.578 0.459 0.781 0.765 0.204 0.306 0.307 0.662 0.307 1.071 0 0.521-0.131 0.923-0.392 1.206-0.26 0.283-0.583 0.498-0.968 0.646-0.386 0.147-0.81 0.243-1.275 0.289-0.464 0.045-0.913 0.102-1.342 0.17-0.727 0.113-1.462 0.238-2.21 0.374s-1.428 0.356-2.04 0.663c-0.611 0.306-1.11 0.719-1.495 1.241-0.386 0.52-0.578 1.234-0.578 2.141 0 0.816 0.181 1.529 0.544 2.141 0.362 0.613 0.827 1.122 1.394 1.53 0.566 0.408 1.206 0.708 1.92 0.901s1.433 0.289 2.159 0.289c1.019 0 1.954-0.17 2.804-0.51s1.489-0.907 1.92-1.7h0.068v1.87h2.176v-5.099h-2.176c0 0.68-0.114 1.229-0.34 1.648-0.226 0.42-0.533 0.749-0.918 0.986-0.385 0.238-0.833 0.402-1.342 0.493-0.51 0.091-1.06 0.136-1.649 0.136-0.408 0-0.833-0.034-1.274-0.102-0.443-0.068-0.85-0.193-1.224-0.374-0.374-0.182-0.68-0.425-0.918-0.73-0.238-0.306-0.356-0.709-0.356-1.207 0-0.454 0.146-0.798 0.441-1.037 0.295-0.238 0.674-0.425 1.139-0.56 0.464-0.136 0.969-0.245 1.512-0.324 0.544-0.079 1.066-0.164 1.564-0.255 0.68-0.113 1.371-0.243 2.074-0.391 0.702-0.147 1.331-0.374 1.886-0.679 0.556-0.306 1.009-0.72 1.36-1.241 0.351-0.522 0.527-1.224 0.527-2.108 0-0.906-0.187-1.677-0.561-2.311-0.374-0.635-0.868-1.15-1.479-1.547-0.612-0.396-1.303-0.685-2.074-0.866-0.77-0.181-1.551-0.272-2.345-0.272-0.453 0-0.923 0.046-1.41 0.136-0.487 0.091-0.947 0.238-1.377 0.441-0.431 0.204-0.816 0.459-1.156 0.765s-0.601 0.686-0.781 1.139h-0.069v-2.141z"/></g><path fill="currentColor" d="m220.2 773h-3.195v3.195h3.195zm-5.473-16.86h2.685v11.15h-2.685v2.176h5.473v-13.32h2.685v-2.175h-8.158z"/><g transform="translate(234.7 767.3)"><path fill="currentColor" d="m0 0h-5.065v-9.042c0-0.657 0.102-1.229 0.306-1.716s0.668-0.731 1.394-0.731c0.407 0 0.731 0.091 0.968 0.272 0.238 0.181 0.419 0.413 0.544 0.697 0.124 0.283 0.198 0.6 0.221 0.952 0.022 0.351 0.034 0.685 0.034 1.003h2.379c0-1.61-0.34-2.862-1.02-3.757s-1.858-1.342-3.534-1.342c-0.998 0-1.768 0.158-2.312 0.476-0.544 0.316-0.947 0.741-1.206 1.274-0.262 0.533-0.42 1.15-0.477 1.853-0.056 0.702-0.084 1.45-0.084 2.243v7.818h-3.025v2.176h3.025v3.399l2.787 0.952v-4.351h5.065z"/></g><g transform="translate(254.9 767.3)"><path fill="currentColor" d="m0 0h-1.7l-6.356-14.79c-0.272-0.656-0.544-1.263-0.816-1.818s-0.583-1.031-0.935-1.427c-0.351-0.397-0.788-0.702-1.308-0.918-0.522-0.215-1.179-0.323-1.972-0.323-0.363 0-0.719 0.023-1.071 0.068-0.352 0.046-0.708 0.09-1.07 0.136v2.108c0.249-0.023 0.51-0.051 0.782-0.086 0.272-0.034 0.555-0.05 0.849-0.05 0.59 0 1.054 0.107 1.394 0.322 0.339 0.216 0.617 0.505 0.833 0.867 0.215 0.362 0.402 0.771 0.56 1.224 0.159 0.453 0.363 0.907 0.612 1.36l-6.016 13.32h-1.7v2.176h7.75v-2.176h-2.991l4.454-10.4 4.384 10.4h-2.991v2.176h7.308z"/></g><g transform="translate(64.03 753.9)"><path d="m0 0c-1.598 0.874-9.22 4.622-14.05 10.22-4.211 4.959-6.827 11.32-6.768 19.67v18.01h41.76v-18.01c0.038-8.341-2.573-14.71-6.77-19.67-4.844-5.593-12.46-9.341-14.05-10.22z"/></g><g transform="translate(49.47 783.1)"><path d="m0 0c2.615-0.76 4.92-3.154 6.002-5.874 0.759-1.728 1.085-2.836 1.15-4.726 0-4.022-1.428-7.368-3.193-10.34-0.823 0.719-1.699 1.498-2.426 2.297-4.287 4.609-6.985 11.43-7.025 18.14v0.51z" fill="#ffd500"/></g><g transform="translate(78.59 783.1)"><path d="m0 0c-2.672-0.793-4.812-3.154-5.876-5.874-0.776-1.728-1.102-2.836-1.148-4.726-0.018-4.022 1.409-7.368 3.193-10.34 0.787 0.708 1.694 1.515 2.425 2.297 4.269 4.609 6.967 11.34 7.025 18.14v0.51h-5.491z" fill="#ffd500"/></g><path d="m43.98 801h12.77v-16.99h-12.77z" fill="#fff"/><g transform="translate(43.97 789.9)"><path d="m0 0h0.511l0.511 0.128 0.511 0.511v1.02h0.51l0.766 0.257 0.256 0.511 0.128 0.638 0.511 0.127 0.638 0.256 0.129 0.639 0.127 0.51 0.766 0.129 0.512 0.382 0.51 0.511 0.511-0.638 0.51-0.255 0.767-0.129v-0.382l0.127-0.511 0.384-0.383 0.511-0.256h0.382v-0.384l0.256-0.51 0.384-0.512h1.021v-0.51l0.127-0.638 0.511-0.383h0.894v-4.726l-0.383 0.255-0.766 0.256v0.51l-0.256 0.512-0.51 0.256h-0.638l0.128 0.637-0.255 0.512-0.513 0.255h-0.51v0.766l-0.511 0.383-0.511 0.128-0.383 0.128-0.128 0.639-0.128 0.51-0.638 0.384h-0.638l-0.639-0.384-0.256-0.638-0.127-0.639h-0.638l-0.384-0.256-0.255-0.255-0.128-0.638-0.383-0.128-0.512-0.383-0.254-0.255v-0.766l-0.767-0.129-0.383-0.383-0.256-0.638-0.383-0.128-0.383-0.383-0.383-0.255z" fill="#e94e1b"/></g><g transform="translate(50.36 788.5)"><path d="m0 0-0.511-1.149h-1.277l0.894-0.894-0.256-1.533 1.15 0.766 1.277-0.766-0.383 1.533 1.022 0.894h-1.277z" fill="#e94e1b"/></g><g transform="translate(53.68 799.9)"><path d="m0 0-0.511-1.022h-1.277l0.894-0.894-0.255-1.533 1.149 0.767 1.277-0.767-0.384 1.533 1.023 0.767-1.405 0.127z" fill="#e94e1b"/></g><g transform="translate(46.91 799.9)"><path d="m0 0-0.511-1.022h-1.278l0.894-0.894-0.255-1.533 1.15 0.767 1.277-0.767-0.383 1.533 1.022 0.767-1.406 0.127z" fill="#e94e1b"/></g><g transform="translate(54.45 761.3)"><path d="m0 0c4.857-4.106 9.593-6.363 9.579-6.386 0.014 0.023 5.157 2.532 10.09 6.64-1.802 3.013-3.383 6.96-3.32 10.98 1e-3 1.89 0.306 3.141 1.021 4.981 0.961 2.209 2.916 4.597 4.981 5.619h-25.42c2.047-1.022 4.002-3.41 4.981-5.619 0.697-1.84 1.002-3.091 1.023-4.981 0.044-4.022-1.537-7.892-3.321-10.85z" fill="#004c99"/></g><g transform="translate(70.28 792.7)"><path d="m0 0-6.386 6.129-6.258-6.129v8.301h12.64z" fill="#004c99"/></g><path d="m71.18 801h13.03v-16.99h-13.03z" fill="#ededed"/><g transform="translate(70.28 785.2)"><path d="m0 0-6.386 6.13-6.258-6.13v-1.15h12.64z" fill="#004c99"/></g><g transform="translate(46.91 799.6)"><path d="m0 0c0.061 2e-3 0.03 0.055 0 0-0.029 0.055-0.053 0.019-0.128 0l-0.255-0.894h-1.022c-0.135-0.028-0.068-0.072-0.128-0.127l0.894-0.639-0.383-1.149c0.067-0.032 0.062-0.031 0.127 0-0.042-0.04-0.016-0.04 0 0l0.895 0.638 0.894-0.638c5e-3 -0.04 0.031-0.04 0 0 0.054-0.031 0.048-0.032 0.127 0l-0.383 1.149 0.766 0.639c0.057 0.055 0.129 0.099 0 0.127h-1.021zm0.127 0.639c-0.038 0.071-0.085 0.148-0.127 0.128-0.05 0.02-0.086-0.031-0.128-0.128l-0.511-1.278h-1.66c-0.073-0.016 0.029-0.089 0-0.128l1.277-1.02-0.511-1.661c0.06-0.062 0.052-0.059 0.128-0.128-0.041 0.057 0 0.057 0.127 0.128l1.278 0.894 1.277-0.894c0.1-0.071 0.141-0.071 0.127-0.128 0.049 0.069 0.04 0.066 0.129 0.128l-0.512 1.661 1.277 1.02c-0.056 0.039 0.047 0.112-0.127 0.128h-1.533z" fill-rule="evenodd"/></g><g transform="translate(53.81 799.6)"><path d="m0 0c-0.057 2e-3 -0.088 0.055-0.128 0-0.02 0.055-0.044 0.019 0 0l-0.383-0.894h-1.022c-0.125-0.028-0.059-0.072 0-0.127l0.767-0.639-0.383-1.149c0.076-0.032 0.071-0.031 0.127 0-0.034-0.04-7e-3 -0.04 0 0l0.894 0.638 0.893-0.638c0.015-0.04 0.042-0.04 0 0 0.065-0.031 0.059-0.032 0.129 0l-0.383 1.149 0.894 0.639c-0.062 0.055 0.01 0.099-0.128 0.127h-1.021zm0 0.639c-0.029 0.071-0.077 0.148-0.128 0.128-0.04 0.02-0.076-0.031-0.128-0.128l-0.51-1.278h-1.661c-0.065-0.016 0.039-0.089 0-0.128l1.278-1.02-0.512-1.661c0.071-0.062 0.061-0.059 0.128-0.128-0.032 0.057 0.01 0.057 0.127 0.128l1.278 0.894 1.277-0.894c0.11-0.071 0.15-0.071 0.128-0.128 0.057 0.069 0.049 0.066 0.128 0.128l-0.511 1.661 1.277 1.02c-0.048 0.039 0.055 0.112 0 0.128h-1.66z" fill-rule="evenodd"/></g><g transform="translate(50.49 788.1)"><path d="m0 0c-0.033 0.032-0.063 0.084-0.128 0.128 5e-3 -0.044-0.019-0.078 0-0.128l-0.383-0.894h-1.022c-0.101 0-0.034-0.042 0 0l0.767-0.766-0.255-1.149c-0.028-2e-3 -0.032-2e-3 0 0-9e-3 -9e-3 0.017-9e-3 0.127 0l0.766 0.638 0.895-0.638c0.038-9e-3 0.065-9e-3 0.127 0-0.039-2e-3 -0.045-2e-3 0 0l-0.382 1.149 0.893 0.766c-0.037-0.042 0.034 0 0 0h-1.021zm0 0.639c-5e-3 0.1-0.052 0.178-0.128 0.127-0.015 0.051-0.051 0-0.128 0l-0.51-1.405h-1.533c-0.167 0.014-0.064-0.058-0.127 0l1.277-1.15-0.384-1.659c-0.033-0.032-0.041-0.029 0 0-6e-3 -0.041 0.035-0.041 0.129 0l1.276 0.894 1.278-0.894c0.133-0.041 0.175-0.041 0.127 0 0.082-0.029 0.074-0.032 0.128 0l-0.511 1.659 1.278 1.15c-0.024-0.058 0.08 0.014 0 0h-1.66z" fill-rule="evenodd"/></g><g transform="translate(56.75 784.9)"><path d="m0 0c-0.09 0.333-0.655 0.841-1.149 0.766-0.058 0.026-0.069 0.023-0.127 0 0.037 0.072 0.042 0.124 0 0.128 0.042 0.657-0.439 1.149-1.023 1.15-0.109-1e-3 -0.187-0.014-0.254 0 0.016 0.076 0.039 0.2 0 0.383 0.039 0.555-0.443 1.047-1.023 1.022-0.093 0.025-0.166 3e-3 -0.255 0 0.029 0.057 0.036 0.132 0 0.255 0.036 0.558-0.445 1.049-1.022 1.021-0.157 0.028-0.296 2e-3 -0.383 0 2e-3 0.076 0.022 0.205 0 0.384 0.022 0.611-0.444 1.277-1.021 1.277-0.835 0-1.232-0.668-1.278-1.277 0.046-0.179 0.066-0.308 0.128-0.384-0.148 2e-3 -0.286 0.028-0.383 0-0.636 0.028-1.117-0.463-1.149-1.021 0.032-0.123 0.04-0.198 0-0.255-0.022 3e-3 -0.095 0.025-0.128 0-0.64 0.025-1.12-0.467-1.149-1.022 0.029-0.183 0.05-0.307 0.127-0.383-0.128-0.014-0.205-1e-3 -0.255 0-0.644-1e-3 -1.124-0.493-1.15-1.15 0.026-4e-3 0.029-0.056 0-0.128 9e-3 0.023-2e-3 0.026 0 0-0.567 0.075-1.052-0.563-1.277-0.894v0.512c0.228 0.349 0.542 0.739 1.022 0.765 0.034-0.052 0.046-0.055 0.127 0-0.061-5e-3 -0.064 0.047-0.127 0.129 0.063 0.577 0.543 1.07 1.148 1.021 0.087 0.049 0.166 0.037 0.257 0-0.04 0.127-0.063 0.252 0 0.383-0.063 0.605 0.418 1.097 1.021 1.15 0.071-0.053 0.144-0.073 0.256-0.128-0.051 0.108-0.059 0.182 0 0.255-0.059 0.608 0.422 1.1 1.022 1.15 0.134-0.05 0.19-0.019 0.255-0.128 0.021 0.182 0.083 0.256 0.128 0.383-0.045 0.751 0.557 1.352 1.277 1.405 0.764-0.053 1.389-0.654 1.405-1.405-0.016-0.127 0.033-0.201 0-0.383 0.12 0.109 0.189 0.078 0.383 0.128 0.539-0.05 1.021-0.542 1.021-1.15 0-0.073-9e-3 -0.147 0-0.255 0.053 0.055 0.125 0.075 0.256 0.128 0.543-0.053 1.024-0.545 1.021-1.15 3e-3 -0.131-0.018-0.256 0-0.383 0.031 0.037 0.11 0.049 0.256 0 0.546 0.049 1.027-0.444 1.022-1.021 5e-3 -0.082 0-0.134 0-0.129 0.021-0.055 0.034-0.052 0 0 0.403-0.026 0.931-0.327 1.021-0.638z" fill-rule="evenodd"/></g><g transform="translate(50.36 795.3)"><path d="m0 0c0.234-0.476 0.773-0.841 1.532-0.894-0.05-9e-3 0.118 0.073 0.129-0.128-0.011-0.75 0.536-1.45 1.405-1.405-0.044-0.09-3e-3 -0.106 0-0.127-3e-3 -0.773 0.592-1.369 1.276-1.406 0.148 0.037 0.242 0.046 0.384 0.129-0.173-0.737 0.139-1.443 0.766-1.661 0.317-8e-3 0.597-0.034 0.893 0v0.383c-0.253-0.043-0.535-0.07-0.766 0-0.468 0.117-0.618 0.53-0.638 1.149 0.05 0.12 0.032 0.275 0 0.511 0.046-0.061-0.067 0.063-0.127 0-0.183-0.107-0.35-0.169-0.512-0.127-0.561-0.042-0.975 0.373-1.021 0.894 0.046 0.146 0.03 0.223 0.128 0.383-0.027-0.03 0.035 0.132 0 0.127-0.087 0.126-0.214 0.091-0.257 0.129-0.131-0.076-0.056-0.07-0.254-0.129-0.524 0.059-0.841 0.439-1.022 0.895 0.017 0.228 0.051 0.303 0.127 0.51-0.051 0.178-0.136 0.238-0.255 0.256-0.156-0.04-0.225-0.03-0.383 0-0.694 0.045-1.128 0.557-1.277 1.277 0.036 0.2-0.088 0.498-0.128 0.511-0.035-0.013-0.159-0.311-0.128-0.511-0.143-0.72-0.577-1.232-1.277-1.277-0.155-0.03-0.222-0.04-0.383 0-0.114-0.018-0.2-0.078-0.256-0.256 0.081-0.207 0.117-0.282 0.129-0.51-0.176-0.456-0.494-0.836-1.022-0.895-0.196 0.059-0.12 0.053-0.256 0.129-0.038-0.038-0.164-3e-3 -0.255-0.129-0.03 5e-3 0.031-0.157 0-0.127 0.1-0.16 0.086-0.237 0.127-0.383-0.041-0.521-0.455-0.936-1.022-0.894-0.157-0.042-0.323 0.02-0.51 0.127-0.056 0.063-0.168-0.061-0.128 0-0.028-0.236-0.046-0.391 0-0.511-0.015-0.619-0.165-1.032-0.639-1.149-0.224-0.07-0.507-0.043-0.766 0v-0.383c0.301-0.034 0.582-8e-3 0.894 0 0.632 0.218 0.943 0.924 0.766 1.661 0.146-0.083 0.241-0.092 0.383-0.129 0.69 0.037 1.285 0.633 1.278 1.406 7e-3 0.021 0.048 0.037 0 0.127 0.873-0.045 1.419 0.655 1.405 1.405 0.014 0.201 0.183 0.119 0.127 0.128 0.764 0.053 1.304 0.418 1.533 0.894" fill-rule="evenodd"/></g><g transform="translate(70.28 792.5)"><path d="m0 0v-1.151l-6.386 6.13-6.258-6.13v1.151l6.258 6.129z" fill="#ffd500"/></g><g transform="translate(70.28 791.1)"><path d="m0 0v-1.277l-6.386 6.13-6.258-6.002v1.149l6.258 6.129z" fill="#004c99"/></g><g transform="translate(70.28 789.5)"><path d="m0 0v-1.148l-6.386 6.129-6.258-6.129v1.276l6.258 6.003z" fill="#ffd500"/></g><g transform="translate(70.28 788.1)"><path d="m0 0v-1.149l-6.386 6.13-6.258-6.13v1.149l6.258 6.131z" fill="#004c99"/></g><g transform="translate(70.28 786.7)"><path d="m0 0v-1.149l-6.386 6.13-6.258-6.13v1.149l6.258 6.131z" fill="#ffd500"/></g><g transform="translate(54.7 794.6)"><path d="M 0,0 C 0.052,0.181 0.167,0.295 0.256,0.255 0.45,0.295 0.564,0.181 0.511,0 0.564,-0.103 0.45,-0.216 0.256,-0.256 0.167,-0.216 0.052,-0.103 0,0"/></g><g transform="translate(55.34 794.1)"><path d="m0 0c-0.017 0.158 0.082 0.256 0.256 0.255 0.07 1e-3 0.168-0.097 0.128-0.255 0.04-0.086-0.058-0.184-0.128-0.128-0.174-0.056-0.273 0.042-0.256 0.128"/></g><g transform="translate(54.96 794.2)"><path d="m0 0c0.044 0.06-0.412-0.695-0.893-1.021 0.314 0.08 0.669 0.425 0.637 0.382l-0.51-0.638c0.365 0.192 0.643 0.513 0.638 0.511l-0.256-0.638c0.206 0.131 0.35 0.508 0.384 0.51v-0.767l0.128 0.767c-7e-3 -2e-3 0.138-0.379 0.383-0.51l-0.255 0.638c-0.035 2e-3 0.233-0.319 0.511-0.511l-0.511 0.638c0.054 0.043 0.411-0.302 0.766-0.382-0.522 0.326-0.978 1.081-1.022 1.021" fill-rule="evenodd"/></g><g transform="translate(54.19 794.1)"><path d="M 0,0 C 0.047,0.158 0.146,0.256 0.254,0.255 0.389,0.256 0.487,0.158 0.51,0 0.487,-0.086 0.389,-0.184 0.254,-0.128 0.146,-0.184 0.047,-0.086 0,0"/></g><g transform="translate(45.51 794.6)"><path d="M 0,0 C -0.03,0.181 0.085,0.295 0.255,0.255 0.367,0.295 0.482,0.181 0.51,0 0.482,-0.103 0.367,-0.216 0.255,-0.256 0.085,-0.216 -0.03,-0.103 0,0"/></g><g transform="translate(46.02 794.1)"><path d="M 0,0 C 0.028,0.158 0.128,0.256 0.256,0.255 0.371,0.256 0.47,0.158 0.512,0 0.47,-0.086 0.371,-0.184 0.256,-0.128 0.128,-0.184 0.028,-0.086 0,0"/></g><g transform="translate(45.76 794.2)"><path d="m0 0c-0.038 0.06-0.494-0.695-1.022-1.021 0.361 0.08 0.717 0.425 0.767 0.382l-0.511-0.638c0.283 0.192 0.562 0.513 0.511 0.511l-0.256-0.638c0.25 0.131 0.396 0.508 0.383 0.51l0.128-0.767v0.767c0.04-2e-3 0.184-0.379 0.383-0.51l-0.255 0.638c0.012 2e-3 0.279-0.319 0.639-0.511l-0.512 0.638c-0.027 0.043 0.329-0.302 0.766-0.382-0.603 0.326-1.059 1.081-1.021 1.021" fill-rule="evenodd"/></g><g transform="translate(45 794.1)"><path d="M 0,0 C -0.034,0.158 0.064,0.256 0.127,0.255 0.308,0.256 0.405,0.158 0.383,0 0.405,-0.086 0.308,-0.184 0.127,-0.128 0.064,-0.184 -0.034,-0.086 0,0"/></g><g transform="translate(50.1 798.6)"><path d="M 0,0 C 0.019,0.2 0.134,0.315 0.256,0.255 0.416,0.315 0.532,0.2 0.511,0 0.532,-0.083 0.416,-0.197 0.256,-0.255 0.134,-0.197 0.019,-0.083 0,0"/></g><g transform="translate(50.74 798.1)"><path d="M 0,0 C -0.05,0.176 0.049,0.274 0.128,0.255 0.292,0.274 0.39,0.176 0.383,0 0.39,-0.067 0.292,-0.166 0.128,-0.129 0.049,-0.166 -0.05,-0.067 0,0"/></g><g transform="translate(50.36 798.3)"><path d="m0 0c0.011-0.05-0.445-0.806-1.022-1.151 0.41 0.101 0.766 0.446 0.766 0.384l-0.511-0.639c0.334 0.211 0.611 0.534 0.639 0.512l-0.383-0.639c0.299 0.15 0.444 0.527 0.383 0.511l0.128-0.766 0.128 0.766c-0.04 0.016 0.105-0.361 0.384-0.511l-0.384 0.639c0.061 0.022 0.327-0.301 0.639-0.512l-0.511 0.639c0.021 0.062 0.377-0.283 0.765-0.384-0.554 0.345-1.01 1.101-1.021 1.151" fill-rule="evenodd"/></g><g transform="translate(49.59 798.1)"><path d="M 0,0 C 0.015,0.176 0.113,0.274 0.256,0.255 0.356,0.274 0.455,0.176 0.511,0 0.455,-0.067 0.356,-0.166 0.256,-0.129 0.113,-0.166 0.015,-0.067 0,0"/></g><g transform="translate(55.72 800.5)"><path d="M 0,0 C 0.044,0.167 0.142,0.266 0.255,0.254 0.386,0.266 0.483,0.167 0.512,0 0.483,-0.076 0.386,-0.175 0.255,-0.129 0.142,-0.175 0.044,-0.076 0,0"/></g><g transform="translate(55.47 800.8)"><path d="m0 0c-0.023-0.057-0.48-0.813-1.022-1.149 0.376 0.091 0.731 0.436 0.767 0.383l-0.512-0.638c0.299 0.203 0.576 0.525 0.639 0.51l-0.383-0.638c0.266 0.141 0.409 0.519 0.383 0.511l0.128-0.767v0.767c0.054 8e-3 0.199-0.37 0.511-0.511l-0.383 0.638c0.026 0.015 0.293-0.307 0.639-0.51l-0.511 0.638c-0.014 0.053 0.343-0.292 0.765-0.383-0.59 0.336-1.044 1.092-1.021 1.149" fill-rule="evenodd"/></g><g transform="translate(54.7 800.5)"><path d="M 0,0 C -0.02,0.167 0.079,0.266 0.256,0.254 0.322,0.266 0.421,0.167 0.383,0 0.421,-0.076 0.322,-0.175 0.256,-0.129 0.079,-0.175 -0.02,-0.076 0,0"/></g><g transform="translate(45.25 800.5)"><path d="M 0,0 C 0.053,0.167 0.152,0.266 0.256,0.254 0.395,0.266 0.493,0.167 0.511,0 0.493,-0.076 0.395,-0.175 0.256,-0.129 0.152,-0.175 0.053,-0.076 0,0"/></g><g transform="translate(45 800.8)"><path d="m0 0c-0.013-0.057-0.47-0.813-1.022-1.149 0.386 0.091 0.741 0.436 0.766 0.383l-0.51-0.638c0.307 0.203 0.585 0.525 0.638 0.51l-0.383-0.638c0.275 0.141 0.419 0.519 0.383 0.511l0.128-0.767v0.767c0.064 8e-3 0.208-0.37 0.511-0.511l-0.384 0.638c0.037 0.015 0.304-0.307 0.639-0.51l-0.51 0.638c-4e-3 0.053 0.353-0.292 0.765-0.383-0.58 0.336-1.034 1.092-1.021 1.149" fill-rule="evenodd"/></g><g transform="translate(44.23 800.5)"><path d="M 0,0 C -0.011,0.167 0.088,0.266 0.255,0.254 0.331,0.266 0.429,0.167 0.383,0 0.429,-0.076 0.331,-0.175 0.255,-0.129 0.088,-0.175 -0.011,-0.076 0,0"/></g><g transform="translate(52.91 786.5)"><path d="M 0,0 C 0.049,0.183 0.163,0.297 0.256,0.255 0.446,0.297 0.561,0.183 0.511,0 0.561,-0.1 0.446,-0.215 0.256,-0.255 0.163,-0.215 0.049,-0.1 0,0"/></g><g transform="translate(53.55 785.9)"><path d="M 0,0 C -0.021,0.16 0.079,0.257 0.256,0.256 0.321,0.257 0.42,0.16 0.384,0 0.42,-0.084 0.321,-0.182 0.256,-0.128 0.079,-0.182 -0.021,-0.084 0,0"/></g><g transform="translate(53.17 786.1)"><path d="m0 0c0.04 0.062-0.416-0.694-1.021-1.022 0.438 0.082 0.794 0.427 0.765 0.383l-0.511-0.638c0.362 0.193 0.64 0.516 0.64 0.511l-0.256-0.638c0.201 0.131 0.346 0.508 0.383 0.51v-0.765l0.128 0.765c-0.011-2e-3 0.134-0.379 0.383-0.51l-0.255 0.638c-0.038 5e-3 0.228-0.318 0.511-0.511l-0.511 0.638c0.05 0.044 0.406-0.301 0.766-0.383-0.527 0.328-0.982 1.084-1.022 1.022" fill-rule="evenodd"/></g><g transform="translate(52.4 785.9)"><path d="M 0,0 C 0.043,0.16 0.141,0.257 0.256,0.256 0.386,0.257 0.483,0.16 0.511,0 0.483,-0.084 0.386,-0.182 0.256,-0.128 0.141,-0.182 0.043,-0.084 0,0"/></g><g transform="translate(47.42 786.5)"><path d="M 0,0 C -0.031,0.183 0.083,0.297 0.256,0.255 0.366,0.297 0.482,0.183 0.511,0 0.482,-0.1 0.366,-0.215 0.256,-0.255 0.083,-0.215 -0.031,-0.1 0,0"/></g><g transform="translate(47.93 785.9)"><path d="M 0,0 C 0.028,0.16 0.126,0.257 0.255,0.256 0.369,0.257 0.468,0.16 0.511,0 0.468,-0.084 0.369,-0.182 0.255,-0.128 0.126,-0.182 0.028,-0.084 0,0"/></g><g transform="translate(47.68 786.1)"><path d="m0 0c-0.04 0.062-0.495-0.694-1.021-1.022 0.359 0.082 0.715 0.427 0.765 0.383l-0.51-0.638c0.282 0.193 0.559 0.516 0.51 0.511l-0.255-0.638c0.249 0.131 0.394 0.508 0.383 0.51l0.128-0.765v0.765c0.038-2e-3 0.182-0.379 0.383-0.51l-0.255 0.638c0.01 5e-3 0.276-0.318 0.639-0.511l-0.511 0.638c-0.029 0.044 0.327-0.301 0.766-0.383-0.606 0.328-1.062 1.084-1.022 1.022" fill-rule="evenodd"/></g><g transform="translate(46.91 785.9)"><path d="M 0,0 C -0.037,0.16 0.062,0.257 0.127,0.256 0.305,0.257 0.404,0.16 0.383,0 0.404,-0.084 0.305,-0.182 0.127,-0.128 0.062,-0.182 -0.037,-0.084 0,0"/></g><g transform="translate(50.23 790.8)"><path d="M 0,0 C -0.063,0.088 0.052,0.204 0.256,0.255 0.335,0.204 0.45,0.088 0.511,0 0.45,-0.193 0.335,-0.308 0.256,-0.256 0.052,-0.308 -0.063,-0.193 0,0"/></g><g transform="translate(50.74 790.3)"><path d="M 0,0 C -0.005,0.066 0.093,0.164 0.256,0.128 0.337,0.164 0.436,0.066 0.383,0 0.436,-0.177 0.337,-0.276 0.256,-0.255 0.093,-0.276 -0.005,-0.177 0,0"/></g><g transform="translate(50.36 790.4)"><path d="m0 0c0.056-0.033-0.4-0.789-0.894-1.149 0.328 0.116 0.682 0.461 0.638 0.51l-0.382-0.765c0.249 0.226 0.527 0.55 0.51 0.51l-0.256-0.639c0.218 0.167 0.362 0.544 0.384 0.511v-0.382l0.128 0.382c6e-3 0.033 0.151-0.344 0.384-0.511l-0.256 0.639c-0.022 0.04 0.244-0.284 0.511-0.51l-0.384 0.765c-0.061-0.049 0.296-0.394 0.638-0.51-0.509 0.36-0.965 1.116-1.021 1.149" fill-rule="evenodd"/></g><g transform="translate(49.59 790.3)"><path d="M 0,0 C 0.06,0.066 0.158,0.164 0.256,0.128 0.401,0.164 0.5,0.066 0.511,0 0.5,-0.177 0.401,-0.276 0.256,-0.255 0.158,-0.276 0.06,-0.177 0,0"/></g><g transform="translate(78.33 799.1)"><path d="m0 0c0.642-0.045 0.947-0.077 1.532-0.129-0.119-0.27 0.049-0.664 0.384-0.765-0.067-0.572 0.192-0.709 0.51-0.767l-0.382 2.81h1.787l-0.382-2.81c0.274 0.058 0.533 0.195 0.509 0.767 0.291 0.101 0.458 0.495 0.384 0.765 0.543 0.052 0.846 0.084 1.404 0.129l-2.809-3.96z"/></g><g transform="translate(82.16 796.9)"><path d="m0 0 1.406 1.788h-0.639c0.043-0.225-0.111-0.619-0.384-0.637 0.048-0.388-0.259-0.838-0.766-0.896l-0.128-0.383z" fill="#004c99"/></g><g transform="translate(82.16 796.9)"><path d="m0 0 1.406 1.788h-0.639c0.043-0.225-0.111-0.619-0.384-0.637 0.048-0.388-0.259-0.838-0.766-0.896l-0.128-0.383z" fill="none" stroke="#004c99" stroke-miterlimit="3.864" stroke-width=".041"/></g><g transform="translate(80.37 796.9)"><path d="m0 0-1.406 1.788h0.512c0.039-0.225 0.194-0.619 0.51-0.637-0.092-0.388 0.218-0.838 0.767-0.896l0.128-0.383z" fill="#004c99"/></g><g transform="translate(80.37 796.9)"><path d="m0 0-1.406 1.788h0.512c0.039-0.225 0.194-0.619 0.51-0.637-0.092-0.388 0.218-0.838 0.767-0.896l0.128-0.383z" fill="none" stroke="#004c99" stroke-miterlimit="3.864" stroke-width=".041"/></g><g transform="translate(81.27 795.7)"><path d="m0 0-0.766 1.021c-0.061 0.014 0.229-0.11 0.639-0.127l-0.511 3.448h1.15l-0.384-3.448c0.366 0.017 0.656 0.141 0.639 0.127z" fill="#004c99" fill-rule="evenodd"/></g><g transform="translate(81.27 795.7)"><path d="m0 0-0.766 1.021c-0.061 0.014 0.229-0.11 0.639-0.127l-0.511 3.448h1.15l-0.384-3.448c0.366 0.017 0.656 0.141 0.639 0.127z" fill="none" stroke="#004c99" stroke-miterlimit="3.864" stroke-width=".041"/></g><g transform="translate(71.31 799.1)"><path d="m0 0c0.584-0.045 0.889-0.077 1.533-0.129-0.176-0.27-8e-3 -0.664 0.255-0.765 4e-3 -0.572 0.263-0.709 0.511-0.767l-0.383 2.81h1.916l-0.511-2.81c0.343 0.058 0.603 0.195 0.638 0.767 0.232 0.101 0.4 0.495 0.256 0.765 0.611 0.052 0.916 0.084 1.533 0.129l-2.938-3.96z"/></g><g transform="translate(75.14 796.9)"><path d="m0 0 1.277 1.788h-0.511c-0.014-0.225-0.168-0.619-0.383-0.637-0.01-0.388-0.319-0.838-0.894-0.896v-0.383z" fill="#004c99"/></g><g transform="translate(75.14 796.9)"><path d="m0 0 1.277 1.788h-0.511c-0.014-0.225-0.168-0.619-0.383-0.637-0.01-0.388-0.319-0.838-0.894-0.896v-0.383z" fill="none" stroke="#004c99" stroke-miterlimit="3.864" stroke-width=".041"/></g><g transform="translate(73.22 796.9)"><path d="m0 0-1.405 1.788h0.638c-0.017-0.225 0.137-0.619 0.383-0.637-0.021-0.388 0.287-0.838 0.894-0.896v-0.383z" fill="#004c99"/></g><g transform="translate(73.22 796.9)"><path d="m0 0-1.405 1.788h0.638c-0.017-0.225 0.137-0.619 0.383-0.637-0.021-0.388 0.287-0.838 0.894-0.896v-0.383z" fill="none" stroke="#004c99" stroke-miterlimit="3.864" stroke-width=".041"/></g><g transform="translate(74.24 795.7)"><path d="m0 0-0.894 1.021c9e-3 0.014 0.298-0.11 0.638-0.127l-0.383 3.448h1.15l-0.383-3.448c0.308 0.017 0.597 0.141 0.638 0.127z" fill="#004c99" fill-rule="evenodd"/></g><g transform="translate(74.24 795.7)"><path d="m0 0-0.894 1.021c9e-3 0.014 0.298-0.11 0.638-0.127l-0.383 3.448h1.15l-0.383-3.448c0.308 0.017 0.597 0.141 0.638 0.127z" fill="none" stroke="#004c99" stroke-miterlimit="3.864" stroke-width=".041"/></g><g transform="translate(74.63 788.4)"><path d="m0 0c0.685 0.021 1.011-0.012 1.661 0-0.15-0.357 0.03-0.778 0.382-0.894-0.067-0.604 0.21-0.751 0.511-0.895l-0.383 3.065h1.916l-0.383-3.065c0.277 0.144 0.554 0.291 0.512 0.895 0.327 0.116 0.507 0.537 0.381 0.894 0.627-0.012 0.953 0.021 1.534 0l-3.066-4.216z"/></g><g transform="translate(78.71 786.1)"><path d="m0 0 1.533 2.044h-0.639c-0.018-0.326-0.182-0.747-0.511-0.767 0.089-0.415-0.242-0.896-0.766-1.022l-0.128-0.383z" fill="#004c99"/></g><g transform="translate(78.71 786.1)"><path d="m0 0 1.533 2.044h-0.639c-0.018-0.326-0.182-0.747-0.511-0.767 0.089-0.415-0.242-0.896-0.766-1.022l-0.128-0.383z" fill="none" stroke="#004c99" stroke-miterlimit="3.864" stroke-width=".044"/></g><g transform="translate(76.8 786.1)"><path d="m0 0-1.532 2.044h0.638c-6e-3 -0.326 0.159-0.747 0.384-0.767 0.015-0.415 0.345-0.896 0.893-1.022l0.129-0.383z" fill="#004c99"/></g><g transform="translate(76.8 786.1)"><path d="m0 0-1.532 2.044h0.638c-6e-3 -0.326 0.159-0.747 0.384-0.767 0.015-0.415 0.345-0.896 0.893-1.022l0.129-0.383z" fill="none" stroke="#004c99" stroke-miterlimit="3.864" stroke-width=".044"/></g><g transform="translate(77.82 784.7)"><path d="m0 0-0.895 1.277c-0.043-0.085 0.267-0.218 0.639-0.256l-0.51 3.704h1.277l-0.383-3.704c0.348 0.038 0.658 0.171 0.639 0.256z" fill="#004c99" fill-rule="evenodd"/></g><g transform="translate(77.82 784.7)"><path d="m0 0-0.895 1.277c-0.043-0.085 0.267-0.218 0.639-0.256l-0.51 3.704h1.277l-0.383-3.704c0.348 0.038 0.658 0.171 0.639 0.256z" fill="none" stroke="#004c99" stroke-miterlimit="3.864" stroke-width=".044"/></g><g transform="translate(76.67 770.1)"><path d="m0 0c-0.27 0.066-0.52 0.285-0.638 0.511-0.519 0.024-2.385 0.038-2.938 0-0.024-0.087-0.125-0.138-0.255-0.13-0.118-8e-3 -0.244 0.092-0.256 0.257v4.725c0.012 0.478 0.574 0.14 0.639 0.639 0.091 0.039 0.222 0.114 0.255 0.383-0.016 0.068 0.18-0.107 0.511 0 0.832 0.185 1.896 0.655 2.682 0.127 0.896 0.528 1.964 0.058 2.81-0.127 0.318-0.107 0.514 0.068 0.511 0 0.02-0.269 0.151-0.344 0.255-0.383 0.05-0.499 0.613-0.161 0.639-0.639v-4.725c-0.026-0.165-0.151-0.265-0.256-0.257-0.144-8e-3 -0.244 0.043-0.255 0.13-0.566 0.038-2.433 0.024-3.065 0-9e-3 -0.254-0.257-0.501-0.639-0.511"/></g><g transform="translate(76.92 776.2)"><path d="m0 0c0.794 0.59 1.772-0.026 2.683-0.128v-3.576h-0.127c-0.686 0.143-1.292 0.437-2.044 0.384-0.247-0.052-0.384-0.219-0.512-0.256z" fill="#e94e1b"/></g><g transform="translate(76.54 776.2)"><path d="m0 0v-3.576c-0.09 0.037-0.227 0.204-0.383 0.256-0.844 0.053-1.562-0.243-2.298-0.384h-0.13v3.576c0.965 0.1 2.053 0.718 2.811 0.128" fill="#e94e1b"/></g><g transform="translate(77.95 776)"><path d="m0 0c-0.086-0.341-0.457-0.192-0.767-0.255-0.012-0.011-0.037 0.063 0 0.127 0.186 0.158 0.557 0.331 0.767 0.128"/></g><g transform="translate(78.59 775.9)"><path d="m0 0c0.042-0.114-0.106-0.139-0.256-0.128-0.048 0.088-0.247 0.014-0.256 0.128 0.159 0.282 0.406 0.132 0.512 0"/></g><g transform="translate(79.48 775.7)"><path d="m0 0c-0.036-0.111-0.135-0.161-0.256-0.128-0.101-7e-3 -0.299-7e-3 -0.382 0.128 0.034 0.037 8e-3 0.137 0.127 0.128 0.154-0.065 0.376 0.083 0.511-0.128"/></g><g transform="translate(77.95 775.3)"><path d="m0 0c-0.112-0.197-0.433-0.149-0.639-0.256-0.066 0.132-0.115 0.281 0 0.384 0.182-0.029 0.553 0.194 0.639-0.128"/></g><g transform="translate(78.84 775.2)"><path d="m0 0c-0.164-0.269-0.412 0.078-0.639 0-0.045 0.053-0.045 0.128 0 0.128 0.203 0.074 0.499 0.173 0.639-0.128"/></g><g transform="translate(79.22 775.2)"><path d="m0 0c0.072-0.045-2e-3 -0.169-0.127-0.129-0.024-0.016-0.122 0.059-0.128 0.129 0.054 0.152 0.228 0.128 0.255 0"/></g><g transform="translate(77.56 774.5)"><path d="m0 0c1e-3 -0.119-0.098-0.193-0.255-0.255-0.066 0.062-0.164 0.111-0.128 0.255-0.061 0.078 0.112 0.031 0.128 0.128 0.132-0.024 0.256-0.074 0.255-0.128"/></g><g transform="translate(78.07 774.5)"><path d="m0 0c0.083-0.144-0.065-0.169-0.127-0.255-0.135 0.062-0.112 0.162-0.128 0.255-0.057 0.178 0.29 0.054 0.255 0"/></g><g transform="translate(79.35 774.2)"><path d="M 0,0 C -0.18,-0.037 -0.279,0.086 -0.255,0.128 -0.08,0.359 0.141,0.037 0,0"/></g><g transform="translate(78.97 774.3)"><path d="m0 0c-0.013-0.088-0.344-0.076-0.383-0.128-0.085 0.028-0.189 0.18-0.255 0.256 0.041 0.05 0.331 0.037 0.511 0 0.071-0.043 0.031-0.106 0.127-0.128"/></g><g transform="translate(78.33 774.1)"><path d="m0 0c1e-3 -0.182-0.123-0.207-0.256-0.256-0.064 0.099-0.064 0.173-0.127 0.256 0.136 0.066 0.384 0.114 0.383 0"/></g><g transform="translate(77.95 773.9)"><path d="m0 0c-0.185-0.128-0.506-0.128-0.767-0.128-0.11 0.149 0.038 0.248 0.128 0.257 0.182 0.066 0.577 0.114 0.639-0.129"/></g><g transform="translate(78.84 774.1)"><path d="m0 0c-0.016-0.132-0.115-0.281-0.256-0.256-0.081 0.124 0.116 0.322 0.256 0.256"/></g><g transform="translate(79.35 773.8)"><path d="m0 0c-0.057-0.197-0.254-0.124-0.383 0 5e-3 0.025 5e-3 0.099 0.128 0.128 0.124 0.07 0.297-0.054 0.255-0.128"/></g><g transform="translate(78.33 773.3)"><path d="m0 0-1.15 0.126c-0.06 0.063 0.038 0.212 0.129 0.257 0.404-0.045 0.838 0.023 1.021-0.383"/></g><g transform="translate(79.35 773)"><path d="m0 0c-0.229-0.124-0.502 0.149-0.766 0.128-7e-3 0.12-0.081 0.268 0.128 0.255 0.161-0.036 0.68 0.038 0.638-0.383"/></g><g transform="translate(73.09 775.6)"><path d="m0 0c0.025-0.03 0.021-3.657 0-3.96 0.021-0.355 0.714-0.151 1.022-0.126 0.73 0.148 1.619 0.467 2.299 0.126 0.111-0.176 0.038-0.3 0-0.382l-0.127-0.256h-3.066c-0.352 7e-3 -0.34 0.595-0.383 0.638v3.832z" fill="#e94e1b"/></g><g transform="translate(80.37 775.6)"><path d="m0 0c-0.04-0.03-0.035-3.657 0-3.96-0.035-0.355-0.727-0.151-1.022-0.126-0.742 0.148-1.633 0.467-2.299 0.126-0.125-0.176-0.052-0.3 0-0.382l0.127-0.256h3.066c0.338 7e-3 0.326 0.705 0.383 0.767v3.703z" fill="#e94e1b"/></g><g transform="translate(76.67 772.2)"><path d="m0 0c-0.646 0.785-1.924 5e-3 -2.809 0-0.202-0.021-0.284 0.068-0.257 0.383-0.027 0.398-0.027 3.439 0 3.447l-0.255-0.127c-0.013-0.191-0.012-3.146 0-3.32 0.014-0.255-0.16-0.776 0.255-0.639 1.002 0.085 2.241 0.545 3.066 0 0.947 0.537 2.182 0.084 3.066 0 0.474-0.153 0.356 0.384 0.382 0.639-1e-3 0.174-9e-3 3.129 0 3.32l-0.255 0.127c-0.014 0-0.014-3.039 0-3.447-0.014-0.306-0.067-0.404-0.256-0.383-0.899 5e-3 -2.129 0.862-2.937 0" fill="#e94e1b"/></g><g transform="translate(76.54 770.9)"><path d="m0 0c-0.053 0.178 0.065 0.344 0.255 0.384 0.1-0.04 0.217-0.206 0.256-0.384-0.039-0.238-0.156-0.404-0.256-0.384-0.19-0.02-0.308 0.146-0.255 0.384" fill="#e94e1b"/></g><g transform="translate(79.22 774.6)"><path d="m0 0c-0.092 0.073-0.474 0.079-0.51 0.256 0.036 7e-3 0.067 0.056 0.128 0 0.123 0.056 0.246-0.029 0.382 0z"/></g><g transform="translate(78.59 775)"><path d="m0 0v-0.255h-0.256c-0.151 0.037-0.307 0.01-0.383 0.127 0.113 0.066 0.172 0.148 0.255 0.128 0.058 0.02 0.146-2e-3 0.256 0z"/></g><g transform="translate(77.82 774.8)"><path d="m0 0c-8e-3 -5e-3 0.04 0.019 0 0 0.04 0.143-0.076 0.149-0.128 0.128-0.248 0.021-0.316-0.011-0.511 0v-0.255z"/></g><g transform="translate(75.65 776)"><path d="m0 0c0.02-0.341 0.39-0.192 0.638-0.255 0.073-0.011 0.099 0.063 0.128 0.127-0.252 0.158-0.623 0.331-0.766 0.128"/></g><g transform="translate(74.88 775.9)"><path d="M 0,0 C 0.021,-0.114 0.17,-0.139 0.256,-0.128 0.367,-0.04 0.564,-0.114 0.511,0 0.416,0.282 0.17,0.132 0,0"/></g><g transform="translate(74.12 775.7)"><path d="m0 0c-0.029-0.111 0.07-0.161 0.128-0.128 0.164-7e-3 0.363-7e-3 0.383 0.128 0.029 0.037 0.053 0.137 0 0.128-0.219-0.065-0.441 0.083-0.511-0.128"/></g><g transform="translate(75.52 775.3)"><path d="M 0,0 C 0.173,-0.197 0.494,-0.149 0.639,-0.256 0.767,-0.124 0.816,0.025 0.767,0.128 0.518,0.099 0.148,0.322 0,0"/></g><g transform="translate(74.75 775.2)"><path d="m 0,0 c 0.098,-0.269 0.346,0.078 0.638,0 -0.02,0.053 -0.02,0.128 0,0.128 C 0.37,0.202 0.074,0.301 0,0"/></g><g transform="translate(74.24 775.2)"><path d="M 0,0 C -0.008,-0.045 0.065,-0.169 0.128,-0.129 0.213,-0.145 0.313,-0.07 0.255,0 0.263,0.152 0.09,0.128 0,0"/></g><g transform="translate(75.9 774.5)"><path d="M 0,0 C 0.062,-0.119 0.161,-0.193 0.256,-0.255 0.384,-0.193 0.482,-0.144 0.512,0 0.507,0.078 0.334,0.031 0.256,0.128 0.186,0.104 0.062,0.054 0,0"/></g><g transform="translate(75.39 774.5)"><path d="M 0,0 C -0.021,-0.144 0.128,-0.169 0.256,-0.255 0.325,-0.193 0.3,-0.093 0.383,0 0.375,0.178 0.028,0.054 0,0"/></g><g transform="translate(74.24 774.2)"><path d="M 0,0 C 0.115,-0.037 0.213,0.086 0.128,0.128 0.016,0.359 -0.207,0.037 0,0"/></g><g transform="translate(74.63 774.3)"><path d="m0 0c-0.053-0.088 0.279-0.076 0.383-0.128 0.02 0.028 0.125 0.18 0.128 0.256 0.021 0.05-0.269 0.037-0.383 0-0.138-0.043-0.097-0.106-0.128-0.128"/></g><g transform="translate(75.14 774.1)"><path d="m0 0c0.062-0.182 0.185-0.207 0.256-0.256 0.127 0.099 0.127 0.173 0.127 0.256-0.074 0.066-0.321 0.114-0.383 0"/></g><g transform="translate(75.65 773.9)"><path d="m0 0c0.119-0.128 0.44-0.128 0.638-0.128 0.173 0.149 0.024 0.248 0 0.257-0.248 0.066-0.643 0.114-0.638-0.129"/></g><g transform="translate(74.75 774.1)"><path d="M 0,0 C -0.05,-0.132 0.049,-0.281 0.127,-0.256 0.272,-0.132 0.074,0.066 0,0"/></g><g transform="translate(74.24 773.8)"><path d="m0 0c-8e-3 -0.197 0.19-0.124 0.255 0 0.058 0.025 0.058 0.099 0 0.128-0.19 0.07-0.363-0.054-0.255-0.128"/></g><g transform="translate(75.14 773.3)"><path d="m0 0 1.149 0.126c0.124 0.063 0.025 0.212-0.127 0.257-0.342-0.045-0.778 0.023-1.022-0.383"/></g><g transform="translate(74.12 773)"><path d="m 0,0 c 0.292,-0.124 0.564,0.149 0.766,0.128 0.07,0.12 0.145,0.268 0,0.255 C 0.54,0.347 0.021,0.421 0,0"/></g><g transform="translate(74.24 774.6)"><path d="m0 0c0.156 0.073 0.537 0.079 0.511 0.256 0.026 7e-3 -6e-3 0.056 0 0-0.19 0.056-0.312-0.029-0.511 0z"/></g><g transform="translate(75.01 775)"><path d="m0 0v-0.255h0.128c0.213 0.037 0.369 0.01 0.383 0.127-0.051 0.066-0.11 0.148-0.128 0.128-0.123 0.02-0.211-2e-3 -0.255 0z"/></g><g transform="translate(75.78 774.8)"><path d="m0 0c-0.057-5e-3 -0.105 0.019-0.127 0 0.022 0.143 0.137 0.149 0.255 0.128 0.183 0.021 0.25-0.011 0.383 0v-0.255z"/></g><g transform="translate(51.51 770.1)"><path d="m0 0c-0.33 0.066-0.581 0.285-0.638 0.511-0.58 0.024-2.446 0.038-3.065 0 0.042-0.087-0.059-0.138-0.128-0.13-0.179-8e-3 -0.305 0.092-0.256 0.257v4.725c-0.048 0.478 0.513 0.14 0.511 0.639 0.157 0.039 0.29 0.114 0.255 0.383 0.052 0.068 0.247-0.107 0.512 0 0.899 0.185 1.962 0.655 2.809 0.127 0.835 0.528 1.903 0.058 2.682-0.127 0.385-0.107 0.581 0.068 0.639 0-0.041-0.269 0.091-0.344 0.255-0.383-9e-3 -0.499 0.553-0.161 0.511-0.639v-4.725c0.042-0.165-0.084-0.265-0.256-0.257-0.076-8e-3 -0.177 0.043-0.127 0.13-0.626 0.038-2.493 0.024-3.065 0-0.071-0.254-0.318-0.501-0.639-0.511"/></g><g transform="translate(51.64 776.2)"><path d="m0 0c0.861 0.59 1.837-0.026 2.809-0.128v-3.576h-0.127c-0.747 0.143-1.351 0.437-2.171 0.384-0.18-0.052-0.318-0.219-0.511-0.256z" fill="#e94e1b"/></g><g transform="translate(51.38 776.2)"><path d="m0 0v-3.576c-0.15 0.037-0.288 0.204-0.51 0.256-0.778 0.053-1.495-0.243-2.299-0.384v3.576c0.903 0.1 1.991 0.718 2.809 0.128" fill="#e94e1b"/></g><g transform="translate(52.66 776)"><path d="m0 0c-0.019-0.341-0.39-0.192-0.639-0.255-0.072-0.011-0.097 0.063-0.128 0.127 0.253 0.158 0.624 0.331 0.767 0.128"/></g><g transform="translate(53.43 775.9)"><path d="m0 0c-0.018-0.114-0.166-0.139-0.256-0.128-0.109 0.088-0.306 0.014-0.255 0.128 0.097 0.282 0.345 0.132 0.511 0"/></g><g transform="translate(54.19 775.7)"><path d="m0 0c0.03-0.111-0.069-0.161-0.128-0.128-0.163-7e-3 -0.36-7e-3 -0.383 0.128-0.027 0.037-0.052 0.137 0 0.128 0.22-0.065 0.442 0.083 0.511-0.128"/></g><g transform="translate(52.79 775.3)"><path d="m0 0c-0.171-0.197-0.492-0.149-0.639-0.256-0.125 0.132-0.174 0.281-0.127 0.384 0.248-0.029 0.62 0.194 0.766-0.128"/></g><g transform="translate(53.55 775.2)"><path d="m0 0c-0.096-0.269-0.343 0.078-0.638 0 0.023 0.053 0.023 0.128 0 0.128 0.271 0.074 0.567 0.173 0.638-0.128"/></g><g transform="translate(54.06 775.2)"><path d="m0 0c0.01-0.045-0.065-0.169-0.128-0.129-0.085-0.016-0.184 0.059-0.128 0.129-6e-3 0.152 0.167 0.128 0.256 0"/></g><g transform="translate(52.4 774.5)"><path d="m0 0c-0.06-0.119-0.158-0.193-0.255-0.255-0.126 0.062-0.225 0.111-0.256 0.255 6e-3 0.078 0.179 0.031 0.256 0.128 0.072-0.024 0.195-0.074 0.255-0.128"/></g><g transform="translate(52.91 774.5)"><path d="m0 0c0.023-0.144-0.125-0.169-0.255-0.255-0.068 0.062-0.044 0.162-0.128 0.255 0.011 0.178 0.356 0.054 0.383 0"/></g><g transform="translate(54.06 774.2)"><path d="M 0,0 C -0.114,-0.037 -0.213,0.086 -0.128,0.128 -0.015,0.359 0.207,0.037 0,0"/></g><g transform="translate(53.68 774.3)"><path d="m0 0c0.056-0.088-0.277-0.076-0.383-0.128-0.018 0.028-0.122 0.18-0.128 0.256-0.019 0.05 0.271 0.037 0.383 0 0.139-0.043 0.098-0.106 0.128-0.128"/></g><g transform="translate(53.17 774.1)"><path d="m0 0c-0.06-0.182-0.183-0.207-0.256-0.256-0.125 0.099-0.125 0.173-0.127 0.256 0.077 0.066 0.323 0.114 0.383 0"/></g><g transform="translate(52.66 773.9)"><path d="m0 0c-0.117-0.128-0.439-0.128-0.639-0.128-0.171 0.149-0.023 0.248 0 0.257 0.249 0.066 0.645 0.114 0.639-0.129"/></g><g transform="translate(53.55 774.1)"><path d="m0 0c0.052-0.132-0.047-0.281-0.127-0.256-0.142 0.124 0.056 0.322 0.127 0.256"/></g><g transform="translate(54.06 773.8)"><path d="m0 0c0.01-0.197-0.188-0.124-0.256 0-0.056 0.025-0.056 0.099 0 0.128 0.191 0.07 0.364-0.054 0.256-0.128"/></g><g transform="translate(53.17 773.3)"><path d="m0 0-1.149 0.126c-0.122 0.063-0.023 0.212 0.128 0.257 0.343-0.045 0.779 0.023 1.021-0.383"/></g><g transform="translate(54.19 773)"><path d="m0 0c-0.291-0.124-0.563 0.149-0.767 0.128-0.068 0.12-0.142 0.268 0 0.255 0.229-0.036 0.748 0.038 0.767-0.383"/></g><g transform="translate(47.93 775.6)"><path d="m0 0c-0.036-0.03-0.04-3.657 0-3.96-0.04-0.355 0.652-0.151 1.021-0.126 0.669 0.148 1.559 0.467 2.3 0.126 0.051-0.176-0.023-0.3-0.128-0.382l-0.127-0.256h-2.938c-0.413 7e-3 -0.401 0.595-0.384 0.638v3.832z" fill="#e94e1b"/></g><g transform="translate(55.09 775.6)"><path d="m0 0c0.028-0.03 0.033-3.657 0-3.96 0.033-0.355-0.66-0.151-1.021-0.126-0.677 0.148-1.567 0.467-2.3 0.126-0.058-0.176 0.017-0.3 0.128-0.382l0.128-0.256h2.937c0.406 7e-3 0.393 0.705 0.383 0.767v3.703z" fill="#e94e1b"/></g><g transform="translate(51.51 772.2)"><path d="m0 0c-0.706 0.785-1.985 5e-3 -2.937 0-0.135-0.021-0.217 0.068-0.256 0.383 0.039 0.398 0.039 3.439 0 3.447l-0.255-0.127c0.053-0.191 0.055-3.146 0-3.32 0.08-0.255-0.093-0.776 0.384-0.639 0.94 0.085 2.178 0.545 3.064 0 0.888 0.537 2.12 0.084 3.064 0 0.416-0.153 0.297 0.384 0.385 0.639-0.063 0.174-0.07 3.129-0.128 3.32l-0.257 0.127c0.054 0 0.054-3.039 0-3.447 0.054-0.306 0-0.404-0.127-0.383-0.96 5e-3 -2.19 0.862-2.937 0" fill="#e94e1b"/></g><g transform="translate(51.25 770.9)"><path d="M 0,0 C 0.014,0.178 0.132,0.344 0.255,0.384 0.422,0.344 0.539,0.178 0.511,0 0.539,-0.238 0.422,-0.404 0.255,-0.384 0.132,-0.404 0.014,-0.238 0,0" fill="#e94e1b"/></g><g transform="translate(54.06 774.6)"><path d="m0 0c-0.155 0.073-0.535 0.079-0.512 0.256-0.023 7e-3 8e-3 0.056 0 0 0.192 0.056 0.314-0.029 0.512 0z"/></g><g transform="translate(53.3 775)"><path d="m0 0v-0.255h-0.128c-0.212 0.037-0.368 0.01-0.383 0.127 0.052 0.066 0.111 0.148 0.127 0.128 0.125 0.02 0.214-2e-3 0.256 0z"/></g><g transform="translate(52.53 774.8)"><path d="m0 0c0.059-5e-3 0.108 0.019 0.128 0-0.02 0.143-0.137 0.149-0.256 0.128-0.181 0.021-0.249-0.011-0.383 0v-0.255z"/></g><g transform="translate(50.36 776)"><path d="m0 0c0.088-0.341 0.459-0.192 0.767-0.255 0.013-0.011 0.037 0.063 0 0.127-0.185 0.158-0.556 0.331-0.767 0.128"/></g><g transform="translate(49.72 775.9)"><path d="M 0,0 C -0.04,-0.114 0.108,-0.139 0.254,-0.128 0.305,-0.04 0.503,-0.114 0.51,0 0.356,0.282 0.108,0.132 0,0"/></g><g transform="translate(48.83 775.7)"><path d="M 0,0 C 0.037,-0.111 0.137,-0.161 0.256,-0.128 0.36,-0.135 0.557,-0.135 0.639,0 0.606,0.037 0.63,0.137 0.51,0.128 0.36,0.063 0.137,0.211 0,0"/></g><g transform="translate(50.36 775.3)"><path d="m0 0c0.112-0.197 0.434-0.149 0.639-0.256 0.066 0.132 0.116 0.281 0 0.384-0.18-0.029-0.551 0.194-0.639-0.128"/></g><g transform="translate(49.47 775.2)"><path d="m 0,0 c 0.166,-0.269 0.413,0.078 0.638,0 0.047,0.053 0.047,0.128 0,0.128 C 0.437,0.202 0.141,0.301 0,0"/></g><g transform="translate(49.08 775.2)"><path d="M 0,0 C -0.07,-0.045 0.004,-0.169 0.126,-0.129 0.152,-0.145 0.252,-0.07 0.254,0 0.202,0.152 0.029,0.128 0,0"/></g><g transform="translate(50.74 774.5)"><path d="M 0,0 C 0.001,-0.119 0.1,-0.193 0.256,-0.255 0.321,-0.193 0.421,-0.144 0.383,0 0.445,0.078 0.273,0.031 0.256,0.128 0.125,0.104 0.001,0.054 0,0"/></g><g transform="translate(50.23 774.5)"><path d="m0 0c-0.081-0.144 0.067-0.169 0.128-0.255 0.137 0.062 0.112 0.162 0.128 0.255 0.059 0.178-0.287 0.054-0.256 0"/></g><g transform="translate(48.96 774.2)"><path d="M 0,0 C 0.182,-0.037 0.281,0.086 0.255,0.128 0.084,0.359 -0.139,0.037 0,0"/></g><g transform="translate(49.34 774.3)"><path d="m0 0c0.014-0.088 0.346-0.076 0.384-0.128 0.086 0.028 0.19 0.18 0.254 0.256-0.038 0.05-0.329 0.037-0.51 0-0.07-0.043-0.03-0.106-0.128-0.128"/></g><g transform="translate(49.98 774.1)"><path d="M 0,0 C 0.002,-0.182 0.126,-0.207 0.256,-0.256 0.323,-0.157 0.323,-0.083 0.384,0 0.25,0.066 0.002,0.114 0,0"/></g><g transform="translate(50.36 773.9)"><path d="M 0,0 C 0.187,-0.128 0.508,-0.128 0.767,-0.128 0.879,0.021 0.731,0.12 0.639,0.129 0.459,0.195 0.063,0.243 0,0"/></g><g transform="translate(49.47 774.1)"><path d="M 0,0 C 0.018,-0.132 0.116,-0.281 0.256,-0.256 0.339,-0.132 0.141,0.066 0,0"/></g><g transform="translate(48.96 773.8)"><path d="M 0,0 C 0.059,-0.197 0.257,-0.124 0.383,0 0.38,0.025 0.38,0.099 0.255,0.128 0.133,0.198 -0.04,0.074 0,0"/></g><g transform="translate(49.98 773.3)"><path d="m0 0 1.151 0.126c0.062 0.063-0.037 0.212-0.128 0.257-0.404-0.045-0.838 0.023-1.023-0.383"/></g><g transform="translate(48.96 773)"><path d="M 0,0 C 0.232,-0.124 0.503,0.149 0.767,0.128 0.777,0.248 0.85,0.396 0.638,0.383 0.479,0.347 -0.04,0.421 0,0"/></g><g transform="translate(49.08 774.6)"><path d="m0 0c0.095 0.073 0.476 0.079 0.51 0.256-0.034 7e-3 -0.065 0.056-0.127 0-0.123 0.056-0.245-0.029-0.383 0z"/></g><g transform="translate(49.72 775)"><path d="m0 0v-0.255h0.254c0.153 0.037 0.31 0.01 0.384 0.127-0.11 0.066-0.17 0.148-0.255 0.128-0.056 0.02-0.144-2e-3 -0.255 0z"/></g><g transform="translate(50.49 774.8)"><path d="m0 0c0.011-5e-3 -0.039 0.019 0 0-0.039 0.143 0.077 0.149 0.128 0.128 0.25 0.021 0.318-0.011 0.511 0v-0.255z"/></g><g transform="translate(66.45 776.7)"><path d="m0 0c-0.011-0.139-0.044-0.333-0.128-0.511 0.179-0.044 0.368 0.031 0.639 0 0.595-0.019 1.338-0.638 1.532-1.15-0.433-6e-3 -0.712-0.062-1.149-0.127-0.261-0.059-0.601-0.202-0.638-0.384-0.098-0.022-0.052-0.069 0-0.127 0.319-0.194 0.854-0.129 1.405 0 0.082 0.036 0.286 0.099 0.255 0.127-0.735-0.546-0.594-1.656-1.277-2.171 0.46-0.375 0.883-0.684 1.404-1.149 0.073-0.055 0.351-0.193 0.638-0.127-0.272-0.57-0.676-0.437-1.02-0.64 0.551-0.284 0.978-0.788 1.149-1.404 0.457-1.37-0.216-2.813-1.277-3.447 0.071-2.373-0.807-3.955-1.789-5.747-0.083-0.04-0.108-0.128-0.127-0.255-0.377-0.607 0.272-1.002 0.383-1.532 0.183-0.421 1e-3 -0.983-0.383-1.149-0.636-0.233-1.215-0.248-1.916-0.256-0.641 8e-3 -1.406 0.023-2.043 0.256-0.383 0.166-0.59 0.645-0.383 1.149 0.113 0.53 0.707 0.925 0.383 1.532-0.074 0.127-0.125 0.215-0.128 0.255-1.062 1.792-2.267 3.575-1.787 5.747-0.679 1.029-1.641 2.18-1.15 3.575 0.168 0.682 0.545 1.148 1.15 1.405 0.56 0.282 0.969 0.352 1.532 0.254 0.518-0.199 0.806-0.522 1.149-0.764v-0.129c-0.039 0.229-0.078 0.404-0.255 0.639-0.397 0.691-1.762 0.522-2.555 0.254-0.172 0.094-0.094 0.213 0 0.384 0.339 0.727 1.249 0.982 1.789 1.023 0.221 0.011-0.075 0.256-0.128 0.254-0.804 0.137-0.699 0.752-1.149 0.894-0.383 0.281-0.48 0.196-0.64 0.128 0.157 0.588 0.839 0.775 1.405 0.894 0.299-0.07 0.596-0.07 0.767-0.255 0.03 0.411-0.344 0.507-0.511 0.766-0.081 0.087-0.081 0.26-0.256 0.384-0.195-0.297-0.393-0.619-0.765-0.639-0.469-0.178-0.871-0.13-1.277 0.255-0.156 0.211-0.156 0.532-0.256 0.766-0.197-0.086-0.346-0.448-0.384-0.639 0.112-0.054 0.148-0.115 0.127-0.127 0.021-0.208-0.099-0.327-0.254-0.384-0.139 0.057-0.258 0.176-0.256 0.384-2e-3 0.02 0.052 0.1 0.128 0.127 0.096 0.242 0.267 0.558 0.382 0.767 6e-3 0.136-0.022 0.193-0.127 0.255-0.128-0.068-0.248-0.146-0.383-0.255 0.012-0.206-0.106-0.367-0.255-0.383-0.145 0.016-0.264 0.135-0.256 0.255-8e-3 0.174 0.18 0.279 0.384 0.255 0.166 0.098 0.327 0.277 0.383 0.512h-0.128c-0.107 5e-3 -0.247 0.016-0.383 0-0.044-0.135-0.134-0.208-0.256-0.256-0.127 0.048-0.247 0.168-0.254 0.256 7e-3 0.205 0.127 0.323 0.254 0.383 0.074-0.06 0.117-0.072 0.129-0.128 0.24 0.026 0.399 0.045 0.51 0.255-0.027 0.071-0.2 0.17-0.255 0.129-0.14 0.076-0.282 0.061-0.384 0-0.05-0.116-0.152-0.189-0.254-0.129-0.139-0.06-0.259 0.06-0.256 0.256-3e-3 0.098 0.117 0.216 0.256 0.255 0.065-0.039 0.075-0.049 0.127-0.127 0.207 0.078 0.395 0.125 0.511 0.127h0.127c-0.339 0.372-0.514 0.963-0.382 1.533 0.08 0.721 0.564 1.332 1.02 1.405 0.106-0.263 0.122-0.731 0.513-0.895 0.771-0.231 1.867 0.138 2.553-0.766 0.228-0.257 0.526-0.753 0.894-0.766 0.324-0.111 0.62-0.061 0.895-0.256 0.071 0.17-3e-3 0.368-0.128 0.512-0.394 0.425-1.062 1.043-0.894 1.788 0.203 0.169 0.086 0.406 0 0.51-0.308 0.675-0.922 0.935-0.894 1.532 0.38 0.056 0.801 0.056 1.148 0.129 0.592 0.199 1.309 0.199 1.788 0 0.213 0.075 0.309 0.237 0.512 0.384 0.467 0.219 0.858 0.34 1.277 0.382 0.139-0.338 1.125-1.399 0.511-2.682-9e-3 -0.06 0.273-0.405 0.383-0.64 0.162-0.322 0.25-0.855 0.255-0.893-0.264-0.116-0.75-0.342-1.66-0.51 0.197-0.165 0.306-0.395 0.383-0.639l0.256 0.127c0.15 0.42 1.142 0.884 1.787 1.022 0.284 0.129 0.391 0.509 0.384 0.766 0.057 0.236-0.142 0.459-0.384 0.512-0.194 0.053-0.202-0.028-0.127 0.127 0.296 0.388 0.743 0.664 1.277 0.639 0.429-0.09 0.712-0.36 0.894-0.766 0.254-0.466 0.053-0.721-0.128-1.149 0.242-0.031 0.425-0.082 0.639-0.129 0.583-0.28 0.484-0.588 1.021-0.766 0.066-5e-3 0.048 0.032 0 0-0.421-0.117-0.492-0.641-0.893-1.022-0.175-0.292-0.661-0.448-0.639-0.51 0.077-0.309 0.332-0.734 0.128-1.149-0.225-0.508-0.632-0.778-1.15-0.768-0.264 0.043-0.39 0.057-0.51 0.256 0.372 0.122 0.512 0.538 0.382 0.894-0.402 0.867-1.76 0.264-2.426 0.894-0.127 0.126-0.171 0.208-0.255 0.256-0.015 0.029-0.119 0.045-0.256-0.128" fill-rule="evenodd"/></g><g transform="translate(66.45 776.7)"><path d="m0 0c-0.011-0.139-0.044-0.333-0.128-0.511 0.179-0.044 0.368 0.031 0.639 0 0.595-0.019 1.338-0.638 1.532-1.15-0.433-6e-3 -0.712-0.062-1.149-0.127-0.261-0.059-0.601-0.202-0.638-0.384-0.098-0.022-0.052-0.069 0-0.127 0.319-0.194 0.854-0.129 1.405 0 0.082 0.036 0.286 0.099 0.255 0.127-0.735-0.546-0.594-1.656-1.277-2.171 0.46-0.375 0.883-0.684 1.404-1.149 0.073-0.055 0.351-0.193 0.638-0.127-0.272-0.57-0.676-0.437-1.02-0.64 0.551-0.284 0.978-0.788 1.149-1.404 0.457-1.37-0.216-2.813-1.277-3.447 0.071-2.373-0.807-3.955-1.789-5.747-0.083-0.04-0.108-0.128-0.127-0.255-0.377-0.607 0.272-1.002 0.383-1.532 0.183-0.421 1e-3 -0.983-0.383-1.149-0.636-0.233-1.215-0.248-1.916-0.256-0.641 8e-3 -1.406 0.023-2.043 0.256-0.383 0.166-0.59 0.645-0.383 1.149 0.113 0.53 0.707 0.925 0.383 1.532-0.074 0.127-0.125 0.215-0.128 0.255-1.062 1.792-2.267 3.575-1.787 5.747-0.679 1.029-1.641 2.18-1.15 3.575 0.168 0.682 0.545 1.148 1.15 1.405 0.56 0.282 0.969 0.352 1.532 0.254 0.518-0.199 0.806-0.522 1.149-0.764v-0.129c-0.039 0.229-0.078 0.404-0.255 0.639-0.397 0.691-1.762 0.522-2.555 0.254-0.172 0.094-0.094 0.213 0 0.384 0.339 0.727 1.249 0.982 1.789 1.023 0.221 0.011-0.075 0.256-0.128 0.254-0.804 0.137-0.699 0.752-1.149 0.894-0.383 0.281-0.48 0.196-0.64 0.128 0.157 0.588 0.839 0.775 1.405 0.894 0.299-0.07 0.596-0.07 0.767-0.255 0.03 0.411-0.344 0.507-0.511 0.766-0.081 0.087-0.081 0.26-0.256 0.384-0.195-0.297-0.393-0.619-0.765-0.639-0.469-0.178-0.871-0.13-1.277 0.255-0.156 0.211-0.156 0.532-0.256 0.766-0.197-0.086-0.346-0.448-0.384-0.639 0.112-0.054 0.148-0.115 0.127-0.127 0.021-0.208-0.099-0.327-0.254-0.384-0.139 0.057-0.258 0.176-0.256 0.384-2e-3 0.02 0.052 0.1 0.128 0.127 0.096 0.242 0.267 0.558 0.382 0.767 6e-3 0.136-0.022 0.193-0.127 0.255-0.128-0.068-0.248-0.146-0.383-0.255 0.012-0.206-0.106-0.367-0.255-0.383-0.145 0.016-0.264 0.135-0.256 0.255-8e-3 0.174 0.18 0.279 0.384 0.255 0.166 0.098 0.327 0.277 0.383 0.512h-0.128c-0.107 5e-3 -0.247 0.016-0.383 0-0.044-0.135-0.134-0.208-0.256-0.256-0.127 0.048-0.247 0.168-0.254 0.256 7e-3 0.205 0.127 0.323 0.254 0.383 0.074-0.06 0.117-0.072 0.129-0.128 0.24 0.026 0.399 0.045 0.51 0.255-0.027 0.071-0.2 0.17-0.255 0.129-0.14 0.076-0.282 0.061-0.384 0-0.05-0.116-0.152-0.189-0.254-0.129-0.139-0.06-0.259 0.06-0.256 0.256-3e-3 0.098 0.117 0.216 0.256 0.255 0.065-0.039 0.075-0.049 0.127-0.127 0.207 0.078 0.395 0.125 0.511 0.127h0.127c-0.339 0.372-0.514 0.963-0.382 1.533 0.08 0.721 0.564 1.332 1.02 1.405 0.106-0.263 0.122-0.731 0.513-0.895 0.771-0.231 1.867 0.138 2.553-0.766 0.228-0.257 0.526-0.753 0.894-0.766 0.324-0.111 0.62-0.061 0.895-0.256 0.071 0.17-3e-3 0.368-0.128 0.512-0.394 0.425-1.062 1.043-0.894 1.788 0.203 0.169 0.086 0.406 0 0.51-0.308 0.675-0.922 0.935-0.894 1.532 0.38 0.056 0.801 0.056 1.148 0.129 0.592 0.199 1.309 0.199 1.788 0 0.213 0.075 0.309 0.237 0.512 0.384 0.467 0.219 0.858 0.34 1.277 0.382 0.139-0.338 1.125-1.399 0.511-2.682-9e-3 -0.06 0.273-0.405 0.383-0.64 0.162-0.322 0.25-0.855 0.255-0.893-0.264-0.116-0.75-0.342-1.66-0.51 0.197-0.165 0.306-0.395 0.383-0.639l0.256 0.127c0.15 0.42 1.142 0.884 1.787 1.022 0.284 0.129 0.391 0.509 0.384 0.766 0.057 0.236-0.142 0.459-0.384 0.512-0.194 0.053-0.202-0.028-0.127 0.127 0.296 0.388 0.743 0.664 1.277 0.639 0.429-0.09 0.712-0.36 0.894-0.766 0.254-0.466 0.053-0.721-0.128-1.149 0.242-0.031 0.425-0.082 0.639-0.129 0.583-0.28 0.484-0.588 1.021-0.766 0.066-5e-3 0.048 0.032 0 0-0.421-0.117-0.492-0.641-0.893-1.022-0.175-0.292-0.661-0.448-0.639-0.51 0.077-0.309 0.332-0.734 0.128-1.149-0.225-0.508-0.632-0.778-1.15-0.768-0.264 0.043-0.39 0.057-0.51 0.256 0.372 0.122 0.512 0.538 0.382 0.894-0.402 0.867-1.76 0.264-2.426 0.894-0.127 0.126-0.171 0.208-0.255 0.256-0.015 0.029-0.119 0.045-0.256-0.128z" fill="none" stroke="#000" stroke-miterlimit="3.864" stroke-width=".069"/></g><g transform="translate(67.73 770.1)"><path d="m0 0c0.58-0.182 0.909-0.547 1.15-1.022 0.495-1.29-0.245-2.733-1.277-3.32 0.042-2.419-0.836-4.082-1.788-5.874-0.112-0.041-0.137-0.129-0.128-0.256-0.407-0.607 0.179-0.908 0.383-1.531 0.115-0.409 0.031-0.582-0.383-0.768-0.605-0.215-0.954-0.215-1.533-0.256-0.647 0.039-1.011 0.022-1.66 0.256-0.37 0.165-0.516 0.359-0.383 0.768 0.186 0.623 0.736 0.924 0.383 1.531-0.044 0.127-0.096 0.215-0.127 0.256-1.033 1.792-2.239 3.574-1.788 5.747-0.65 1.029-1.6 2.076-1.149 3.447 0.205 0.708 0.525 1.085 1.149 1.277 0.631 0.145 1.153 0.048 1.532-0.255 0.466-0.375 0.858-0.787 1.661-0.767 0.681-0.02 0.742-0.02 0.765 0-0.023-0.02 0.575-0.123 1.022 0.382 0.542 0.442 1.2 0.525 1.405 0.513 0.29-0.031 0.495-0.022 0.766-0.128" fill="#fff"/></g><g transform="translate(67.73 770.1)"><path d="m0 0c0.58-0.182 0.909-0.547 1.15-1.022 0.495-1.29-0.245-2.733-1.277-3.32 0.042-2.419-0.836-4.082-1.788-5.874-0.112-0.041-0.137-0.129-0.128-0.256-0.407-0.607 0.179-0.908 0.383-1.531 0.115-0.409 0.031-0.582-0.383-0.768-0.605-0.215-0.954-0.215-1.533-0.256-0.647 0.039-1.011 0.022-1.66 0.256-0.37 0.165-0.516 0.359-0.383 0.768 0.186 0.623 0.736 0.924 0.383 1.531-0.044 0.127-0.096 0.215-0.127 0.256-1.033 1.792-2.239 3.574-1.788 5.747-0.65 1.029-1.6 2.076-1.149 3.447 0.205 0.708 0.525 1.085 1.149 1.277 0.631 0.145 1.153 0.048 1.532-0.255 0.466-0.375 0.858-0.787 1.661-0.767 0.681-0.02 0.742-0.02 0.765 0-0.023-0.02 0.575-0.123 1.022 0.382 0.542 0.442 1.2 0.525 1.405 0.513 0.29-0.031 0.495-0.022 0.766-0.128z" fill="none" stroke="#fff" stroke-miterlimit="3.864" stroke-width=".021"/></g><g transform="translate(70.03 780.2)"><path d="m0 0c0.289-0.299 0.216-0.628 0.128-1.021-0.098-0.307-0.553-0.667-0.511-0.639 0.099-0.221 0.323-0.026 0.511 0 0.566 0.129 1.095-0.204 1.277-0.639-8e-3 -0.257-0.335-0.495-0.511-0.765-0.521-0.483-1.023 0.065-1.15-0.384 0.054-0.193 0.511-0.349 0.512-0.768 0.088-0.466-0.093-0.647-0.384-0.893-0.061 0.525-0.126 0.909-0.638 1.278-0.586 0.47-1.312 0.143-2.045 0.383-0.12 0.133-0.278 0.251-0.254 0.511 0.134 1.406 2.219 0.607 2.426 2.043 0.046 0.482-0.176 0.589-0.382 1.022 8e-3 0.012 0.197 9e-3 0.382 0 0.211 0.024 0.403 0.013 0.639-0.128" fill="#fff"/></g><g transform="translate(70.03 780.2)"><path d="m0 0c0.289-0.299 0.216-0.628 0.128-1.021-0.098-0.307-0.553-0.667-0.511-0.639 0.099-0.221 0.323-0.026 0.511 0 0.566 0.129 1.095-0.204 1.277-0.639-8e-3 -0.257-0.335-0.495-0.511-0.765-0.521-0.483-1.023 0.065-1.15-0.384 0.054-0.193 0.511-0.349 0.512-0.768 0.088-0.466-0.093-0.647-0.384-0.893-0.061 0.525-0.126 0.909-0.638 1.278-0.586 0.47-1.312 0.143-2.045 0.383-0.12 0.133-0.278 0.251-0.254 0.511 0.134 1.406 2.219 0.607 2.426 2.043 0.046 0.482-0.176 0.589-0.382 1.022 8e-3 0.012 0.197 9e-3 0.382 0 0.211 0.024 0.403 0.013 0.639-0.128z" fill="none" stroke="#fff" stroke-miterlimit="3.864" stroke-width=".021"/></g><g transform="translate(66.84 779.8)"><path d="m0 0c0.224-0.171 0.271-0.441 0.382-0.766-0.26-0.218-0.606-0.316-0.893-0.383-0.603 0.116-0.652 0.734-0.766 1.149-0.01 0.178 0.138 0.327 0.255 0.383 0.401-7e-3 0.701-0.062 1.022-0.383" fill="#fff"/></g><g transform="translate(66.84 779.8)"><path d="m0 0c0.224-0.171 0.271-0.441 0.382-0.766-0.26-0.218-0.606-0.316-0.893-0.383-0.603 0.116-0.652 0.734-0.766 1.149-0.01 0.178 0.138 0.327 0.255 0.383 0.401-7e-3 0.701-0.062 1.022-0.383z" fill="none" stroke="#fff" stroke-miterlimit="3.864" stroke-width=".021"/></g><g transform="translate(64.79 779.8)"><path d="m0 0c0.312-0.192 0.263-0.441 0.256-0.639-0.216-0.419-0.612-0.617-0.895-0.766-0.458 0.149-0.868 0.745-0.894 1.149-0.112 0.191-0.09 0.531 0.256 0.512 0.505 0.045 0.823-0.423 1.277-0.256" fill="#fff"/></g><g transform="translate(64.79 779.8)"><path d="m0 0c0.312-0.192 0.263-0.441 0.256-0.639-0.216-0.419-0.612-0.617-0.895-0.766-0.458 0.149-0.868 0.745-0.894 1.149-0.112 0.191-0.09 0.531 0.256 0.512 0.505 0.045 0.823-0.423 1.277-0.256z" fill="none" stroke="#fff" stroke-miterlimit="3.864" stroke-width=".021"/></g><g transform="translate(59.3 779.3)"><path d="m0 0c0.481-0.326 0.722-0.243 1.277-0.255 0.403 0.042 0.717-0.092 0.894-0.384 0.232-0.422 0.185-0.799-0.128-1.149-0.187-0.297-0.555-0.581-0.894-0.383-0.257 0.188-0.222 0.457-0.128 0.767 0.028 0.229 0.333 0.388 0 0.51-0.607-0.197-1.374 0.149-1.788-0.383-0.229-0.012-0.303 0.306-0.255 0.511-0.097 0.556 0.051 0.812 0.383 1.149 0.237-0.065 0.334-0.29 0.639-0.383" fill="#fff"/></g><g transform="translate(59.3 779.3)"><path d="m0 0c0.481-0.326 0.722-0.243 1.277-0.255 0.403 0.042 0.717-0.092 0.894-0.384 0.232-0.422 0.185-0.799-0.128-1.149-0.187-0.297-0.555-0.581-0.894-0.383-0.257 0.188-0.222 0.457-0.128 0.767 0.028 0.229 0.333 0.388 0 0.51-0.607-0.197-1.374 0.149-1.788-0.383-0.229-0.012-0.303 0.306-0.255 0.511-0.097 0.556 0.051 0.812 0.383 1.149 0.237-0.065 0.334-0.29 0.639-0.383z" fill="none" stroke="#fff" stroke-miterlimit="3.864" stroke-width=".021"/></g><g transform="translate(65.56 778.5)"><path d="m0 0c-0.084-0.424-0.158-0.967-0.638-1.277-0.286 0.16-0.385 0.458-0.383 0.766 0.295 0.385 0.69 0.509 0.894 0.895 0.093-0.041 0.117-0.239 0.127-0.384" fill="#fff"/></g><g transform="translate(65.56 778.5)"><path d="m0 0c-0.084-0.424-0.158-0.967-0.638-1.277-0.286 0.16-0.385 0.458-0.383 0.766 0.295 0.385 0.69 0.509 0.894 0.895 0.093-0.041 0.117-0.239 0.127-0.384z" fill="none" stroke="#fff" stroke-miterlimit="3.864" stroke-width=".021"/></g><g transform="translate(62.37 777.9)"><path d="m0 0-0.128-0.129c-0.101 0.17-0.348 0.244-0.256 0.513 0.155-0.12 0.304-0.269 0.384-0.384" fill="#fff"/></g><g transform="translate(62.37 777.9)"><path d="m0 0-0.128-0.129c-0.101 0.17-0.348 0.244-0.256 0.513 0.155-0.12 0.304-0.269 0.384-0.384z" fill="none" stroke="#fff" stroke-miterlimit="3.864" stroke-width=".021"/></g><g transform="translate(59.94 777.9)"><path d="m0 0c0.048-0.551 0.418-1.045 0.256-1.532-0.208-0.231-0.465-0.153-0.765 0-0.434 0.111-0.729 0.56-0.641 1.021 0.085 0.503 0.752 0.479 1.15 0.511" fill="#fff"/></g><g transform="translate(59.94 777.9)"><path d="m0 0c0.048-0.551 0.418-1.045 0.256-1.532-0.208-0.231-0.465-0.153-0.765 0-0.434 0.111-0.729 0.56-0.641 1.021 0.085 0.503 0.752 0.479 1.15 0.511z" fill="none" stroke="#fff" stroke-miterlimit="3.864" stroke-width=".021"/></g><g transform="translate(66.07 777.1)"><path d="m0 0c0.146-1.195-1.262-1.492-1.532-2.427-0.151-0.029-0.225 0.12-0.256 0.127-0.042 0.561 0.105 1.056 0.384 1.534 0.339 0.461 0.958 0.832 1.149 1.404 0.254-0.127 0.303-0.423 0.255-0.638" fill="#fff"/></g><g transform="translate(66.07 777.1)"><path d="m0 0c0.146-1.195-1.262-1.492-1.532-2.427-0.151-0.029-0.225 0.12-0.256 0.127-0.042 0.561 0.105 1.056 0.384 1.534 0.339 0.461 0.958 0.832 1.149 1.404 0.254-0.127 0.303-0.423 0.255-0.638z" fill="none" stroke="#fff" stroke-miterlimit="3.864" stroke-width=".021"/></g><g transform="translate(64.15 776.9)"><path d="m0 0c0.309-0.567-0.187-1.137-0.255-1.659l-0.638 0.382c-0.035 0.511-0.381 1.055-0.894 1.277h-0.511c-0.039 0.198 0.208 0.396 0.383 0.511 0.344 0.207 0.814 0.281 1.149 0.128 0.283-0.143 0.579-0.39 0.766-0.639" fill="#fff"/></g><g transform="translate(64.15 776.9)"><path d="m0 0c0.309-0.567-0.187-1.137-0.255-1.659l-0.638 0.382c-0.035 0.511-0.381 1.055-0.894 1.277h-0.511c-0.039 0.198 0.208 0.396 0.383 0.511 0.344 0.207 0.814 0.281 1.149 0.128 0.283-0.143 0.579-0.39 0.766-0.639z" fill="none" stroke="#fff" stroke-miterlimit="3.864" stroke-width=".021"/></g><g transform="translate(61.22 776.9)"><path d="m0 0c-0.019-0.172 6e-3 -0.37 0.256-0.383 0.472 0.058 0.861 0.013 1.149-0.256 0.134-0.151 0.233-0.3 0.255-0.51-0.806-0.03-1.45 0.293-1.788 0.766-0.113-0.061-0.162-0.111-0.128-0.127l0.256-0.894c-0.266 0.317-0.636 0.663-0.511 1.148 0.134 0.156 0.344 0.183 0.511 0.256" fill="#fff"/></g><g transform="translate(60.45 775.6)"><path d="m0 0c0.105-0.156 0.476-0.305 0.128-0.511-0.122-0.091-0.368-0.151-0.64-0.128-0.236 0.151-0.397 0.334-0.382 0.639-0.188 0.511 0.454 0.165 0.639 0.383 0.285 0.079 0.187-0.268 0.255-0.383" fill="#fff"/></g><g transform="translate(60.45 775.6)"><path d="m0 0c0.105-0.156 0.476-0.305 0.128-0.511-0.122-0.091-0.368-0.151-0.64-0.128-0.236 0.151-0.397 0.334-0.382 0.639-0.188 0.511 0.454 0.165 0.639 0.383 0.285 0.079 0.187-0.268 0.255-0.383z" fill="none" stroke="#fff" stroke-miterlimit="3.864" stroke-width=".021"/></g><g transform="translate(67.73 775.5)"><path d="m0 0v-0.128c-0.705-0.113-1.461-0.247-2.171-0.894-0.324-0.306-0.617-0.866-0.638-0.766-0.05-0.044-0.163 0.421-0.128 0.766 0.022 0.772 0.968 1.365 1.789 1.405 0.365-0.014 0.895 0.011 1.148-0.383" fill="#fff"/></g><g transform="translate(67.73 775.5)"><path d="m0 0v-0.128c-0.705-0.113-1.461-0.247-2.171-0.894-0.324-0.306-0.617-0.866-0.638-0.766-0.05-0.044-0.163 0.421-0.128 0.766 0.022 0.772 0.968 1.365 1.789 1.405 0.365-0.014 0.895 0.011 1.148-0.383z" fill="none" stroke="#fff" stroke-miterlimit="3.864" stroke-width=".021"/></g><g transform="translate(64.67 773.6)"><path d="m0 0c-0.13-0.413-0.353-0.734-0.512-1.022-0.262 0.14-0.286 0.535-0.382 0.767-0.571 1.004-1.708 1.203-2.172 2.171l0.128 0.127c1.175-0.354 2.487-0.577 2.938-2.043" fill="#fff"/></g><g transform="translate(64.67 773.6)"><path d="m0 0c-0.13-0.413-0.353-0.734-0.512-1.022-0.262 0.14-0.286 0.535-0.382 0.767-0.571 1.004-1.708 1.203-2.172 2.171l0.128 0.127c1.175-0.354 2.487-0.577 2.938-2.043z" fill="none" stroke="#fff" stroke-miterlimit="3.864" stroke-width=".021"/></g><g transform="translate(67.22 773.9)"><path d="m0 0c-0.162-0.74-0.779-1.735-1.404-1.787-0.167 0.893 0.773 1.314 1.404 1.787" fill="#fff"/></g><g transform="translate(67.22 773.9)"><path d="m0 0c-0.162-0.74-0.779-1.735-1.404-1.787-0.167 0.893 0.773 1.314 1.404 1.787z" fill="none" stroke="#fff" stroke-miterlimit="3.864" stroke-width=".021"/></g><g transform="translate(63.64 772.2)"><path d="m0 0c-0.396-0.099-0.593 0.642-1.15 0.639-0.459-0.209-0.881 0.163-1.277 0.51-0.145 0.193-0.315 0.486-0.255 0.51 0.681 0.248 1.347-0.117 1.915-0.638 0.415-0.351 0.629-0.783 0.767-1.021" fill="#fff"/></g><g transform="translate(63.64 772.2)"><path d="m0 0c-0.396-0.099-0.593 0.642-1.15 0.639-0.459-0.209-0.881 0.163-1.277 0.51-0.145 0.193-0.315 0.486-0.255 0.51 0.681 0.248 1.347-0.117 1.915-0.638 0.415-0.351 0.629-0.783 0.767-1.021z" fill="none" stroke="#fff" stroke-miterlimit="3.864" stroke-width=".021"/></g><g transform="translate(63.26 773.4)"><path d="m0 0c-0.158 0.113-0.357 0.211-0.384 0.384 0.176-0.049 0.299-0.197 0.384-0.384" fill="#004c99"/></g><g transform="translate(63.26 773.4)"><path d="m0 0c-0.158 0.113-0.357 0.211-0.384 0.384 0.176-0.049 0.299-0.197 0.384-0.384z" fill="none" stroke="#004c99" stroke-miterlimit="3.864" stroke-width=".086"/></g><g transform="translate(65.94 773.9)"><path d="m0 0c-0.289-0.755-0.69-1.808-1.15-2.553-0.158 0.028-0.257-0.096-0.383 0-0.269 0.176-0.022 0.548 0 0.766 0.349 0.596 0.799 1.574 1.533 1.787" fill="#fff"/></g><g transform="translate(65.94 773.9)"><path d="m0 0c-0.289-0.755-0.69-1.808-1.15-2.553-0.158 0.028-0.257-0.096-0.383 0-0.269 0.176-0.022 0.548 0 0.766 0.349 0.596 0.799 1.574 1.533 1.787z" fill="none" stroke="#fff" stroke-miterlimit="3.864" stroke-width=".021"/></g><g transform="translate(68.24 771.1)"><path d="m0 0c-0.096-0.162-0.318-0.187-0.383-0.128-0.751 0.312-1.871 0.753-2.554 0-0.266-0.312-0.249-0.75-0.384-1.149-0.533-0.145-0.183 0.482-0.383 0.766 0.408 0.695 1.005 1.272 1.916 1.277 0.725 0.028 1.222-0.383 1.788-0.766" fill="#fff"/></g><g transform="translate(68.24 771.1)"><path d="m0 0c-0.096-0.162-0.318-0.187-0.383-0.128-0.751 0.312-1.871 0.753-2.554 0-0.266-0.312-0.249-0.75-0.384-1.149-0.533-0.145-0.183 0.482-0.383 0.766 0.408 0.695 1.005 1.272 1.916 1.277 0.725 0.028 1.222-0.383 1.788-0.766z" fill="none" stroke="#fff" stroke-miterlimit="3.864" stroke-width=".021"/></g><g transform="translate(64.28 770.7)"><path d="m0 0c0.017-0.349-0.027-0.833 0-0.894-0.273-0.014-0.612 4e-3 -0.894 0.128-0.063 0.173-0.116 0.47-0.255 0.766-0.689 0.755-1.808 0.767-2.554 0.64 4e-3 0.103 0.368 0.256 0.639 0.382 1.183 0.442 2.78 0.143 3.064-1.022" fill="#fff"/></g><g transform="translate(64.28 770.7)"><path d="m0 0c0.017-0.349-0.027-0.833 0-0.894-0.273-0.014-0.612 4e-3 -0.894 0.128-0.063 0.173-0.116 0.47-0.255 0.766-0.689 0.755-1.808 0.767-2.554 0.64 4e-3 0.103 0.368 0.256 0.639 0.382 1.183 0.442 2.78 0.143 3.064-1.022z" fill="none" stroke="#fff" stroke-miterlimit="3.864" stroke-width=".021"/></g><g transform="translate(67.09 770.7)"><path d="m0 0c-0.628-0.124-1.122-0.346-1.533-0.51-0.207 0.237 0.04 0.485 0.256 0.638 0.415 0.216 0.737 0.147 1.277-0.128" fill="#004c99"/></g><g transform="translate(66.2 781.3)"><path d="m0 0c0.054 0.1 0.135 0.219 0.128 0.383 7e-3 0.169-0.15 0.326-0.383 0.382-0.154-0.056-0.311-0.213-0.255-0.382-0.056-0.068-0.038-0.146 0-0.128-0.014-0.288-0.167-0.595-0.256-0.766-0.376 0.22 0.149 0.787-0.383 0.894 0.23 0.638 0.947 0.487 1.405 0.766 0.159-0.626 0.852-1.318 0.255-2.043-0.219 0.181-0.591 0.23-0.894 0.127-0.132 0.401 0.098 0.606 0.255 0.767z" fill="#fff"/></g><g transform="translate(66.2 781.3)"><path d="m0 0c0.054 0.1 0.135 0.219 0.128 0.383 7e-3 0.169-0.15 0.326-0.383 0.382-0.154-0.056-0.311-0.213-0.255-0.382-0.056-0.068-0.038-0.146 0-0.128-0.014-0.288-0.167-0.595-0.256-0.766-0.376 0.22 0.149 0.787-0.383 0.894 0.23 0.638 0.947 0.487 1.405 0.766 0.159-0.626 0.852-1.318 0.255-2.043-0.219 0.181-0.591 0.23-0.894 0.127-0.132 0.401 0.098 0.606 0.255 0.767z" fill="none" stroke="#fff" stroke-miterlimit="3.864" stroke-width=".021"/></g><g transform="translate(64.41 781.1)"><path d="m0 0c-2e-3 0.175-0.134 0.279-0.256 0.256-0.236 0.023-0.382-0.121-0.382-0.256 0-0.224 0.139-0.383 0.382-0.383 0.159-0.024 0.357-0.173 0.512-0.383-0.426-0.06-0.797 0.359-1.278 0.255-0.311 0.302-0.638 0.759-0.894 1.15 0.676 0.178 1.571 0.437 2.299 0.127v-0.127c-0.035-0.106-0.233-0.378 0-0.511 0.188-0.164 0.188-0.436 0.256-0.639-0.214 0.133-0.433 0.319-0.639 0.511" fill="#fff" fill-rule="evenodd"/></g><g transform="translate(64.41 781.1)"><path d="m0 0c-2e-3 0.175-0.134 0.279-0.256 0.256-0.236 0.023-0.382-0.121-0.382-0.256 0-0.224 0.139-0.383 0.382-0.383 0.159-0.024 0.357-0.173 0.512-0.383-0.426-0.06-0.797 0.359-1.278 0.255-0.311 0.302-0.638 0.759-0.894 1.15 0.676 0.178 1.571 0.437 2.299 0.127v-0.127c-0.035-0.106-0.233-0.378 0-0.511 0.188-0.164 0.188-0.436 0.256-0.639-0.214 0.133-0.433 0.319-0.639 0.511z" fill="none" stroke="#fff" stroke-miterlimit="3.864" stroke-width=".021"/></g><g transform="translate(67.47 769.1)"><path d="m0 0c-0.414 0.268-0.861 0.16-1.277-0.383-0.208-0.137-0.398-0.444-0.128-0.639 0.103-0.059 1.132-0.676 1.277-0.764 0.254-0.123 0.436 0.187 0.511 0.382 0.234 0.676 0.119 1.122-0.255 1.404z" fill="#004c99"/></g><g transform="translate(67.47 769.1)"><path d="m0 0c-0.414 0.268-0.861 0.16-1.277-0.383-0.208-0.137-0.398-0.444-0.128-0.639 0.103-0.059 1.132-0.676 1.277-0.764 0.254-0.123 0.436 0.187 0.511 0.382 0.234 0.676 0.119 1.122-0.255 1.404z" fill="none" stroke="#004c99" stroke-miterlimit="3.864" stroke-width=".021"/></g><g transform="translate(60.58 769.3)"><path d="m0 0c0.502 0.218 0.95 0.111 1.404-0.383 0.17-0.187 0.359-0.494 0.128-0.639-0.142-0.108-1.171-0.726-1.277-0.765-0.294-0.172-0.474 0.139-0.511 0.383-0.273 0.626-0.157 1.072 0.256 1.404" fill="#004c99"/></g><g transform="translate(60.58 769.3)"><path d="m0 0c0.502 0.218 0.95 0.111 1.404-0.383 0.17-0.187 0.359-0.494 0.128-0.639-0.142-0.108-1.171-0.726-1.277-0.765-0.294-0.172-0.474 0.139-0.511 0.383-0.273 0.626-0.157 1.072 0.256 1.404z" fill="none" stroke="#004c99" stroke-miterlimit="3.864" stroke-width=".021"/></g><g transform="translate(60.58 769.3)"><path d="m0 0c0.502 0.218 0.95 0.111 1.404-0.383 0.17-0.187 0.359-0.494 0.128-0.639-0.142-0.108-1.171-0.726-1.277-0.765-0.294-0.172-0.474 0.139-0.511 0.383-0.273 0.626-0.157 1.072 0.256 1.404m1.021-1.659c-0.45-0.306-0.981-0.726-1.149-0.512-0.617 0.419-0.772 1.418-0.512 1.915 0.189 0.266 0.292 0.385 0.512 0.511 0.175 0.11 0.343 0.155 0.639 0.128 0.589 0.065 1.401-0.541 1.532-1.277 0.057-0.254-0.593-0.553-1.022-0.765" fill-rule="evenodd"/></g><g transform="translate(67.47 769.1)"><path d="m0 0c-0.414 0.268-0.861 0.16-1.277-0.383-0.208-0.137-0.398-0.444-0.128-0.639 0.103-0.059 1.132-0.676 1.277-0.764 0.254-0.123 0.436 0.187 0.511 0.382 0.234 0.676 0.119 1.122-0.255 1.404zm-0.894-1.66c0.412-0.255 0.942-0.675 1.149-0.511 0.578 0.468 0.734 1.467 0.384 2.044-0.101 0.188-0.203 0.305-0.384 0.383-0.213 0.158-0.381 0.204-0.638 0.255-0.63-0.014-1.441-0.619-1.533-1.278-0.096-0.33 0.553-0.633 1.022-0.893" fill-rule="evenodd"/></g><g transform="translate(66.71 777.5)"><path d="m0 0c-6e-3 -0.088-0.025-0.202 0-0.255l-0.256-0.128v0.128c0.032 0.122 0.025 0.122 0 0.127 0.136 0.057 0.145 0.126 0.256 0.128" fill="#fff"/></g><g transform="translate(80.5 794.9)"><path d="m0 0c-0.018 0.041-0.053 0.08-0.128 0.128-0.03 0.058 0.023 0.417-0.128 0.639-0.059 0.252-0.164 0.303-0.383 0.255-0.307 0.048-0.509-0.144-0.639-0.383-0.027-0.129-0.123-0.191-0.127-0.255-0.101-0.032-0.145-0.084-0.128-0.129-0.087-0.042-0.044-0.121 0-0.255-0.078-0.041-0.061-0.094 0-0.128l-0.255 0.895c0.286 0.345 0.467 0.822 0.383 1.405-0.369-0.152-0.21 0.505-0.639 0.766-0.106 0.187-0.354 0.311-0.638 0.256-0.431-0.192-0.544-0.767-0.382-1.278-0.52-0.165-0.106-0.503 0-0.894 0.186-0.084 0.429-0.477 0.637-0.511 0.018-0.105 0.126-0.941 0.128-1.022-0.091 0.06-0.336-0.369-0.383 0.127 0.047 0.589-0.271 0.794-0.511 0.895 0.127 0.42-0.077 0.555-0.255 0.638-0.142 0.161-0.053 0.494-0.129 0.767-0.083 0.191-0.328 0.245-0.51 0.256-0.329 0.039-0.637-0.209-0.639-0.511v-0.512c-0.073 0.047-0.107 0.047-0.127 0-0.217 0.047-0.479-0.066-0.511-0.127-0.017-0.215 0.05-0.32 0-0.383 0.025-0.356 0.519-0.579 0.255-0.894-0.131-0.328 0.017-0.748 0.256-1.022-0.289-0.097-0.684-0.196-0.767-0.511 0.033-0.575-0.436-0.872-0.638-1.277 0.35-0.633-0.589-0.805-0.383-1.404 0.016-0.317 0.289-0.515 0.511-0.639 0.371-0.024 0.642 0.026 0.893 0.255 0.195 0.141 0.392-0.131 0.639 0 0.272 0.017 0.594 0.166 0.766 0.384 0.026 0.599 0.644 0.128 0.895 0.51 0.094 0.385 0.293 0.731 0.127 1.149 0.066 0.199 0.388 0.126 0.511 0.256 0.446-0.527 0.644-1.07 0.766-1.788 0.15-0.32 0.109-0.608 0.128-1.022 0.393 0.133 0.689 0.416 1.021 0.638-0.109 0.544-0.283 0.979-0.51 1.533-0.094 0.089-0.118 0.286 0 0.383 0.203 2e-3 0.45-0.172 0.51-0.383-0.133-0.505 0.137-0.999 0.639-1.404 0.217 0.2 0.463-0.312 0.767-0.384 0.264-0.126 0.733-0.126 0.894 0.255 0.206 0.461 0.038 0.929-0.384 1.278 0.182 0.272-0.031 0.494-0.255 0.767-0.211 0.18-0.679 0.014-0.638 0.127 0.359 0 0.466-3e-3 0.638 0.128 0.347 0.187 0.438 0.351 0.383 0.767 0.046 0.333-0.139 0.56-0.383 0.638-0.927 0.012-0.787 0.711-1.277 0.51-0.128 0.274 0.14 0.361 0 0.511" fill-rule="evenodd"/></g><g transform="translate(80.5 794.9)"><path d="m0 0c-0.018 0.041-0.053 0.08-0.128 0.128-0.03 0.058 0.023 0.417-0.128 0.639-0.059 0.252-0.164 0.303-0.383 0.255-0.307 0.048-0.509-0.144-0.639-0.383-0.027-0.129-0.123-0.191-0.127-0.255-0.101-0.032-0.145-0.084-0.128-0.129-0.087-0.042-0.044-0.121 0-0.255-0.078-0.041-0.061-0.094 0-0.128l-0.255 0.895c0.286 0.345 0.467 0.822 0.383 1.405-0.369-0.152-0.21 0.505-0.639 0.766-0.106 0.187-0.354 0.311-0.638 0.256-0.431-0.192-0.544-0.767-0.382-1.278-0.52-0.165-0.106-0.503 0-0.894 0.186-0.084 0.429-0.477 0.637-0.511 0.018-0.105 0.126-0.941 0.128-1.022-0.091 0.06-0.336-0.369-0.383 0.127 0.047 0.589-0.271 0.794-0.511 0.895 0.127 0.42-0.077 0.555-0.255 0.638-0.142 0.161-0.053 0.494-0.129 0.767-0.083 0.191-0.328 0.245-0.51 0.256-0.329 0.039-0.637-0.209-0.639-0.511v-0.512c-0.073 0.047-0.107 0.047-0.127 0-0.217 0.047-0.479-0.066-0.511-0.127-0.017-0.215 0.05-0.32 0-0.383 0.025-0.356 0.519-0.579 0.255-0.894-0.131-0.328 0.017-0.748 0.256-1.022-0.289-0.097-0.684-0.196-0.767-0.511 0.033-0.575-0.436-0.872-0.638-1.277 0.35-0.633-0.589-0.805-0.383-1.404 0.016-0.317 0.289-0.515 0.511-0.639 0.371-0.024 0.642 0.026 0.893 0.255 0.195 0.141 0.392-0.131 0.639 0 0.272 0.017 0.594 0.166 0.766 0.384 0.026 0.599 0.644 0.128 0.895 0.51 0.094 0.385 0.293 0.731 0.127 1.149 0.066 0.199 0.388 0.126 0.511 0.256 0.446-0.527 0.644-1.07 0.766-1.788 0.15-0.32 0.109-0.608 0.128-1.022 0.393 0.133 0.689 0.416 1.021 0.638-0.109 0.544-0.283 0.979-0.51 1.533-0.094 0.089-0.118 0.286 0 0.383 0.203 2e-3 0.45-0.172 0.51-0.383-0.133-0.505 0.137-0.999 0.639-1.404 0.217 0.2 0.463-0.312 0.767-0.384 0.264-0.126 0.733-0.126 0.894 0.255 0.206 0.461 0.038 0.929-0.384 1.278 0.182 0.272-0.031 0.494-0.255 0.767-0.211 0.18-0.679 0.014-0.638 0.127 0.359 0 0.466-3e-3 0.638 0.128 0.347 0.187 0.438 0.351 0.383 0.767 0.046 0.333-0.139 0.56-0.383 0.638-0.927 0.012-0.787 0.711-1.277 0.51-0.128 0.274 0.14 0.361 0 0.511z" fill="none" stroke="#000" stroke-miterlimit="3.864" stroke-width=".069"/></g><g transform="translate(78.46 797.1)"><path d="m0 0c-0.152-0.219-0.455-0.219-0.638-0.256-0.209 0.277-0.27 0.579 0 0.895 0.093 0.077 0.214 0.047 0.383 0 0.162-0.135 0.284-0.406 0.255-0.639" fill="#ffd500"/></g><g transform="translate(78.46 797.1)"><path d="m0 0c-0.152-0.219-0.455-0.219-0.638-0.256-0.209 0.277-0.27 0.579 0 0.895 0.093 0.077 0.214 0.047 0.383 0 0.162-0.135 0.284-0.406 0.255-0.639z" fill="none" stroke="#ffd500" stroke-miterlimit="3.864" stroke-width=".046"/></g><g transform="translate(78.71 796.4)"><path d="m0 0c0.063-0.161-0.073-0.514-0.256-0.638-0.306-0.094-0.524 0.15-0.766 0.255l-0.255 0.383c0.412 0.114 0.986 0.196 1.405 0.384z" fill="#ffd500"/></g><g transform="translate(78.71 796.4)"><path d="m0 0c0.063-0.161-0.073-0.514-0.256-0.638-0.306-0.094-0.524 0.15-0.766 0.255l-0.255 0.383c0.412 0.114 0.986 0.196 1.405 0.384z" fill="none" stroke="#ffd500" stroke-miterlimit="3.864" stroke-width=".045"/></g><g transform="translate(80.12 795.5)"><path d="m0 0v-0.384c-0.17-0.125-0.544-0.051-0.638 0-0.192 0.119 0.047 0.306 0.128 0.384 0.102 0.146 0.414 0.231 0.51 0" fill="#ffd500"/></g><g transform="translate(80.12 795.5)"><path d="m0 0v-0.384c-0.17-0.125-0.544-0.051-0.638 0-0.192 0.119 0.047 0.306 0.128 0.384 0.102 0.146 0.414 0.231 0.51 0z" fill="none" stroke="#ffd500" stroke-miterlimit="3.864" stroke-width=".09"/></g><g transform="translate(80.88 793.9)"><path d="m0 0c0.01-0.646 1.428 0.114 1.021-1.021-0.242-0.518-0.878 0.055-1.149-0.512-0.062 0.186-1.094 0.678-0.894 0.766 0.308-0.092 0.52-0.141 0.766-0.382 0.054 7e-3 0.095-7e-3 0.128 0l-0.128 0.382c0.266-0.014 0.648-0.134 0.895 0.129-0.205 0.183-0.565-8e-3 -0.767 0.126-0.074 0.099 0.181 0.248 0 0.384-0.266-0.072-0.48-0.306-0.766-0.255-0.096 0.119-0.053 0.289 0 0.383 0.032 0.161 0.18 0.204 0.255 0.256 0.287 0.033 0.521-0.031 0.639-0.256" fill="#37ab49"/></g><g transform="translate(80.88 793.9)"><path d="m0 0c0.01-0.646 1.428 0.114 1.021-1.021-0.242-0.518-0.878 0.055-1.149-0.512-0.062 0.186-1.094 0.678-0.894 0.766 0.308-0.092 0.52-0.141 0.766-0.382 0.054 7e-3 0.095-7e-3 0.128 0l-0.128 0.382c0.266-0.014 0.648-0.134 0.895 0.129-0.205 0.183-0.565-8e-3 -0.767 0.126-0.074 0.099 0.181 0.248 0 0.384-0.266-0.072-0.48-0.306-0.766-0.255-0.096 0.119-0.053 0.289 0 0.383 0.032 0.161 0.18 0.204 0.255 0.256 0.287 0.033 0.521-0.031 0.639-0.256z" fill="none" stroke="#37ab49" stroke-miterlimit="3.864" stroke-width=".071"/></g><g transform="translate(79.74 793.9)"><path d="m0 0c-0.066-0.257-0.389-0.306-0.639-0.383-0.073 0.101-0.049 0.276 0 0.383 0.2 0.166 0.498 0.141 0.639 0" fill="#37ab49"/></g><g transform="translate(79.74 793.9)"><path d="m0 0c-0.066-0.257-0.389-0.306-0.639-0.383-0.073 0.101-0.049 0.276 0 0.383 0.2 0.166 0.498 0.141 0.639 0z" fill="none" stroke="#37ab49" stroke-miterlimit="3.864" stroke-width=".083"/></g><g transform="translate(77.56 793.9)"><path d="m0 0c0.126-0.182-0.022-0.406-0.127-0.638-0.044-0.114-0.216-0.164-0.383-0.129-0.155 0.262-0.476 0.435-0.384 0.767 0.204 0.138 0.6 0.138 0.894 0" fill="#ffd500"/></g><g transform="translate(77.56 793.9)"><path d="m0 0c0.126-0.182-0.022-0.406-0.127-0.638-0.044-0.114-0.216-0.164-0.383-0.129-0.155 0.262-0.476 0.435-0.384 0.767 0.204 0.138 0.6 0.138 0.894 0z" fill="none" stroke="#ffd500" stroke-miterlimit="3.864" stroke-width=".082"/></g><g transform="translate(78.46 793.5)"><path d="m0 0c0.092-0.27-0.032-0.468-0.128-0.639-0.176-0.176-0.424-0.25-0.639-0.127 0.018 0.347 0.289 0.619 0.384 1.021 0.128 0.092 0.326-0.155 0.383-0.255" fill="#ffd500"/></g><g transform="translate(78.46 793.5)"><path d="m0 0c0.092-0.27-0.032-0.468-0.128-0.639-0.176-0.176-0.424-0.25-0.639-0.127 0.018 0.347 0.289 0.619 0.384 1.021 0.128 0.092 0.326-0.155 0.383-0.255z" fill="none" stroke="#ffd500" stroke-miterlimit="3.864" stroke-width=".082"/></g><g transform="translate(77.18 792.6)"><path d="m0 0c-0.251-0.584-1.08-0.095-1.532-0.255-0.124-0.103-0.02-0.26 0-0.256 0.111-0.136 0.348-0.108 0.255-0.255-0.3-0.247-0.877 0.041-1.022-0.382l0.256-0.129c-0.033-0.156-0.216-0.181-0.383-0.255-0.121 0.021-0.154 0.16-0.256 0.255-0.026 0.246 0.109 0.447 0.256 0.638 0.665 0.176-0.046 1.232 0.894 1.279 0.557 0.051 1.151-0.201 1.532-0.64" fill="#37ab49"/></g><g transform="translate(77.18 792.6)"><path d="m0 0c-0.251-0.584-1.08-0.095-1.532-0.255-0.124-0.103-0.02-0.26 0-0.256 0.111-0.136 0.348-0.108 0.255-0.255-0.3-0.247-0.877 0.041-1.022-0.382l0.256-0.129c-0.033-0.156-0.216-0.181-0.383-0.255-0.121 0.021-0.154 0.16-0.256 0.255-0.026 0.246 0.109 0.447 0.256 0.638 0.665 0.176-0.046 1.232 0.894 1.279 0.557 0.051 1.151-0.201 1.532-0.64z" fill="none" stroke="#37ab49" stroke-miterlimit="3.864" stroke-width=".087"/></g><g transform="translate(79.74 793)"><path d="m0 0c-0.241-0.053-0.566-0.516-0.639 0-0.066 0.063-0.113 0.25 0 0.256 0.328 0.133 0.49-0.146 0.639-0.256" fill="#37ab49"/></g><g transform="translate(79.74 793)"><path d="m0 0c-0.241-0.053-0.566-0.516-0.639 0-0.066 0.063-0.113 0.25 0 0.256 0.328 0.133 0.49-0.146 0.639-0.256z" fill="none" stroke="#37ab49" stroke-miterlimit="3.864" stroke-width=".077"/></g><g transform="translate(77.44 792.2)"><path d="m0 0c0.027-0.274-0.056-0.493-0.128-0.766-0.12-0.139-0.285-0.386-0.512-0.256-0.185 0.529 0.31 0.775 0.64 1.022" fill="#37ab49"/></g><g transform="translate(77.44 792.2)"><path d="m0 0c0.027-0.274-0.056-0.493-0.128-0.766-0.12-0.139-0.285-0.386-0.512-0.256-0.185 0.529 0.31 0.775 0.64 1.022z" fill="none" stroke="#37ab49" stroke-miterlimit="3.864" stroke-width=".091"/></g><g transform="translate(81.65 791.8)"><path d="m0 0c-0.334-0.236-0.577-0.64-0.894-1.021-0.222 3e-3 -0.248 0.3-0.382 0.51 0.026 0.142 0.106 0.346 0.255 0.511 0.232 0.239 0.554 0.249 0.766 0.128 0.137-0.04 0.218-0.121 0.255-0.128" fill="#ffd500"/></g><g transform="translate(81.65 791.8)"><path d="m0 0c-0.334-0.236-0.577-0.64-0.894-1.021-0.222 3e-3 -0.248 0.3-0.382 0.51 0.026 0.142 0.106 0.346 0.255 0.511 0.232 0.239 0.554 0.249 0.766 0.128 0.137-0.04 0.218-0.121 0.255-0.128z" fill="none" stroke="#ffd500" stroke-miterlimit="3.864" stroke-width=".041"/></g><g transform="translate(78.97 792.3)"><path d="m0 0c0.217-0.407 0.757-1.452 0.767-1.916-0.036-0.104-0.25-0.291-0.384-0.256 0.059 0.456-0.686 2.09-0.638 2.044-0.274 0.244 0.175 0.216 0.255 0.128" fill="#ffd500"/></g><g transform="translate(78.97 792.3)"><path d="m0 0c0.217-0.407 0.757-1.452 0.767-1.916-0.036-0.104-0.25-0.291-0.384-0.256 0.059 0.456-0.686 2.09-0.638 2.044-0.274 0.244 0.175 0.216 0.255 0.128z" fill="none" stroke="#ffd500" stroke-miterlimit="3.864" stroke-width=".082"/></g><g transform="translate(76.41 790.7)"><path d="m0 0c-0.131-0.141-0.354-0.314-0.639-0.256-0.11 0.164-0.333 0.238-0.511 0.127-0.291-0.112-0.415-0.532-0.766-0.383-0.292 0.123-0.218 0.445-0.127 0.64 0.033 0.126 0.181 0.076 0.255 0 0.075-0.046 0.051-0.22 0.255-0.257-7e-3 0.161 0.092 0.235 0.256 0.257 0.058-0.096 0.207-0.096 0.255 0 0.15 0.151 0.15 0.372 0.256 0.51 0.165-0.236-0.304-0.556 0.127-0.638 0.261 0.106 0.236 0.427 0.384 0.638l0.255 0.255c0.215-0.17 0.042-0.54 0-0.893" fill="#37ab49"/></g><g transform="translate(76.41 790.7)"><path d="m0 0c-0.131-0.141-0.354-0.314-0.639-0.256-0.11 0.164-0.333 0.238-0.511 0.127-0.291-0.112-0.415-0.532-0.766-0.383-0.292 0.123-0.218 0.445-0.127 0.64 0.033 0.126 0.181 0.076 0.255 0 0.075-0.046 0.051-0.22 0.255-0.257-7e-3 0.161 0.092 0.235 0.256 0.257 0.058-0.096 0.207-0.096 0.255 0 0.15 0.151 0.15 0.372 0.256 0.51 0.165-0.236-0.304-0.556 0.127-0.638 0.261 0.106 0.236 0.427 0.384 0.638l0.255 0.255c0.215-0.17 0.042-0.54 0-0.893z" fill="none" stroke="#37ab49" stroke-miterlimit="3.864" stroke-width=".082"/></g><g transform="translate(82.16 790.7)"><path d="m0 0c0.056-0.23-0.101-0.492-0.383-0.512-0.268 0.071-0.452 0.229-0.638 0.512 0.083 0.242 0.265 0.425 0.51 0.638 0.252-0.187 0.41-0.344 0.511-0.638" fill="#ffd500"/></g><g transform="translate(82.16 790.7)"><path d="m0 0c0.056-0.23-0.101-0.492-0.383-0.512-0.268 0.071-0.452 0.229-0.638 0.512 0.083 0.242 0.265 0.425 0.51 0.638 0.252-0.187 0.41-0.344 0.511-0.638z" fill="none" stroke="#ffd500" stroke-miterlimit="3.864" stroke-width=".041"/></g><g transform="translate(77.82 794)"><path d="m0 0c-0.062 0.258-0.135 0.439-0.128 0.639-7e-3 0.273-0.37 0.437-0.638 0.51 0.2 0.357 0.132 0.63-0.256 0.639 0.048 0.445 3e-3 1.125-0.511 1.149-0.229-0.025-0.303-0.233-0.255-0.382-0.048-0.262 0.02-0.441 0.128-0.639-0.145-0.028-0.813-0.016-0.767-0.128-0.046-0.379 0.137-0.824 0.511-0.894-0.128-0.056-0.134-0.185-0.128-0.255l-0.127-0.383c0.02-0.264 0.087-0.449 0.383-0.512l0.255-0.127c4e-3 -1e-3 0.046 0.294 0.128 0.383 0.158 0.198 0.865 0.423 1.405 0" fill="#37ab49"/></g><g transform="translate(76.8 794.2)"><path d="m0 0c-0.016 0.082-0.093 0.144-0.128 0.255 0.035 0.165 0.241 0.292 0.384 0.384-0.143 0.08-0.26 0.086-0.384 0.127 0.1 0.18 0.04 0.216 0.128 0.511-0.143-0.086-0.214-0.204-0.383-0.255-2e-3 0.266 0.023 0.686 0 0.894-0.142-0.251-0.024-0.79-0.255-0.767-0.112-0.023-0.274 0.073-0.383 0.128 0.133-0.293 0.404-0.447 0.638-0.638-0.099-0.036-0.333-0.092-0.511-0.128 0.46-0.178 0.62-0.087 0.639-0.639 0.11 0.014 0.097 0.014 0.127 0z"/></g><g transform="translate(78.84 794.4)"><path d="m0 0-0.128-0.383h-0.128l-0.255 1.277 0.255 0.128z" fill="#ffd500"/></g><g transform="translate(79.86 792.6)"><path d="m0 0c0.421-0.227 0.403-0.229 0.639-0.383-0.028-0.047-0.076-0.108-0.127-0.128l-0.638 0.385c-0.103 0.038 0.029 0.153 0.126 0.126" fill="#ffd500"/></g><g transform="translate(79.86 792.6)"><path d="m0 0c0.421-0.227 0.403-0.229 0.639-0.383-0.028-0.047-0.076-0.108-0.127-0.128l-0.638 0.385c-0.103 0.038 0.029 0.153 0.126 0.126z" fill="none" stroke="#ffd500" stroke-miterlimit="3.864" stroke-width=".082"/></g><g transform="translate(80.12 794.8)"><path d="m0 0c-0.224-0.066-0.538 0.05-0.894 0.128-0.115-0.112 4e-3 -0.289 0-0.384 0.101-0.148 0.24-0.222 0.384-0.255 0.248-0.027 0.431 0.116 0.51 0.255 0.042 0.107 0.051 0.189 0 0.256" fill="#ffd500"/></g><g transform="translate(80.12 794.8)"><path d="m0 0c-0.224-0.066-0.538 0.05-0.894 0.128-0.115-0.112 4e-3 -0.289 0-0.384 0.101-0.148 0.24-0.222 0.384-0.255 0.248-0.027 0.431 0.116 0.51 0.255 0.042 0.107 0.051 0.189 0 0.256z" fill="none" stroke="#ffd500" stroke-miterlimit="3.864" stroke-width=".03"/></g></g><g transform="matrix(1 0 0 -1 251.1 753.9)"><path fill="currentColor" d="m3.626-4.893q-0.4638 0-0.864 0.1664-0.4001 0.1664-0.7329 0.4993t-0.5028 0.74q-0.17 0.4037-0.17 0.864 0 0.4568 0.17 0.8604 0.17 0.4001 0.5028 0.7329 0.3328 0.3328 0.7329 0.5028 0.4001 0.1664 0.864 0.1664 0.4674 0 0.8675-0.1664 0.4037-0.17 0.7365-0.5028 0.3293-0.3293 0.4922-0.7294 0.1664-0.4001 0.1664-0.864 0-0.4709-0.1664-0.871-0.1664-0.4037-0.4922-0.7329-0.3328-0.3328-0.7365-0.4993-0.4001-0.1664-0.8675-0.1664zm0-0.3647q0.5382 0 1.002 0.1947 0.4674 0.1947 0.8533 0.5807t0.5772 0.8498q0.1912 0.4638 0.1912 1.009 0 0.5382-0.1912 1.002-0.1912 0.4603-0.5772 0.8463-0.3859 0.3859-0.8533 0.5807-0.4638 0.1947-1.002 0.1947t-1.006-0.1947q-0.4638-0.1947-0.8498-0.5807-0.3859-0.3859-0.5772-0.8463-0.1912-0.4638-0.1912-1.002 0-0.5453 0.1912-1.009 0.1912-0.4638 0.5772-0.8498t0.8498-0.5807q0.4674-0.1947 1.006-0.1947zm-0.0956 1.466h-0.4355v0.9773h0.4355q0.3895 0 0.5417-0.1098 0.1558-0.1098 0.1558-0.3753 0-0.2691-0.1558-0.3789-0.1558-0.1133-0.5417-0.1133zm0.02479-0.3647q0.6232 0 0.9312 0.2124 0.3081 0.2089 0.3081 0.6373 0 0.3045-0.1877 0.5028-0.1841 0.1983-0.524 0.2585 0.08498 0.02833 0.2018 0.1664 0.1204 0.1346 0.2833 0.393l0.4851 0.7896h-0.609l-0.4568-0.74q-0.2089-0.3399-0.3399-0.4284-0.1275-0.09206-0.3187-0.09206h-0.2337v1.261h-0.5488v-2.96z"/></g></g></svg>