<svg width="900" height="600" viewBox="0 0 900 600" fill="none" xmlns="http://www.w3.org/2000/svg">
<g clip-path="url(#clip0_339_181)">
<path d="M511.588 258.716C511.051 259.521 510.765 260.467 510.766 261.434C510.768 262.73 511.284 263.972 512.2 264.889C513.117 265.805 514.36 266.319 515.656 266.319C516.623 266.319 517.569 266.032 518.374 265.495C519.178 264.957 519.805 264.193 520.175 263.299C520.544 262.405 520.641 261.422 520.452 260.473C520.263 259.524 519.797 258.653 519.112 257.969C518.428 257.286 517.556 256.82 516.607 256.632C515.658 256.444 514.675 256.542 513.781 256.913C512.888 257.284 512.125 257.911 511.588 258.716Z" fill="currentColor"/>
<path fill-rule="evenodd" clip-rule="evenodd" d="M594.292 359.204V117.8L472.383 100C470.181 103.966 466.959 107.271 463.049 109.572C459.139 111.872 454.685 113.085 450.148 113.083C445.626 113.083 441.186 111.878 437.285 109.592C433.383 107.305 430.162 104.02 427.953 100.074L306 117.879V359.204C306 377.088 313.654 395.639 328.759 414.324C340.561 428.939 356.957 443.728 377.501 458.265C412.255 482.883 450.153 499.748 450.153 499.748C450.153 499.748 488.047 482.883 522.806 458.265C543.365 443.728 559.745 428.939 571.548 414.324C586.638 395.639 594.292 377.088 594.292 359.204ZM550.88 197.281C573.738 257.464 533.491 301.028 516.324 315.54C525.273 320.752 546.46 337.33 554.03 345.226C555.879 347.145 554.509 348.628 553.001 348.133C549.494 347.047 544.652 345.27 538.809 343.127C531.522 340.453 522.677 337.209 512.922 334.017C519.36 338.012 542.841 355.491 552.729 364.045C555.088 366.087 553.164 368.148 551.464 367.57C548.724 366.633 545.23 365.261 541.084 363.634C521.354 355.889 486.871 342.354 448.779 342.354C411.044 342.354 377.765 355.433 357.783 363.287C353.465 364.984 349.768 366.437 346.781 367.461C344.719 368.163 342.88 366.19 345.926 363.506C354.346 356.069 376.507 338.319 383.088 333.973C372.717 337.368 364.037 340.802 357.062 343.56C352.224 345.474 348.207 347.063 345.016 348.089C343.637 348.534 341.857 347.13 344.101 345.043C344.422 344.745 344.768 344.424 345.135 344.082C352.9 336.856 370.642 320.347 380.225 314.091C376.078 310.565 372.213 306.72 368.665 302.591C338.494 267.753 341.105 225.019 343.513 217.998C343.579 217.799 343.704 217.625 343.871 217.499C344.037 217.373 344.238 217.299 344.447 217.289C344.656 217.279 344.864 217.333 345.042 217.442C345.22 217.552 345.361 217.713 345.446 217.904C345.46 217.937 345.496 218.064 345.557 218.277C346.872 222.889 359.701 267.897 408.304 282.255C446.915 293.666 476.22 277.503 490.213 266.744C490.811 261.375 492.655 250.616 498.386 240.539C498.463 240.393 498.576 240.268 498.714 240.177C498.851 240.086 499.01 240.03 499.175 240.016C499.339 240.001 499.505 240.029 499.657 240.095C499.808 240.162 499.941 240.265 500.042 240.396L504.141 245.834C504.141 245.834 504.443 240.059 506.069 235.525C506.113 235.373 506.196 235.234 506.31 235.122C506.424 235.011 506.564 234.931 506.717 234.889C506.871 234.848 507.033 234.847 507.187 234.887C507.341 234.927 507.482 235.005 507.597 235.115C509.516 237.073 511.274 239.183 512.853 241.424C520.695 228.242 529.96 205.815 525.214 173.557C524.917 171.535 527.211 170.265 528.502 172.074C538.806 186.497 546.04 210.551 542.316 237.79C542.316 237.79 548.606 222.255 548.467 197.923C548.462 196.381 550.386 195.99 550.88 197.281Z" fill="currentColor"/>
</g>
<defs>
<clipPath id="clip0_339_181">
<rect width="288.752" height="400" fill="white" transform="translate(306 100)"/>
</clipPath>
</defs>
</svg>
