<svg width="900" height="600" viewBox="0 0 900 600" fill="none" xmlns="http://www.w3.org/2000/svg">
<style>
.campbells {
  fill: rgb(10, 16, 74);
}

.dark .campbells {
  fill: #FFFFFF;
}
</style>
<g clip-path="url(#clip0_352_409)">
<path d="M348.757 294.025L347.711 291.839C340.62 276.957 336.961 260.672 337.003 244.187C337.003 182.874 386.924 133 448.291 133C509.658 133 559.577 182.874 559.577 244.187C559.577 259.551 556.239 274.548 549.071 291.366L548.119 293.6L543.658 291.7L544.603 289.478C551.511 273.278 554.732 258.878 554.732 244.19C554.732 185.404 507.076 137.748 448.29 137.748C389.504 137.748 341.848 185.404 341.848 244.19C341.811 259.956 345.312 275.529 352.094 289.762L353.135 291.948L348.757 294.025Z" class="campbells"/>
<path d="M553.186 275.957L681.292 276.097C728.397 276.097 765.145 308.12 774.221 351.605C775.907 359.163 776.637 366.904 776.394 374.644C775.394 397.12 767.894 417.156 753.094 434.233C738.994 450.829 719.541 461.981 698.094 465.761C692.257 466.841 682.467 467.3 668.694 467.3L449.741 467.366V447.819L665.758 447.703C689.564 447.703 714.438 438.755 732.889 420.128C744.004 408.907 751.089 395.449 753.136 379.711C755.641 360.503 751.936 340.47 742.226 328.219C716 295.143 685.926 293.758 680.826 293.758L542.552 293.87M354.778 293.87H351.678C311.692 293.875 271.696 293.339 231.724 294.07C204.553 294.57 181.124 304.935 163.063 325.835C154.166 335.914 148.489 348.426 146.763 361.759C144.129 382.224 149.979 400.359 163.246 415.973C177.311 432.526 195.493 442.173 216.737 445.894C223.905 447.123 231.164 447.739 238.437 447.735C297.185 447.878 355.934 447.905 414.683 447.815H418.145C418.196 446.743 418.276 445.855 418.276 444.968L418.344 375.531C418.548 373.115 417.292 370.811 415.151 369.673C413.872 368.928 412.828 368.025 413.23 366.398C413.39 365.748 413.86 364.834 414.387 364.666C420.421 362.749 426.334 360.313 432.794 360.091C435.054 360.013 437.079 360.091 437.82 362.891C438.227 364.43 439.383 363.806 440.44 363.397C444.561 361.797 448.594 359.706 452.871 358.837C465.549 356.258 476.655 362.616 480.387 374.97C484.499 388.583 482.514 401.328 472.187 411.815C466.187 417.904 458.521 420.715 450.042 421.188C446.824 421.368 443.586 421.208 440.357 421.177C438.786 421.162 437.825 421.838 437.822 423.461L437.85 446.988V467.235C437.25 467.268 436.439 467.352 435.627 467.352C362.272 467.352 288.916 467.531 215.562 467.208C197.227 467.127 180.355 460.985 165.299 450.42C144.399 435.757 131.108 415.877 126.015 390.863C115.931 342.549 144.384 294.525 191.604 280.163C200.714 277.327 210.184 275.812 219.724 275.663L344.203 275.906M437.803 389.481V404.242C437.831 412.348 446.811 417.686 453.703 413.48C455.853 412.145 457.603 410.255 458.77 408.01C461.029 403.56 462.333 398.687 462.599 393.703C462.865 388.719 462.086 383.735 460.313 379.07C457.613 371.57 452.184 367.995 444.32 368.135C440.045 368.211 437.82 370.435 437.803 374.72L437.816 389.496L437.803 389.481ZM415.652 418.261L415.552 417.755L415.798 419.133C415.785 418.512 415.598 417.907 415.258 417.387C414.83 416.927 414.247 416.642 413.622 416.587C412.813 416.528 412.008 416.425 411.21 416.277C410.348 416.115 409.55 415.71 408.912 415.108C408.274 414.506 407.822 413.734 407.61 412.883C407.358 411.544 407.23 410.184 407.229 408.821L407.029 404.071L406.965 394.148L406.974 384.402L406.788 374.777C406.561 372.293 405.749 369.897 404.421 367.785C403.092 365.673 401.283 363.905 399.142 362.625C394.312 359.631 388.629 359.373 383.272 360.975C380.37 361.904 377.579 363.149 374.948 364.686L370.907 367.019C369.865 367.625 368.719 368.492 367.443 368.195C366.167 367.898 365.243 366.608 364.412 365.703C363.524 364.71 362.531 363.817 361.45 363.038C359.406 361.636 357.068 360.72 354.615 360.362C348.868 359.473 343.333 361.218 338.279 363.852C336.961 364.538 335.689 365.31 334.37 365.994C333.358 366.52 332.331 367.194 331.247 366.457C330.547 365.984 330.447 364.817 330.078 364.081C329.806 363.433 329.298 362.912 328.656 362.624C327.782 362.384 326.861 362.368 325.979 362.578C324.362 362.818 322.753 363.119 321.15 363.432C317.998 364.046 314.866 364.758 311.739 365.486C309.849 365.925 305.706 366.156 306.494 369.105C306.854 370.449 307.654 370.845 308.704 371.586C309.523 372.341 310.276 373.164 310.955 374.046C313.299 376.39 311.555 408.81 311.555 410.68C311.555 412.55 308.729 412.549 306.273 412.249C304.344 412.014 302.833 410.313 302.049 408.488C300.964 405.965 301.16 402.906 301.159 400.219C301.159 397 301.311 393.783 301.373 390.565C301.49 384.545 302.573 378.153 301.08 372.231C300.655 370.357 299.836 368.595 298.677 367.062C297.518 365.529 296.047 364.26 294.36 363.34C290.73 361.414 286.429 361.013 282.386 361.112C276.971 361.264 271.647 362.55 266.76 364.887C262.138 367.079 257.046 370.101 254.109 374.408C252.883 376.208 251.427 378.902 251.839 381.158C252.272 383.528 254.459 383.834 256.465 383.543C260.121 383.011 264.765 381.977 266.932 378.668C268.215 376.71 267.998 374.396 268.944 372.332C269.753 370.367 271.363 368.842 273.369 368.14C275.517 367.456 277.856 367.749 279.769 368.94C281.767 370.426 283.185 372.563 283.778 374.981C284.539 377.859 284.734 380.858 284.353 383.81C284.38 384.953 283.957 386.06 283.176 386.894C282.259 387.581 281.191 388.038 280.061 388.227C273.93 389.847 267.889 391.787 261.961 394.039C257.461 395.778 253.22 397.999 251.961 403.039C251.671 404.198 251.817 405.507 251.409 406.615C250.803 407.834 249.93 408.902 248.857 409.74C247.013 411.503 244.965 413.04 242.757 414.317C234.063 419.291 223.157 418.966 214.178 414.868C205.69 410.995 199.858 403.512 196.255 395.087C191.544 384.071 190.628 371.653 192.455 359.88C194.104 349.231 198.825 338.632 207.455 331.844C215.318 325.721 225.551 323.533 235.23 325.905C239.784 326.924 243.986 329.133 247.409 332.305C250.611 335.476 253.068 339.32 254.601 343.557C255.271 345.309 255.658 348.09 258.111 347.826C259.076 347.774 259.985 347.355 260.651 346.654C261.328 345.77 261.003 344.667 260.791 343.681C260.294 340.645 260.01 337.578 259.943 334.502L259.287 324.791C259.258 324.358 259.404 322.806 259.133 322.501C259 322.351 258.269 322.321 258.062 322.278L256.862 322.03L252.331 321.042C249.211 320.379 246.07 319.808 242.911 319.363C236.571 318.409 230.148 318.127 223.749 318.52C212.749 319.302 201.466 321.844 191.997 327.694C182.946 333.305 175.855 341.583 171.701 351.389C167.533 361.349 166.77 372.749 168.677 383.321C170.593 393.833 175.989 403.395 183.996 410.47C191.712 417.324 201.379 421.226 211.441 423.086C216.939 424.138 222.527 424.645 228.124 424.599C234.382 424.447 240.606 423.637 246.694 422.183C249.731 421.483 252.74 420.672 255.726 419.783C257.046 419.232 258.522 419.181 259.877 419.639C261.346 420.237 262.865 420.706 264.416 421.039C267.44 421.599 270.562 421.215 273.36 419.939C276.217 418.747 278.831 417.092 281.637 415.806C282.173 415.5 282.779 415.339 283.396 415.339C284.014 415.339 284.62 415.5 285.156 415.806C286.337 416.512 287.423 417.348 288.638 418.006C291.051 419.359 293.659 420.33 296.369 420.886C298.855 421.361 308.439 421.397 317.576 421.401C327.658 421.401 336.622 421.81 337.354 421.077C338.161 420.158 338.299 418.83 337.698 417.765C336.823 416.505 335.198 416.612 333.875 416.183C333.153 416.009 332.496 415.633 331.98 415.099C331.465 414.564 331.112 413.894 330.965 413.166C330.413 410.588 330.753 407.715 330.751 405.097C330.751 398.449 330.749 391.802 330.746 385.155C330.746 383.477 330.743 381.799 330.736 380.121C330.626 378.726 330.711 377.322 330.99 375.95C331.677 373.538 333.854 371.955 336.104 371.087C340.146 369.529 345.616 370.497 348.279 374.117C349.421 375.789 350.099 377.735 350.241 379.755C350.436 382.843 350.464 385.938 350.326 389.029C350.286 395.601 350.179 402.172 350.006 408.742C349.962 410.481 350.176 412.595 349.537 414.257C348.637 416.605 344.655 415.839 343.302 417.58C342.99 417.98 343.057 418.247 343.057 419.864C343.057 421.846 351.996 421.28 351.996 421.28L373.51 421.08C374.944 420.98 376.068 420.88 376.061 419.192C376.078 418.593 375.885 418.008 375.516 417.536C374.625 416.483 373.011 416.636 371.816 416.181C371.237 415.999 370.709 415.682 370.277 415.256C369.845 414.83 369.521 414.307 369.331 413.731C369.105 412.76 369.015 411.763 369.064 410.767C369.059 409.1 369.053 407.43 369.048 405.757V385.912C369.057 384.242 369.07 382.572 369.085 380.902C368.979 379.37 369.043 377.83 369.276 376.312C369.843 374.062 371.442 372.213 373.588 371.329C377.667 369.565 383.104 370.221 386.117 373.673C387.478 375.333 388.239 377.403 388.277 379.549C388.436 382.769 388.3 386.03 388.301 389.254C388.301 395.837 388.301 402.421 388.301 409.004C388.301 410.659 388.533 412.704 387.818 414.261C386.299 417.561 380.888 415.036 380.961 419.743C380.933 420.046 381.006 420.35 381.168 420.607C381.409 420.84 381.727 420.975 382.061 420.988C386.322 421.64 390.648 421.446 394.941 421.446L407.565 421.273L413.965 421.087C415.73 420.985 415.889 419.668 415.652 418.261ZM283.069 408.008C283.557 403.775 282.696 411.241 283.069 408.008C283.039 408.692 282.869 409.362 282.569 409.977C282.27 410.592 281.847 411.138 281.327 411.583C280.123 412.35 278.693 412.682 277.274 412.525C273.793 412.297 271.032 409.398 270.187 406.147C269.354 402.947 270.019 399.305 272.73 397.184C275.302 395.301 278.332 394.139 281.504 393.821C285.033 393.501 283.73 398.079 283.646 400.121C283.537 402.758 283.371 405.39 283.069 408.008Z" class="campbells"/>
<path d="M484.951 342.511C484.951 342.511 486.494 345.011 494.69 345.011C502.886 345.011 503.877 342.962 503.877 342.962L504 357.762C504 360.662 503.984 363.226 507.561 362.076C511.823 360.705 516.171 358.908 520.545 358.717C530.071 358.3 538.117 361.928 543.567 370.097C552.488 383.47 550.04 405.557 535.857 415.297C530.814 418.671 525.033 420.782 519.002 421.453C510.85 422.59 502.542 421.52 494.945 418.353C492.445 417.314 490.345 418.176 488.233 419.4C486.045 420.667 484.933 420.034 484.951 417.549V342.511ZM504.013 401.038C503.982 404.983 505.379 408.807 507.946 411.803C509.997 414.236 513.052 415.592 516.232 415.483C519.412 415.374 522.366 413.811 524.246 411.244C525.607 409.305 526.648 407.16 527.329 404.891C529.426 397.806 529.564 390.285 527.729 383.128C525.749 375.385 521.783 368.99 513.052 367.669C508.179 366.932 503.933 369.548 503.933 374.79L504.013 401.038ZM667.848 410.185C667.948 412.649 667.758 414.561 670.233 415.612C672.451 416.554 676.617 415.648 676.573 419.096C676.55 420.868 673.887 421.273 673.887 421.273L643.218 421.179C643.218 421.179 639.86 421.691 639.733 418.979C639.554 415.191 644.147 416.625 646.491 415.216C648.802 413.828 648.757 410.85 648.882 408.45C649.535 395.944 649.991 345.736 649.282 333.297C649.082 329.741 645.316 329.361 643.246 327.221C642.059 325.994 642.327 323.821 643.784 323.321L664.631 316.315C667.859 315.291 668.056 316.738 668.045 319.456L667.848 410.185ZM629.734 410.185C629.834 412.649 629.644 414.561 632.119 415.612C634.337 416.554 638.503 415.648 638.458 419.096C638.436 420.868 635.773 421.273 635.773 421.273L605.104 421.179C605.104 421.179 601.746 421.691 601.618 418.979C601.44 415.191 606.032 416.625 608.377 415.216C610.688 413.828 610.642 410.85 610.767 408.45C611.42 395.944 611.876 345.736 611.167 333.297C610.967 329.741 607.201 329.361 605.13 327.221C603.944 325.994 604.212 323.821 605.668 323.321L626.515 316.315C629.743 315.291 629.941 316.738 629.93 319.456L629.734 410.185ZM602.745 402.029C605.821 403.086 606.305 404.269 604.762 407.089C598.701 418.169 587.243 423.441 574.754 421.603C563.272 419.913 552.614 412.238 550.33 397.411C547.63 379.865 557.089 363.687 573.697 359.787C581.692 357.909 589.628 358.247 596.582 363.335C602.482 367.653 604.923 373.759 604.67 380.971C604.585 383.391 603.108 384.525 600.253 384.53C590.229 384.55 580.048 384.009 570.041 384.603C569.672 384.577 569.301 384.633 568.957 384.769C568.613 384.904 568.303 385.115 568.051 385.386C567.798 385.657 567.61 385.981 567.499 386.334C567.388 386.687 567.358 387.06 567.41 387.427C567.701 395.253 570.21 402.019 576.967 406.584C583.339 410.884 592.749 411.017 598.172 406.822C599.815 405.342 601.344 403.74 602.745 402.029C605.821 403.086 601.131 403.749 602.745 402.029ZM578.427 378.815C580.376 378.803 582.321 378.614 584.236 378.251C585.636 377.88 587.414 376.985 588.005 375.812C590.714 370.437 585.069 364.79 579.799 365.212C574.667 365.624 569.156 369.886 568.709 375.257C568.552 377.148 569.329 378.21 571.214 378.357C573.501 378.537 575.793 378.649 578.427 378.811C580.147 378.675 575.793 378.649 578.427 378.815ZM684.246 420.949C680.599 420.149 677.43 418.363 676.264 414.404C675.972 413.377 675.8 412.319 675.75 411.253L675.264 402.77C675.071 399.794 679.075 399.445 680.206 401.883C681.476 404.661 682.961 407.336 684.647 409.883C686.119 412.418 688.475 414.32 691.262 415.227C695.019 416.474 699.513 415.732 701.557 412.919C703.694 409.859 703.552 405.754 701.207 402.85C696.642 397.793 690.098 395.341 684.784 391.276C673.867 382.925 676.631 366.106 689.738 361.215C698.274 358.03 706.877 358.654 715.368 361.554C715.813 361.726 716.214 361.994 716.543 362.34C716.872 362.686 717.119 363.101 717.268 363.554C717.927 367.691 718.409 371.862 718.762 376.037C718.808 376.591 717.854 377.62 717.22 377.756C713.22 378.615 712.161 372.236 710.35 369.616C709.284 367.954 707.704 366.688 705.85 366.01C703.996 365.332 701.971 365.281 700.085 365.863C695.051 367.181 693.157 373.006 696.885 376.653C701.729 381.388 708.524 383.785 713.735 388.08C719.692 392.991 722.299 401.626 719.496 408.906C718.562 411.335 717.147 413.551 715.335 415.419C712.116 418.636 707.91 420.679 703.392 421.219C700.202 421.568 696.992 421.696 693.785 421.6C690.591 421.718 687.394 421.5 684.246 420.949ZM369.004 272.571C367.148 271.718 366.15 270.786 366.996 268.442C367.384 267.368 366.245 265.742 365.737 264.177L367.252 262.997C365.016 260.539 364.97 260.297 365.866 255.687C362.922 254.487 362.44 253.243 363.995 250.432C365.148 248.346 366.117 246.432 365.733 243.767C365.492 242.095 366.864 240.19 367.633 238.062C365.842 236.044 362.842 235.995 360.127 235.968C354.875 235.914 351.775 232.913 349.335 228.894C348.734 227.752 348.496 226.454 348.653 225.173C348.905 222.832 349.567 220.538 349.984 218.21C350.414 215.81 356.984 205.188 359.315 202.782C368.115 193.717 378.86 187.545 390.275 182.419C392.934 181.226 395.637 180.109 398.2 178.733C399.088 178.2 400.09 177.886 401.124 177.817C402.157 177.747 403.192 177.924 404.144 178.333C405.321 178.827 406.121 178.783 406.831 177.578C407.2 177.017 407.771 176.618 408.425 176.466L426.289 173.391C431.956 172.576 437.744 170.706 443.371 172.391C448.348 173.884 451.851 172.191 455.516 169.367C457.246 168.034 459.459 167.345 461.374 166.229C462.55 165.527 463.647 164.698 464.643 163.758C466.2 162.314 467.783 161.43 470.008 162.229C471.084 162.472 472.183 162.591 473.286 162.584C475.646 166.889 479.817 168.402 484.675 168.628C489.233 168.841 493.8 168.564 498.247 170.258C500.107 170.967 502.389 170.529 504.465 170.747C504.914 170.794 505.302 171.419 505.838 171.2C507.153 171.282 508.454 171.515 509.716 171.895C514.229 173.816 518.816 175.638 523.109 177.986C532.432 183.086 537.088 191.707 539.709 201.56C540.089 203.025 540.122 204.558 539.804 206.037C539.486 207.517 538.826 208.901 537.877 210.08C537.203 210.946 535.812 211.98 534.944 211.832C532.444 211.39 529.792 211.193 527.877 208.871C526.614 207.221 524.926 205.946 522.994 205.181C521.236 204.8 519.399 205.108 517.861 206.042C512.168 209.506 506.836 213.587 500.404 215.717C499.895 215.885 499.404 216.103 498.893 216.265C493.672 217.931 491.893 222.819 495.039 227.352C495.852 228.522 497.325 229.235 498.682 230.306C498.661 230.37 498.293 230.928 498.436 231.137C500.073 233.526 497.97 234.826 496.952 236.42C495.465 238.761 494.871 241.56 495.28 244.303C495.718 248.263 495.911 252.193 497.328 256.011C497.872 257.476 497.417 259.311 497.417 261.19C498.957 261.324 499.129 262.531 499.331 264.258C500.188 271.552 501.324 278.814 502.423 286.077C502.504 286.609 503.085 287.467 503.475 287.491C508.967 287.821 511.368 291.631 512.715 296.122C513.758 299.597 514.015 303.308 514.659 307.148L511.953 306.941C515.329 312.904 516.325 318.951 514.328 325.276C513.079 329.189 510.591 332.589 507.239 334.963C500.612 339.824 490.881 339.944 484.362 335.295C482.154 333.812 480.275 331.889 478.844 329.647C477.413 327.405 476.46 324.891 476.045 322.264C475.221 317.026 476.474 311.673 479.539 307.346C477.782 306.256 476.529 304.395 474.397 306.295C473.849 306.581 473.214 306.651 472.617 306.49C472.19 306.419 471.825 305.974 471.433 305.696C471.684 305.275 471.978 304.882 472.312 304.523C473.239 303.707 474.212 302.935 475.191 302.185C475.56 301.825 476.02 301.572 476.522 301.453C479.978 301.281 483.007 301.703 485.579 304.737C487.668 306.953 489.342 309.528 490.519 312.337C490.632 312.874 490.668 313.425 490.627 313.972C490.067 313.981 489.51 313.898 488.977 313.727C483.722 310.963 482.428 311.657 481.686 317.71C480.793 324.995 486.031 331.51 493.805 332.782C500.236 333.835 507.227 328.746 508.699 322.098C509.623 317.93 508.353 314.384 506.054 311.049C503.954 308.004 504.264 306.381 507.343 304.258C508.261 303.624 509.096 302.869 509.582 302.479C509.158 300.988 508.616 299.533 507.961 298.128C506.455 295.528 504.829 292.865 502.098 291.428C497.224 288.862 495.838 284.528 495.233 279.528C494.848 276.345 493.887 273.237 493.344 270.067C492.651 266.026 492.098 261.96 491.528 257.899L490.56 250.191C490.534 249.887 490.431 249.595 490.26 249.343C486.244 244.268 488.468 239.667 491.509 235.296C492.063 234.612 492.369 233.76 492.377 232.88C492.384 232 492.093 231.143 491.551 230.45C490.617 228.962 489.262 228.901 488.638 230.521C487.309 233.817 485.003 236.628 482.031 238.576C481.855 238.7 481.706 238.859 481.594 239.044C481.482 239.228 481.41 239.434 481.382 239.648C481.461 242.524 481.721 245.398 481.715 248.273C481.715 249.773 481.206 251.273 481.072 252.781C480.909 253.98 480.93 255.196 481.136 256.388C481.811 259.372 480.181 261.418 478.485 264.223C477.852 262.816 477.418 261.985 477.098 261.112C476.137 258.488 475.398 255.767 474.246 253.231C472.621 249.645 470.91 246.194 467.017 244.169C465.248 243.249 464.135 240.942 462.911 239.138C461.778 237.47 460.901 235.861 458.428 235.769C457.047 235.632 455.782 234.935 454.928 233.84C452.867 230.833 450.301 231.754 447.485 232.015C445.836 232.167 443.946 231.135 442.372 230.261C440.993 229.495 439.987 228.082 438.659 227.191C437.568 226.497 436.369 225.99 435.111 225.691C434.789 225.664 434.466 225.719 434.17 225.85C433.875 225.981 433.617 226.184 433.421 226.441C432.641 228.027 432.093 229.726 431.349 231.662L428.686 230.528C427.852 232.928 424.822 234.463 422.203 234.028C421.112 233.986 420.02 234.083 418.953 234.316L418.814 235.154C419.47 235.84 420.199 236.453 420.987 236.982C423.778 238.58 426.771 239.793 429.887 240.589C433.741 241.47 437.761 240.889 441.908 242.438L437.392 246.688C440.606 248.343 441.905 242.859 444.892 245.51C443.534 247.453 440.25 247.475 439.865 250.552L443.675 249.824L444.006 250.591L441.599 252.797C438.935 255.179 436.409 257.75 433.551 259.871C431.276 261.559 425.536 260.636 423.363 258.684C425.529 256.604 425.589 255.865 423.671 252.843C423.433 253.319 423.237 253.814 423.085 254.324C422.654 256.543 420.917 257.307 419.091 257.97C417.18 258.664 415.224 259.248 413.369 260.07C412.931 260.263 412.645 261.181 412.591 261.792C412.443 263.474 412.511 265.173 412.386 266.858C412.264 268.489 412.677 269.458 413.773 269.146C415.073 270.199 416.231 270.73 416.712 271.624C417.328 272.943 417.57 274.405 417.412 275.852C417.581 276 417.729 276.238 417.921 276.281C421.135 277.013 421.089 276.989 419.861 280.234C419.672 280.734 420.096 282.01 420.33 282.034C422.844 282.296 423.521 283.727 423.25 286.006C423.197 286.449 423.577 286.944 423.86 287.682C424.296 287.13 424.494 286.654 424.842 286.482C425.49 286.063 426.246 285.843 427.018 285.85C427.468 285.944 427.849 286.902 428.05 287.54C428.492 288.78 428.794 290.065 428.95 291.372C429.04 292.394 428.86 293.422 428.428 294.352C426.853 297.461 427.807 298.844 430.968 299.088C433.215 299.261 434.102 301.005 434.58 302.93C435.097 305.013 435.525 305.212 437.18 303.93C439.18 304.911 439.18 304.911 440.2 308.922C440.617 308.216 441.151 307.737 441.123 307.293C440.929 304.21 443.505 303.68 445.416 302.613C445.723 302.508 446.05 302.476 446.371 302.519C446.692 302.561 446.999 302.678 447.268 302.859C447.538 303.059 447.484 304.036 447.261 304.518C446.028 307.181 445.625 309.518 449.037 310.899C449.295 310.999 449.284 311.723 449.437 312.141C450.049 313.805 449.702 315.906 452.28 316.578C453.196 316.817 453.5 318.863 454.439 319.678C455.956 320.987 457.639 322.568 459.479 322.949C464.144 323.837 468.855 324.455 473.591 324.801C475.348 324.957 475.491 326.06 475.813 327.201C476.196 328.573 476.958 330.165 475.213 331.07C474.21 331.614 473.059 331.822 471.929 331.664L439.259 324.327C428.742 321.655 418.315 318.593 407.942 315.396C398.187 312.39 390.376 306.116 382.876 299.469C379.428 296.413 376.105 293.216 372.696 290.115C368.118 285.949 366.616 279.113 369.004 272.571ZM468.658 240.157C469.332 242.741 469.416 242.74 471.365 243.115C473.665 243.557 474.665 241.648 475.965 240.526C478.325 238.498 480.135 235.7 482.718 234.097C484.962 232.704 486.603 231.247 487.279 228.791C488.065 226.086 488.714 223.344 489.224 220.574C489.388 218.783 489.435 216.983 489.365 215.186C489.39 214.452 489.281 213.338 489.689 213.058C491.398 211.882 491.66 210.376 491.42 208.492C491.098 205.967 490.44 203.331 490.865 200.907C491.345 198.172 488.253 196.716 489.165 193.834C489.513 192.734 487.836 190.942 486.986 189.522C486.314 188.401 485.633 187.285 484.943 186.175L481.416 180.408C480.69 179.185 480.2 177.824 479.5 176.584C478.961 175.478 478.264 174.455 477.431 173.55C476.458 172.674 475.778 171.52 475.483 170.245C474.866 168.334 473.523 166.741 471.743 165.811C468.682 164.405 466.765 165.538 464.652 168.654C464.072 169.509 462.888 170.809 462.304 170.654C459.688 169.978 458.062 171.134 456.518 172.916C452.496 177.557 444.799 178.029 440.138 176.234C438.02 175.226 435.564 175.208 433.431 176.185C431.838 176.885 429.453 177.549 428.18 176.85C425.024 175.117 423.165 176.613 421.114 178.475C420.442 179.221 419.539 179.719 418.549 179.89C417.56 180.061 416.542 179.895 415.658 179.418C413.777 178.491 410.39 178.909 409.442 180.418C407.842 182.96 406.634 185.745 405.077 188.786H408.063L406.742 192.468L409.996 191.734L408.786 195.192L411.36 193.961L411.8 194.356L407.559 200.599L408.02 200.98L411.727 199.39L412.149 199.827L408.231 204.827L408.61 205.098L416.692 198.956L417.416 199.53L413.436 205.349L419.654 201.833V203.933L423.854 202.422L417.643 210.509L418.143 211.24C418.939 211.216 419.723 211.036 420.451 210.712C421.418 210 422.026 208.786 423.012 208.118C424.983 206.784 427.112 205.677 429.499 204.284L429.071 206.618L432.125 205.087L432.544 205.302L429.999 209.666L436.008 206.38L436.415 206.737L430.721 213.914L431.021 214.182L441.38 206.62L441.824 206.925C440.898 208.396 439.973 209.867 439.048 211.338L439.201 211.705L442.384 209.92L442.769 210.32C441.212 212.413 439.655 214.506 438.096 216.598L438.553 217.026L445.526 212.392L446.054 212.822L438.701 222.781L439.341 223.381C442.679 219.99 446.017 216.599 449.356 213.207L450.356 214.026L442.106 225.749C442.823 226.583 443.796 226.923 444.899 225.436C445.725 224.224 446.652 223.085 447.671 222.03C449.771 220.03 451.993 218.169 454.166 216.251L454.623 216.595C453.806 218.212 452.989 219.828 452.173 221.445L452.564 221.771L457.87 217.282C457.657 218.163 457.5 219.058 457.401 219.959C457.46 220.43 457.593 220.888 457.794 221.318C458.216 221.164 458.623 220.973 459.011 220.747C459.911 220.118 460.775 219.433 461.653 218.771L462.266 219.183L454.899 230.083L456.899 230.916L465.368 222.016L466.203 222.545L461.836 230.7L462.366 231.119L470.282 223.166L470.816 223.414C470.457 224.572 470.028 225.707 469.533 226.814C468.901 227.913 468.208 228.975 467.458 229.997L468.15 230.55L473.371 225.222L473.824 225.422L472.192 230.643L478.592 225.548L479.03 225.97C476.086 230.053 473.142 234.137 470.199 238.22L470.717 238.65L480.827 228.604C480.456 231.637 479.027 233.504 477.653 235.504C475.452 238.732 473.304 241.698 468.658 240.157ZM422.008 243.757C421.676 242.739 421.248 241.756 420.73 240.819C419.605 239.251 418.36 237.766 417.097 236.306C416.707 235.941 416.247 235.657 415.746 235.472C414.392 237.263 413.175 239.154 412.104 241.127C411.916 241.503 413.066 243.148 413.742 243.248C416.268 243.625 418.854 243.601 422.008 243.757ZM445.87 229.049C448.748 230.003 451.762 229.236 452.892 227.299C450.358 226.941 447.555 225.361 445.87 229.049ZM476.944 249.362C479.76 248.338 480.561 244.489 478.883 241.693L476.683 244.087L479.073 243.787L476.944 249.367V249.362ZM401.653 265.339C401.338 267.091 400.123 268.717 402.945 269.369L403.999 266.193L401.653 265.339ZM416.953 280.579C415.801 280.071 414.605 279.672 413.379 279.385C412.999 279.335 395.459 277.659 395.02 278.059C395.996 278.505 413.992 281.541 415.02 281.781C415.415 281.88 415.995 281.206 416.951 280.584L416.953 280.579ZM368.23 241.409C367.43 243.559 367.774 244.564 369.395 244.638C370.128 244.533 370.837 244.301 371.489 243.951L368.23 241.409ZM406.577 295.627C406.477 296.111 393.21 290.764 393.296 290.801C394.539 291.325 408.827 297.973 410.129 298.325C410.241 298.355 410.572 297.576 410.846 297.096L406.577 295.627ZM385.007 263.503C387.46 264.962 396.325 266.289 396.502 265.143C396.578 264.643 396.036 264.052 395.774 263.503C395.088 264.389 385.777 262.489 385.002 263.503H385.007ZM416.321 298.403C415.998 300.97 417.721 300.775 419.093 301.357L419.668 299.189L416.321 298.403ZM390.758 296.371C390.626 297.171 404.45 302.927 404.428 303.059L408.717 303.564C408.577 302.104 394.56 296.959 390.753 296.37L390.758 296.371ZM395.023 285.318C396.313 287.581 412.101 291.446 413.199 289.951C411.741 289.549 396.797 285.812 395.018 285.317L395.023 285.318ZM483.569 261.539L480.582 267.714L481.855 267.482L483.855 266.996C484.023 267.759 484.078 268.543 484.018 269.322C483.803 270.058 483.405 270.727 482.862 271.268C482.678 271.435 482.462 271.562 482.226 271.641C481.991 271.719 481.741 271.748 481.494 271.724C481.249 271.69 480.884 270.994 480.928 270.64C481.155 268.834 480.277 268.508 478.787 269.021C478.551 265.136 480.813 261.207 483.569 261.539Z" class="campbells"/>
<path d="M511.955 306.941C515.331 312.904 516.327 318.951 514.33 325.276C513.081 329.189 510.593 332.589 507.241 334.963C500.614 339.824 490.883 339.944 484.364 335.295C479.9 332.297 476.886 327.575 476.047 322.264C475.223 317.026 476.476 311.673 479.541 307.346C477.784 306.256 485.081 311.946 484.011 312.256C482.68 312.642 482.099 314.356 481.688 317.705C480.795 324.99 486.033 331.505 493.807 332.777C500.238 333.83 507.229 328.741 508.701 322.093C509.625 317.925 508.355 314.379 506.056 311.044" class="campbells"/>
<path d="M495.477 339.758C485.337 339.765 476.683 332.43 475.028 322.426C474.193 317.21 475.338 311.871 478.237 307.455C478.19 307.306 478.184 307.148 478.219 306.996C478.254 306.844 478.329 306.705 478.437 306.592C478.657 306.292 479.16 305.892 480.088 306.465L481.002 307.033L480.834 307.281L481.174 307.581C484.666 310.668 485.331 311.481 485.126 312.381C485.08 312.587 484.979 312.776 484.834 312.929C484.689 313.082 484.504 313.192 484.301 313.248C483.568 313.461 483.08 314.874 482.717 317.829C481.889 324.581 486.729 330.566 493.975 331.753C499.811 332.706 506.334 327.994 507.691 321.867C508.449 318.444 507.659 315.191 505.204 311.629L506.911 310.454C509.711 314.522 510.605 318.291 509.711 322.315C508.104 329.571 500.585 334.937 493.638 333.798C485.272 332.428 479.691 325.455 480.658 317.577C480.997 314.805 481.487 312.8 482.673 311.811C481.924 311.011 480.5 309.752 479.798 309.131L479.691 309.031C477.275 312.929 476.344 317.567 477.069 322.096C477.869 327.13 480.729 331.604 484.963 334.444C491.098 338.82 500.412 338.681 506.626 334.12C509.799 331.875 512.156 328.659 513.34 324.957C515.177 319.139 514.429 313.411 511.052 307.445L512.852 306.424C516.528 312.918 517.333 319.185 515.314 325.581C513.999 329.703 511.379 333.287 507.85 335.791C504.249 338.388 499.917 339.777 495.477 339.758ZM536.034 206.229C538.701 204.198 534.934 186.683 516.873 177.901C500.873 170.121 479.088 169.232 481.419 175.114C481.959 176.476 484.069 178.036 487.513 183.292C491.164 188.864 490.147 193.569 493.528 197.524C496.909 201.479 500.392 197.868 513.393 198.188C531.102 198.624 533.367 208.26 536.034 206.229ZM355.816 231.782C349.858 231.782 349.17 216.52 367.729 199.782C380.941 187.865 388.645 184.9 397.777 184.849C406.165 184.802 404.901 196.295 401.407 201.733C395.818 210.433 389.639 207.977 378.741 215.074C368.421 221.794 360.177 231.782 355.816 231.782Z" class="campbells"/>
</g>
<defs>
<clipPath id="clip0_352_409">
<rect width="652.466" height="334.41" fill="white" transform="translate(124 133)"/>
</clipPath>
</defs>
</svg>
