<svg width="900" height="600" viewBox="0 0 900 600" fill="none" xmlns="http://www.w3.org/2000/svg">
<g clip-path="url(#clip0_352_405)">
<path d="M663.3 299.6C663.3 413 571 505.3 457.6 505.3C344.2 505.3 251.9 413 251.9 299.6C251.9 186.2 344.2 93.8999 457.6 93.8999C571 93.8999 663.3 186.2 663.3 299.6Z" fill="#FF6600"/>
<path d="M457.6 87C340.4 87 245 182.4 245 299.6C245 416.8 340.4 512.2 457.6 512.2C574.8 512.2 670.2 416.8 670.2 299.6C670.2 182.4 574.8 87 457.6 87ZM457.6 93.9C571 93.9 663.3 186.2 663.3 299.6C663.3 413 571 505.3 457.6 505.3C344.2 505.3 251.9 413 251.9 299.6C251.9 186.2 344.2 93.9 457.6 93.9Z" fill="#111111"/>
<path d="M307.9 299.6C307.9 216.9 374.9 149.9 457.6 149.9C540.3 149.9 607.3 216.9 607.3 299.6C607.3 382.3 540.3 449.3 457.6 449.3C374.9 449.3 307.9 382.3 307.9 299.6Z" fill="white"/>
<path d="M457.6 142.9C371.2 142.9 300.9 213.2 300.9 299.6C300.9 386 371.2 456.3 457.6 456.3C544 456.3 614.3 386 614.3 299.6C614.3 213.2 544 142.9 457.6 142.9ZM457.6 149.9C540.3 149.9 607.3 216.9 607.3 299.6C607.3 382.3 540.3 449.3 457.6 449.3C374.9 449.3 307.9 382.3 307.9 299.6C307.9 216.9 374.9 149.9 457.6 149.9Z" fill="#111111"/>
<path d="M314.2 299.6C314.2 220.4 378.4 156.2 457.6 156.2C536.8 156.2 601 220.4 601 299.6C601 378.8 536.8 443 457.6 443C378.4 443 314.2 378.8 314.2 299.6Z" fill="#111111"/>
<path d="M638.495 271.453L610.352 299.595L638.495 327.738L666.637 299.595L638.495 271.453Z" fill="#111111"/>
<path d="M276.704 271.466L248.561 299.609L276.704 327.751L304.846 299.609L276.704 271.466Z" fill="#111111"/>
<path d="M457.6 146V299.6H304L457.6 146Z" fill="white"/>
<path d="M457.6 453.2V299.6H611.2L457.6 453.2Z" fill="white"/>
<path d="M304 299.6H457.6V453.2L304 299.6Z" fill="#FF6600"/>
<path d="M611.2 299.6H457.6V146L611.2 299.6Z" fill="#FF6600"/>
<path d="M457.6 145.7L303.7 299.6L457.6 453.5L611.5 299.6L457.6 145.7ZM457.6 155.5L601.7 299.6L457.6 443.7L313.5 299.6L457.6 155.5Z" fill="#111111"/>
<path d="M313.3 190.7C309.7 188.1 306.6 188.6 304.6 191.4L303.1 193.4L313.8 201.2L315.3 199.2C317.4 196.4 317 193.3 313.3 190.7ZM317.3 185.3C323.4 189.8 325 196.2 320.3 202.7L314.5 210.7C313.6 209.3 311.6 207.6 308.5 205.3L301 199.9C297.9 197.6 295.7 196.2 294.1 195.8L299.9 187.8C304.5 181.3 310.3 180.2 317.3 185.3Z" fill="#111111"/>
<path d="M335.6 160.3L341.5 166.5C345.4 170.5 345.1 175.9 340.4 180.4C335.8 184.9 330.4 185 326.5 180.9L320.6 174.7C318 172 316.1 170.1 314.5 169.4L320.4 163.7C320.7 164.9 321.6 166 323.5 168L330.4 175.1C332.4 177.1 334.2 177.4 336 175.7C337.8 173.9 337.6 172.1 335.7 170.1L328.8 163C326.9 161 325.8 160.1 324.6 159.7L330.5 154C331.2 155.6 332.9 157.5 335.6 160.3Z" fill="#111111"/>
<path d="M350.4 160.1L345.3 152.4C343.2 149.2 341.6 147.1 340.2 146.1L345.9 142.4L359.9 148.6L361.7 149.4L361.9 149.3L360.9 147.9L356.8 141.6C355.3 139.3 354.3 138.2 353.3 137.6L360.2 133.1C360.5 134.8 361.9 137 364 140.2L369.1 147.9C371.2 151.1 372.8 153.2 374.2 154.2L368.6 157.9L354.9 152.4L353.3 151.7L353.1 151.8L354 153.1L357.7 158.7C359.2 161 360.2 162.1 361.2 162.7L354.3 167.2C353.9 165.6 352.5 163.3 350.4 160.1Z" fill="#111111"/>
<path d="M390.7 132.6C388.9 128.5 386 127.4 382.9 128.7L380.6 129.7L385.8 141.9L388.1 140.9C391.2 139.6 392.5 136.7 390.7 132.6ZM396.9 129.9C399.9 136.9 397.9 143.2 390.5 146.4L381.3 150.3C381.3 148.6 380.4 146.1 378.9 142.6L375.3 134.1C373.8 130.6 372.6 128.2 371.4 127L380.5 123.1C387.9 120 393.5 122 396.9 129.9Z" fill="#111111"/>
<path d="M422 117.2C420.8 116.9 419.4 117.1 416.7 117.7L411.6 118.9L412.6 122.9L416.8 121.9C419 121.4 420.6 120.9 421.2 120.4L422.5 126C421.8 125.9 420.2 126.1 417.9 126.7L413.7 127.7L414.7 131.9L419.8 130.7C422.5 130.1 423.9 129.5 424.7 128.7L426.3 135.2L408.9 139.4C409.2 137.7 408.7 135.1 407.8 131.4L405.6 122.4C404.7 118.7 404 116.1 403 114.8L420.4 110.6L422 117.2Z" fill="#111111"/>
<path d="M451 114C449.9 113.5 448.5 113.5 445.7 113.7L440.5 114.1L440.8 118.2L445.1 117.8C447.4 117.6 449 117.4 449.6 117L450.1 122.7C449.4 122.5 447.8 122.5 445.5 122.7L441.2 123.1L441.6 127.4L446.8 127C449.5 126.8 451 126.5 452 125.8L452.5 132.5L434.6 134C435.1 132.4 435 129.7 434.7 125.9L433.9 116.7C433.6 112.9 433.2 110.3 432.5 108.8L450.3 107.3L451 114Z" fill="#111111"/>
<path d="M500 119.9L498.5 128.3C497.5 133.8 493 136.8 486.7 135.7C480.4 134.6 477.1 130.4 478 124.8L479.5 116.4C480.1 112.6 480.5 110 480.1 108.4L488.2 109.8C487.4 110.7 487 112.1 486.6 114.9L484.9 124.7C484.4 127.5 485.3 129.1 487.8 129.6C490.3 130.1 491.7 128.8 492.1 126L493.8 116.2C494.3 113.5 494.4 112 494 110.9L502.1 112.3C501.2 113.6 500.7 116.2 500 119.9Z" fill="#111111"/>
<path d="M509 131.8L512.2 123.1C513.5 119.5 514.3 117 514.3 115.3L520.7 117.7L524 132.7L524.4 134.6L524.6 134.7L525.2 133L527.9 125.9C528.9 123.3 529.2 121.9 529 120.7L536.7 123.6C535.5 124.9 534.5 127.2 533.2 130.8L530 139.5C528.7 143.1 527.9 145.6 527.9 147.3L521.6 145L517.9 130.7L517.5 129L517.3 128.9L516.8 130.4L514.5 136.7C513.5 139.3 513.2 140.7 513.4 141.9L505.7 139C506.6 137.8 507.6 135.4 509 131.8Z" fill="#111111"/>
<path d="M545.7 147.9C543.9 151.2 542.7 153.6 542.5 155.3L535.3 151.4C536.6 150.3 538 148.1 539.8 144.7L544.2 136.6C546 133.2 547.2 130.9 547.4 129.2L554.6 133.1C553.3 134.2 551.9 136.4 550.1 139.8L545.7 147.9Z" fill="#111111"/>
<path d="M579.8 150L575.8 155.5C575.3 154.4 574.2 153.4 572 151.8L571.2 151.2L564.6 160.3C562.4 163.4 560.9 165.6 560.5 167.2L553.8 162.4C555.2 161.5 556.9 159.4 559.1 156.4L565.7 147.3L564.9 146.7C562.7 145.1 561.4 144.4 560.2 144.2L564.2 138.7L579.8 150Z" fill="#111111"/>
<path d="M596.4 174.7C596.1 173.6 595.1 172.4 593.2 170.5L589.5 166.8L586.6 169.8L589.7 172.9C591.3 174.5 592.6 175.6 593.2 175.8L589.2 179.9C588.9 179.2 587.9 178 586.2 176.4L583.1 173.3L580.1 176.4L583.8 180.1C585.8 182 586.9 182.9 588.1 183.3L583.4 188.1L570.7 175.5C572.3 174.8 574.2 173 576.9 170.3L583.4 163.7C586.1 161 587.9 159 588.5 157.5L601.1 170L596.4 174.7Z" fill="#111111"/>
<path d="M608.3 199.5C611.9 196.9 612.4 193.8 610.4 191L608.9 189L598.1 196.8L599.6 198.8C601.5 201.6 604.6 202.1 608.3 199.5ZM612.2 204.9C606 209.3 599.4 208.8 594.7 202.3L588.9 194.2C590.6 193.8 592.8 192.4 595.9 190.1L603.4 184.7C606.5 182.5 608.6 180.8 609.5 179.4L615.3 187.5C619.9 194 619.1 199.9 612.2 204.9Z" fill="#111111"/>
<path d="M319.7 407.4C319.6 406.2 318.9 404.9 317.2 402.7L314.4 398.8L310.6 401.5L312.4 404C313.8 405.9 314.8 407.1 315.4 407.5L310.7 410.8C310.6 410.1 309.7 408.7 308.3 406.8L306.5 404.3L302.9 406.9C300.7 408.5 299.6 409.5 299 410.6L294.2 403.9C295.9 403.5 298.1 402.1 301.2 399.8L308.7 394.4C311.8 392.2 313.9 390.5 314.8 389.1L325 403.4L319.7 407.4Z" fill="#111111"/>
<path d="M333.3 430.4C336.4 427.3 336.3 423.7 333.8 421.3C331.4 418.9 327.8 418.8 324.7 421.9C321.6 425.1 321.7 428.6 324.1 431C326.6 433.5 330.2 433.6 333.3 430.4ZM319.8 417C325.5 411.2 333 411.6 338.3 416.8C343.5 422 344 429.5 338.2 435.3C332.4 441.1 324.9 440.8 319.7 435.5C314.5 430.3 314.1 422.8 319.8 417Z" fill="#111111"/>
<path d="M359.8 450.9C362.3 447.3 361.5 443.8 358.7 441.9C355.9 440 352.4 440.5 349.9 444.1C347.4 447.8 348.1 451.3 351 453.2C353.7 455.1 357.3 454.6 359.8 450.9ZM344.1 440.1C348.7 433.4 356.1 432.4 362.2 436.6C368.3 440.8 370.1 448.1 365.5 454.8C360.9 461.6 353.4 462.6 347.3 458.4C341.2 454.2 339.5 446.9 344.1 440.1Z" fill="#111111"/>
<path d="M396 455.3L393.2 461.5C392.5 460.5 391.2 459.8 388.7 458.6L387.8 458.2L383.2 468.4C381.6 471.9 380.6 474.3 380.6 476L373.1 472.6C374.3 471.5 375.5 469.1 377.1 465.6L381.7 455.4L380.7 455C378.2 453.9 376.8 453.4 375.6 453.5L378.4 447.3L396 455.3Z" fill="#111111"/>
<path d="M412.3 471.2C414.1 471.7 415.2 471 415.5 469.6C415.9 468.2 415 467.2 413.4 466.8L409.2 465.7L408 470.1L412.3 471.2ZM410.6 480.2C412.4 480.7 413.6 480.2 414 478.7C414.4 477.3 413.7 476.2 412.1 475.8L407 474.4L405.8 478.9L410.6 480.2ZM399.9 475L402.3 466.1C403.3 462.4 403.8 459.8 403.6 458.2L415.1 461.3C420.6 462.8 423.1 466.4 422 470.5C421.4 472.7 420.2 474.2 418.5 475C420.2 476.4 420.9 478.6 420.2 481.2C419 485.5 415.2 487.5 409.3 485.9L397.2 482.7C398.1 481.2 398.9 478.7 399.9 475Z" fill="#111111"/>
<path d="M442.4 482.1L440.9 472.7H440.7L437.5 481.6L442.4 482.1ZM443.1 491.3C443.6 490.8 443.6 490.2 443.4 488.7L443.2 487.3L435.9 486.6L435.4 488C435 489.4 434.9 490.1 435.3 490.6L426.8 489.8C427.6 489.5 427.9 488.5 428.7 486.6L437.6 465.4L445.4 466.1L450.3 488.6C450.8 490.7 450.9 491.7 451.6 492.1L443.1 491.3Z" fill="#111111"/>
<path d="M477.4 483.8L477.8 491L461.9 492C462.4 490.4 462.4 487.8 462.2 484L461.6 474.8C461.4 471 461.1 468.4 460.3 466.8L468.5 466.3C468 467.9 468 470.5 468.2 474.3L468.9 485.1L472.1 484.9C475 484.7 476.4 484.4 477.4 483.8Z" fill="#111111"/>
<path d="M503.8 479.1L505.2 486.1L489.6 489.3C489.9 487.7 489.5 485 488.7 481.3L486.8 472.2C486 468.4 485.4 465.9 484.4 464.5L492.4 462.8C492.1 464.4 492.5 467 493.3 470.8L495.5 481.4L498.6 480.8C501.5 480.3 502.9 479.9 503.8 479.1Z" fill="#111111"/>
<path d="M526.9 465.9C523.3 458.4 526.6 451.5 533.8 448C535.8 447.1 537.6 446.5 539.9 446.2L543.1 452.4L542.9 452.5C541.6 452.2 539.6 452.2 537 453.4C532.8 455.4 531.4 459 533.2 462.9C535 466.7 539 467.7 542.9 465.8C545.6 464.5 546.8 463 547.3 461.7L547.5 461.6L550.4 468.1C548.7 469.7 547.1 470.8 545 471.7C538.2 475.1 530.5 473.5 526.9 465.9Z" fill="#111111"/>
<path d="M570.4 447.3L574.5 453.2L561.4 462.2C561.1 460.6 559.7 458.3 557.5 455.1L552.3 447.4C550.1 444.2 548.5 442.1 547.1 441.2L553.9 436.6C554.2 438.2 555.6 440.5 557.8 443.7L563.9 452.7L566.5 450.9C568.8 449.3 569.9 448.4 570.4 447.3Z" fill="#111111"/>
<path d="M586.7 419.5L592.6 425.7C596.4 429.8 596.1 435.2 591.4 439.6C586.7 444 581.3 444 577.5 439.9L571.6 433.7C569 430.9 567.1 429.1 565.6 428.3L571.6 422.7C571.9 423.9 572.8 425 574.7 427L581.5 434.2C583.4 436.3 585.3 436.6 587.1 434.8C588.9 433.1 588.8 431.2 586.8 429.1L580 422C578.1 420 577 419 575.9 418.7L581.9 413.1C582.4 414.7 584.1 416.7 586.7 419.5Z" fill="#111111"/>
<path d="M610.4 408.6C611.5 407.1 611.5 405.8 610.3 404.9C609.1 404 607.9 404.2 606.9 405.6L603.7 409.8L607.4 412.6L610.4 408.6ZM602.7 403.6C603.8 402.1 603.6 400.9 602.4 400C601.3 399.2 600 399.6 599.1 400.9L596.5 404.4L600.1 407.1L602.7 403.6ZM601.6 416.5L594.2 411C591.1 408.7 588.9 407.3 587.3 406.8L594.4 397.3C597.8 392.7 602.1 391.8 605.5 394.3C607.3 395.6 608.3 397.3 608.4 399.3C610.3 398.3 612.6 398.4 614.8 400C618.4 402.7 618.8 407 615.2 411.9L607.7 422C606.7 420.5 604.7 418.8 601.6 416.5Z" fill="#111111"/>
<path d="M502.9 292.8C502.9 290.4 504.6 288.6 502.3 286.3C500.5 284.6 498.9 285.3 498.4 285.8C491.8 292.3 506.3 312.9 506.3 328.2C506.3 333.2 505.7 338.4 503.9 340.2C505.5 341.8 507.7 342.8 507.7 347.5C507.7 350.7 506.2 353.1 504.4 354.8C504.4 354.8 504.9 351.7 502.6 349.5C500 346.9 495.8 355 486.5 355C480.6 355 474.4 349.3 474.4 350.1C474.4 350.4 477.8 356 479.8 356C483.2 356 481.9 362.5 487.7 362.5C492.1 362.5 493.2 358.8 493.2 356.1C495.6 356.1 499.3 362.9 496.3 365.9C497.1 366.7 499 365.5 499 365.5C499 368.6 495.8 375.7 493.1 375.7C491.3 375.7 489.6 374.9 488.2 376.3C487 377.5 488.9 381.7 490.8 383.5C485.9 383.5 480.2 386.2 480.2 389C480.2 389.6 482.9 393.7 482.1 394.4C482.3 395.1 482.4 395.9 482.4 396.2C482.4 396.8 482.3 397.4 482.1 398.1C481.9 399 481.6 400 481.6 401.1C481.6 402.6 481.1 403.7 480.3 404C480.2 404 480 404.1 479.7 404.1C479.3 404.1 478.9 404 478.4 403.5C478.3 403.3 478.2 403.1 477.9 402.3C477.6 401.7 477.3 400.6 476.9 400C476.9 400.1 476.8 400.1 476.8 400.1C475.4 401.4 473.4 402.5 472 402.7C472.2 403.6 472.2 404.5 472.2 405.3C472.2 405.5 472.2 405.7 472.2 405.9C472.2 406.3 472 407.1 471.4 407.3C471.3 407.3 471.1 407.4 470.9 407.4C470.6 407.4 470.1 407.3 469.7 406.8C469.5 406.6 468.9 406.4 468.4 406.2C467 405.6 465.1 404.9 464.2 402.8H464.1C462.9 402.8 460 402 459.2 401.7C459 402.3 458.9 402.8 458.9 403.4C458.9 403.5 458.9 403.8 459 404C459.2 404.9 459.4 405.9 458.9 406.5C458.8 406.6 458.5 406.9 458 406.9C457 406.9 456.1 406.2 454.5 404.6C453 403.2 453.3 400.7 453.5 399.3C453.5 399.1 453.5 398.8 453.5 398.7C453.5 398.6 453.5 398.3 453.6 398.1C453 397.7 451.8 396.3 451.8 395.9V395.8C450.8 396.1 449.8 396.9 449 397.5C448.3 398.1 447.7 398.6 447.2 398.6C447 398.6 446.8 398.5 446.6 398.3C446 397.7 445.2 395 448.3 392C449.4 390.9 450.8 390.5 451.6 390.4C451.9 389.7 452.5 389 453.1 389C456.8 385.4 459.3 385.7 462.3 388.6C462.9 389.2 464.8 387.4 466.5 385.8C467.4 386.7 470.2 385.4 470.2 381.7C471.2 380.8 474.4 377.8 473.4 377.8C470.3 377.8 464.9 376.3 463.2 374.6C459.8 378 454.8 380.5 448.8 374.5C451.5 374.5 455.6 368.8 452.5 365.8C450.7 364 447 364.3 446.3 364.3C443.2 364.3 434.7 366.3 434.7 372.3C434.7 376.5 439.5 380.8 442.3 380.8C436.4 386.6 431.1 383.9 429.6 382.4C429.6 384.5 425.6 386.6 421.6 386.6C420 386.6 418.4 385.9 417.4 384.8C419.6 384.8 422.4 381.5 422.4 377.8C422.4 375.1 419.9 372.6 416.1 372.6H410.5C413.5 369.6 414.1 364.6 409.6 364.6C404.5 369.6 403.5 367.9 402.5 366.8C402.5 366.8 402.5 366.8 402.4 366.7C401.8 367.2 400.7 367.3 399.6 367.5C398.4 367.7 397.1 367.9 396.6 368.5C396.1 369.1 395.6 369.4 395 369.4C394.9 369.4 394.8 369.4 394.6 369.4C394.2 369.3 393.6 368.9 393.4 367.6C393.3 366.4 394.2 364.8 395.1 363.7C395.8 362.8 396.5 362.2 397.3 361.7C396.1 360.7 393 360.1 392.9 356.8C391.5 357 390 357.5 388.8 358C387.7 358.4 386.9 358.7 386.3 358.7C386 358.7 385.7 358.7 385.5 358.5C385.3 358.4 385.1 358 385.1 357.5C385.1 355.1 386.3 354 387 353.4C387.1 353.3 387.2 353.3 387.2 353.2C389.9 350.6 392.9 349.8 395.1 349.9C395.1 349.4 395.3 348.9 395.7 348.6C395.7 348.6 395.8 348.6 395.8 348.5C395.5 348 395 347.5 394.5 347C392.5 345 391.1 344.9 390.6 344.9C390.4 344.9 390 344.9 389.8 344.5C389.7 344.1 389.9 343.8 390.2 343.5C391.6 342.1 392.6 341.7 395.2 341.7C397.3 341.7 399 342.4 400.2 343.3C400.3 343.4 400.4 343.5 400.6 343.6C400.6 343.5 400.6 343.3 400.6 343.2V343C400.6 340.2 399.1 339.2 398.5 338.8C398.3 338.7 397.9 338.4 398.1 338C398.2 337.5 398.7 337.5 399.3 337.6H400.8C404.6 337.6 406.5 339.2 407.5 340.5C407.5 340.5 407.9 340.2 408.1 339.9C413.7 345.4 409.7 345.8 409.7 349.2C409.7 351.1 412 352.7 415 352.7C417.4 355.1 422.7 355.1 425.2 352.6C425.2 349.8 408.5 348.3 419.5 337.4C419.5 345.3 425.7 341.9 429.5 338.1C432.2 335.4 432.9 334.6 436.8 334.6C443.1 334.6 444.5 338.2 449.7 338.2C449.7 333.6 452.6 331.8 451.5 331.8C450.3 331.8 448.3 330.9 444.8 327.5C438.4 321.2 445.4 316 432.6 316C432.6 314.3 436.8 311 436.8 309.6C436.8 307 435.3 306 431.4 306C427 306 424.4 307.7 422.5 309.6C420 307.1 421.9 303.9 416.5 303.9C412.9 303.9 411.3 305.7 407.4 305.7C406.8 306.7 405.9 308 404.6 309.3C404.2 309.6 403.9 310 403.5 310.5C402.4 311.7 402 312.3 401.4 312.3C401.2 312.3 401 312.3 400.9 312.1C399.7 310.9 400.5 306.7 401 305C399.4 306.3 396.2 306.9 394.9 306.3L394.8 306.5C394.5 307.3 393.8 308.7 393.8 310.4C393.8 311.6 393.7 312.3 393.1 312.6C393 312.6 392.9 312.7 392.8 312.7C392.4 312.7 392 312.3 391.7 312.1C390.9 311.3 388.5 308.3 388.5 306.3C388.5 304.9 388.9 303.4 389.6 302.4C388.5 301.1 388.1 298.7 388.1 296.3C387.7 296.2 387.3 296 386.9 295.8C386.3 295.5 385.6 295.2 384.7 295.2C383.5 295.2 381.9 294.5 381.5 293.4C381.3 292.8 381.4 292.2 382 291.6C383.5 290.1 385.5 289.4 388 289.4C388.4 289.4 388.8 289.4 389.2 289.5C389.4 288.8 391.1 288.1 391.8 287.5C391.3 287.1 390.9 286.6 390.5 286.1C390.1 285.6 389.8 285.2 389.3 284.7C389.1 284.5 388.7 284.3 388.5 284.1C388 283.8 387.7 283.5 387.6 283.1C387.6 282.9 387.7 282.6 387.9 282.5C388.6 281.7 389.9 281.4 392.1 281.4C393.8 281.4 395.1 281.6 396.1 282.1C396.5 281.8 396.9 281.4 397.3 281.4C404 281.4 400.1 289.3 407.2 289.3C412 289.3 419.6 288.4 420.2 287.8C420 287.6 419.7 285.6 417.9 283.8C415.5 281.4 409 282.1 407.2 282.1C409.1 280.2 412.1 269.8 412.1 266.4C412.1 263.2 408.4 263.4 409.1 262.7C410.2 261.6 411.2 255.7 411.2 252.9C411.2 250.1 410.9 247.5 410.9 245.7C409.5 245.7 407.5 246.1 406.4 245.4C405.9 245.6 405.2 245.6 404.2 245.6C403.7 245.6 403.1 245.6 402.4 245.6H400.2C399.3 245.6 398.3 245.6 397.7 245C397.4 244.8 397.3 244.4 397.3 244.1C397.3 243.1 399.7 241.1 401.9 239.9C401.4 238.7 401.3 234.4 401.5 233.1C401.3 233.1 401.1 233.1 400.9 233.1C399.9 233.1 399.1 232.9 398.4 232.7C397.7 232.5 397.2 232.4 396.8 232.6C396.5 232.7 396.3 232.7 396.2 232.7C395.8 232.7 395.6 232.5 395.5 232.4C394.9 231.9 395.1 230.9 395.4 230.4C395.8 229.5 396.7 228.2 399.5 227.1C402.1 226 403 225.7 404.5 226.2C405.7 225.1 406.6 224.8 408.5 224.8C410.7 224.8 413.3 224.8 414.7 223.6C414.5 223.2 414.3 222.9 414.1 222.5C413.8 221.7 413.5 220.8 412.3 219.7C411.3 218.7 410.1 218.1 409.2 217.7C408.2 217.2 407.6 216.9 407.6 216.2C407.6 215 409 214.6 414 214.6C417.6 214.6 420.5 219.7 421.3 221.6C421.6 221.4 422.2 221.3 422.7 221.3C423.2 221.3 423.8 221.4 424.1 221.6C424.4 220.7 424.8 219.7 424.8 218.4V218.2C424.8 216.1 424.9 215.1 425.6 214.8C425.7 214.8 426.2 214.6 426.6 215C426.9 215.3 427.3 215.6 427.8 215.8C429 216.5 430.5 217.5 430.5 219.7C430.5 220.2 430.6 220.7 430.7 221.2C430.9 222.2 431.1 223.2 430.6 224.2C430.6 224.3 430.5 224.4 430.5 224.5C430.7 224.7 430.9 224.9 431.3 224.9C431.3 231.8 419 235.4 421.5 237.8C423.9 240.2 427.1 247.2 427.1 258.6V258.8C427.1 259.3 427 259.5 427 259.7C427.6 259 431.4 256.1 448.9 256.1C448.9 252.1 446.9 253.8 444.5 251.4C444.5 248 444 244.9 446.8 244.9H447.1V244.7C447.2 242.7 447.7 242.2 447.8 242C448 241.8 448.1 241.6 448.3 241.4C448.6 241.1 448.9 240.8 449.3 240.8C449.5 240.8 449.8 240.8 450 241.2C450.3 241.6 451 243.8 451.2 244.5C453.5 244.3 455.5 243.6 457.2 242.1C459.1 240.2 455.1 237.6 452.8 237.6C451.1 237.6 448.8 237.7 448 237.4C447.9 241 447.4 241 447 241C446.4 241 445.5 240.2 445.1 239.8C444.4 239 443.7 237.8 443.4 236.5C442.9 236.5 442.4 236.1 442 235.7C442 233.9 435.2 229.3 438.5 226C441.4 223.1 446.9 225.3 449.8 222.5C451 221.3 452.2 220.3 452.2 219.9C452.9 219.2 456.5 219.3 459.3 219.3C461.7 219.3 464.8 216.7 466.5 216.7C472 216.7 472.7 211 475.3 211C476.3 211.9 477.3 215.3 477.3 216.8C477.3 220.9 473.6 218.6 478.8 223.7C481.8 226.7 480.3 230.1 480.3 233.7C481.7 235.1 483.9 244 480.5 247.4C480.5 250 482.1 249.3 482.1 253.1C482.1 258 475.8 268.9 475.8 274.9C475.8 281 470.7 282.9 470.7 288C470.7 292.9 472.3 297.5 471.3 298.5C468.4 301.4 469.1 322.4 472.9 322.4C474.4 323.9 472.4 328.6 472.4 329.3C473.1 330 474.4 330.2 474.8 330.7C476 331.9 476 333.1 477.6 334.7C477.6 342.6 485.6 343.3 488.9 343.3C493 343.3 499.6 337.9 494 332.4C493.3 331.7 494.5 331.1 494.5 330C494.5 324.8 488.3 322.7 486.1 324.9C481.5 329.4 488.3 333.6 491 331C491 333.6 485 335.5 481.2 331.7C475.5 326.1 477.3 320.3 480.8 316.9C484.8 312.9 491 313.7 492.3 315.1C492.3 313.1 481.9 302.1 481.9 284.4C481.9 263.1 488.3 254.3 492.4 250.3C494.9 247.8 498.9 243.2 494 238.3C492.4 236.7 492.4 235.4 492.4 235.1C488.1 235.1 487.3 238.3 489.3 240.3C487.2 240.3 485.5 239.2 485.5 234.9C485.5 230.5 488.5 228.4 492.2 228.4C492.2 227.1 490.8 224.3 490.8 220.8C490.8 216.5 492.6 214.3 497.5 214.3C503.2 214.3 505 221.4 505 226.1C502.8 223.9 498.3 221.7 498.3 227.5C498.3 233 503.9 238.8 503.9 251.3C503.9 261.8 500.2 268.9 500.2 270.9C500.2 272.3 504.8 272.4 504.8 264C506.6 264 511.7 269.6 505.4 275.9C504.3 277 508.3 275.3 508.3 281.4C508.2 287.4 505.4 290.3 502.9 292.8Z" fill="#111111"/>
<path d="M449.9 244.9C449.8 244.9 449.8 244.9 449.6 245C449.3 245 448.9 245.1 448.4 245.1C448.5 243.9 448.7 243.3 448.8 243.2C449 243 449.1 242.8 449.3 242.7C449.4 243.3 449.8 244.4 449.9 244.9Z" fill="white"/>
<path d="M405.5 230.1C405.5 230.3 405.5 231.1 405 231.3C404 231.8 403.1 232 402.3 232.1C400.9 232.3 399.9 232.1 399 231.8C398.5 231.7 398 231.5 397.5 231.5C397.2 231.5 396.9 231.6 396.6 231.7C396.6 231.6 396.6 231.3 396.7 231.1C396.9 230.6 397.7 229.5 400.1 228.5C402.4 227.5 403.1 227.3 404.1 227.6C404.3 227.6 404.4 227.7 404.6 227.8C405.1 228 405.5 229 405.5 230.1Z" fill="white"/>
<path d="M429.7 224C429.6 224.2 429.5 224.3 429.3 224.5C428.6 225.2 427.9 225.4 427 225.1C425.9 224.8 425.1 223.8 425.1 223.6C425.1 223.4 425.3 223 425.4 222.5L425.5 222.2C425.9 221.2 426.3 220 426.3 218.6V218.4C426.3 217.4 426.3 216.8 426.4 216.5C426.7 216.7 427 216.9 427.4 217.1C428.5 217.8 429.5 218.4 429.5 220C429.5 220.6 429.6 221.1 429.7 221.7C429.8 222.6 429.9 223.4 429.7 224Z" fill="white"/>
<path d="M420.5 222.6C420.5 222.9 420 223.5 419.1 223.9C418.7 224.1 417.3 224.5 416.3 223.6C416.3 223.6 416.3 223.6 416.2 223.5C415.9 223.2 415.8 222.9 415.6 222.4C415.3 221.6 414.9 220.5 413.5 219.1C412.4 218 411.1 217.3 410.1 216.9C409.8 216.8 409.5 216.6 409.3 216.5C409.7 216.3 410.9 216.1 414.3 216.1C417.2 216.1 419.8 220.8 420.4 222.3C420.4 222.4 420.5 222.5 420.5 222.6Z" fill="white"/>
<path d="M407.9 242.8C407.9 243.3 407.7 243.4 407.2 243.8C406.9 244 406.7 244.2 406.4 244.5C406.3 244.6 406.1 244.7 405.7 244.7C404.9 244.8 403.7 244.7 402.9 244.7C402.3 244.7 401.7 244.7 401.1 244.7C401 244.7 400.8 244.7 400.6 244.7C400.1 244.7 399.2 244.7 399 244.5C399.2 243.9 401.3 242.2 403 241.3C403.7 240.9 404.3 240.7 404.7 240.7C407.6 240.5 407.9 241.3 407.9 242.8Z" fill="white"/>
<path d="M391.7 292.1C391.7 292.7 391.7 293 391.5 293.4C391.3 293.8 391.1 294.1 390.6 294.6C389.8 295.4 389.2 295.5 388.6 295.3C388.4 295.2 388.1 295.1 387.8 294.9C387.1 294.6 386.2 294.1 385.1 294.1C384.3 294.1 383.2 293.6 383 293.1C383 293 382.9 292.9 383.2 292.7C384.4 291.5 386.2 290.8 388.3 290.8C388.6 290.8 388.9 290.8 389.2 290.9C390.5 291 391.7 291.5 391.7 292.1Z" fill="white"/>
<path d="M394.2 305.6C394.2 305.8 394.1 305.9 394 306L393.9 306.2C393.5 307 392.8 308.6 392.8 310.5C392.8 310.8 392.8 311 392.8 311.2C391.9 310.3 390 307.7 390 306.4C390 305.2 390.3 304.1 390.7 303.3C390.8 303.1 391 302.8 391.2 302.7C391.9 302 392.1 302 392.9 302C393.5 302 393.9 302.2 394.1 302.5C394.7 303.2 394.5 304.7 394.2 305.6Z" fill="white"/>
<path d="M397.3 285.8C396.2 286.8 395.3 287.1 394.2 287.1C393.7 287.1 393.3 287 393 286.7C392.6 286.4 392.3 286 391.9 285.5C391.5 285 391.1 284.5 390.6 284C390.3 283.7 389.9 283.4 389.6 283.2C389.6 283.2 389.6 283.2 389.5 283.2C390.1 282.9 391 282.7 392.4 282.7C393.7 282.7 394.8 282.9 395.6 283.2C396.1 283.4 396.4 283.6 396.7 283.9C397.2 284.5 397.6 285.5 397.3 285.8Z" fill="white"/>
<path d="M407.1 304.1C407.1 304.4 406.9 305 406.3 305.9C405.8 306.6 405.1 307.6 404 308.6C403.6 309 403.2 309.4 402.9 309.8C402.6 310.1 402.2 310.6 401.9 310.9C401.8 310.5 401.7 309.7 401.9 308.2C402.1 306.8 402.4 305.5 402.6 305.2C402.7 305.1 402.7 305.1 402.8 305C404.6 303.5 406.2 303.4 407.1 304.1Z" fill="white"/>
<path d="M468.3 280.7C468.3 281.2 464.5 289.3 461.6 289.3C460.2 289.3 459.3 287 458.6 287.8C456.1 290.2 454.8 298.7 450.5 298.7C448.3 298.7 445.7 295 445.7 295.7C445.7 296.7 445.2 298.5 444.7 298.5C441.1 298.5 436.2 289.2 435.4 288.4C434.7 287.7 434.7 289.5 433.9 289.5C431 289.5 428.4 280.4 429.3 281.3C429.7 282 432.8 287.6 433.6 287.6C434.3 287.6 434.4 283.5 435.4 284.5C436.9 286 441.5 295.5 443.5 295.5C445 295.5 444.2 293 445 293C445.7 293 446.8 294.2 448.3 295.6C449.7 297 451.2 296.2 452.2 295.3C455.2 292.3 456.7 287.3 458.6 285.4C459.7 284.3 460.2 287 462 287C463.7 287.1 468.3 280.1 468.3 280.7Z" fill="white"/>
<path d="M476.7 245.7C476.7 246 476.6 246.4 476.5 246.7C476.3 248.2 473.5 251.1 471.3 253.3C470.2 254.4 469.5 255.4 469 255.9C467.5 257.4 468.3 259 468.3 259.4C468.3 259.9 468.5 260.5 468 260.5C467.3 260.5 467.1 260.9 466.4 260.9C465.2 260.9 464.3 259.6 463.9 259.3C463.6 259.6 462 259.6 461.1 260.4C459.9 261.6 456.6 260 455.4 258.8C454.4 257.8 454 256.8 454.3 256.6C454.5 256.4 454.7 256.4 455 256.8C455.3 257.1 455.8 257.2 456.1 257.2C456.4 257.2 457.2 258.2 457.5 258.5C459.4 260.3 462.6 257.4 462.9 257.4C463.5 257.4 463.5 257.5 464.3 258.2C464.5 258.4 464.7 258.6 464.8 258.8C465.3 259.3 465.5 259.2 465.9 258.9C466.5 258.3 466.3 258.1 466.5 257.4C466.6 256.8 466.8 256 467 255.1C467.4 253.7 469.8 251.7 471.6 249.9C472.5 249 473 248.5 473.5 248.1C474.7 246.9 474.6 246 474.6 244.8C474.6 241.9 472.8 243.8 472.8 239.7C472.8 238.5 472.8 237.9 470.9 236C470.7 235.8 470.4 235.7 470.5 235.6C470.9 235.2 474.3 236.5 474.7 236.9C475.2 237.4 475.1 237.6 475.2 238.7C475.2 239.2 474.9 239.9 474.9 241.1C474.9 242 475.8 242.3 476.1 242.6C477.2 243.3 477 244.2 476.7 245.7Z" fill="white"/>
<path d="M461.6 223.6C461.6 224.5 459.9 226.6 458.2 226.6C456.7 226.6 453 224.1 453 223.8C453 223.7 456.5 222.7 457.2 222.7C457.8 222.7 458.9 222.8 459.7 222.8C460 222.8 461.6 222.8 461.6 223.6Z" fill="white"/>
<path d="M395.8 355.9C395.2 355.8 394.5 355.8 393.9 355.8C393.7 355.8 393.6 355.8 393.4 355.8C391.7 355.9 390 356.5 388.6 357C387.9 357.3 386.9 357.6 386.5 357.6C386.5 355.8 387.4 355 388.1 354.4C388.2 354.3 388.3 354.2 388.4 354.1C390.7 351.8 393.3 351.1 395.1 351.2C396.2 351.2 397.1 351.5 397.5 351.9C398.2 352.6 399.2 354.5 399.2 355.2C399.2 355.5 399.1 355.6 399 355.7C398.5 356.2 397 356 395.8 355.9Z" fill="white"/>
<path d="M395.5 346.3C394 344.8 392.7 344.2 391.8 344C392.6 343.3 393.4 343.1 395.3 343.1C397.2 343.1 398.5 343.7 399.5 344.4C400.8 345.3 401.4 346.4 401.5 346.7C401.5 346.8 401.5 346.8 401.5 346.9C401.5 347.7 401.6 350 400.7 350.9C400.5 351.1 400.3 351.2 399.9 351.2C399 351.2 398.8 350.9 398.1 349.7C397.8 349.2 397.4 348.5 396.8 347.8C396.5 347.3 396 346.8 395.5 346.3Z" fill="white"/>
<path d="M402.3 364C402.4 364.5 402.5 365.3 402 365.9C401.9 366 401.8 366 401.7 366.1C401.2 366.3 400.4 366.5 399.6 366.6C398.1 366.8 396.6 367 395.8 368C395.5 368.4 395.2 368.5 395.1 368.4C395 368.4 394.8 368.1 394.8 367.6C394.7 367.1 395.2 365.9 396.2 364.6C396.9 363.8 397.6 363.1 398.3 362.7C398.7 362.5 399.1 362.3 399.4 362.3C399.8 362.3 400.1 362.2 400.4 362.2C401.9 362.2 402.1 362.7 402.1 363.7C402.3 363.9 402.3 363.9 402.3 364Z" fill="white"/>
<path d="M407.1 342.4C407 343.2 405 345.9 404.3 346.3C403.8 346.1 402 345.2 401.9 343.2C401.9 343.1 401.9 343.1 401.9 343C401.9 340.9 401.2 339.6 400.5 338.8H400.9C404.8 338.8 406.4 340.7 406.9 341.7C407 342.1 407.1 342.4 407.1 342.4Z" fill="white"/>
<path d="M453.8 392.1C454.2 392.5 454.2 392.6 454.2 393.2C454.2 393.4 454.2 393.5 454.2 393.7C454.2 394.4 454.1 394.5 452.8 394.5C452.5 394.5 452.2 394.5 452 394.6C450.7 394.9 449.5 395.9 448.5 396.6C448.2 396.8 447.8 397.1 447.6 397.3C447.4 396.7 447.2 395 449.4 392.9C450.2 392.1 451.1 391.8 451.8 391.7C452.1 391.6 452.4 391.6 452.5 391.6C452.7 391.6 453.4 391.7 453.8 392.1Z" fill="white"/>
<path d="M459.7 398.4C459.7 398.6 459.7 398.8 459.6 398.8C459.2 399.2 458.6 400.1 458.2 401.1C457.9 401.9 457.7 402.7 457.7 403.5C457.7 403.7 457.8 404 457.8 404.3C457.9 404.6 458 405.4 458 405.7C457.4 405.7 456.6 405 455.4 403.8C454.4 402.8 454.6 400.7 454.8 399.5C454.8 399.2 454.9 398.9 454.9 398.7C454.9 398.3 455.4 396.8 456.3 396.8C458.3 396.8 459 397.2 459.2 397.4C459.6 397.9 459.7 398.2 459.7 398.4Z" fill="white"/>
<path d="M471 402.9C471.2 403.7 471.2 404.6 471.2 405.5C471.2 405.7 471.2 405.9 471.2 406.1C471.2 406.2 471.1 406.4 471.1 406.4C471 406.4 470.9 406.3 470.7 406.1C470.3 405.7 469.7 405.5 469 405.2C467.9 404.7 466.5 404.2 465.8 402.9C465.4 402.3 465.2 401.5 465.2 400.4C465.2 400.2 465.2 399.6 466.9 399.6C467.1 399.6 467.3 399.6 467.4 399.6C467.5 399.6 467.6 399.6 467.7 399.6C468.5 399.6 468.9 399.7 470 400.8C470.5 401.5 470.8 402.2 471 402.9Z" fill="white"/>
<path d="M481.4 396.2C481.4 396.6 481.3 397.2 481.1 397.9C480.9 398.8 480.6 399.9 480.6 401.1C480.6 402.2 480.2 402.8 480 402.9C479.8 403 479.6 402.8 479.5 402.7C479.4 402.6 479.3 402.2 479.2 401.9C478.9 401 478.5 399.9 478 399.2C477.9 399.1 477.8 398.9 477.7 398.8C477 398.1 477.5 394.5 477.9 394C478.5 393.4 479 393.3 480.3 393.3C480.8 393.3 481.2 394.5 481.3 395.5C481.4 395.8 481.4 396 481.4 396.2Z" fill="white"/>
<path d="M446.7 236.7C446.7 237.7 446.6 239 446.5 239.7C446.4 239.6 446.2 239.4 445.9 239.2C445.3 238.6 444.7 237.4 444.5 236.2C445.1 236 446.1 236.2 446.7 236.7Z" fill="white"/>
</g>
<defs>
<clipPath id="clip0_352_405">
<rect width="425.2" height="425.2" fill="white" transform="translate(245 87)"/>
</clipPath>
</defs>
</svg>
