<svg width="900" height="600" viewBox="0 0 900 600" fill="none" xmlns="http://www.w3.org/2000/svg">
<g clip-path="url(#clip0_340_201)">
<path d="M742.752 216.913C738.521 216.913 735.448 219.852 735.448 223.872C735.448 227.892 738.521 230.811 742.752 230.811C746.983 230.811 750 227.895 750 223.872C750 219.849 746.96 216.913 742.752 216.913ZM742.752 229.098C739.476 229.098 737.166 226.922 737.166 223.855C737.166 220.787 739.47 218.611 742.752 218.611C746.034 218.611 748.3 220.799 748.3 223.855C748.3 226.91 746.001 229.098 742.752 229.098Z" fill="#FF8200"/>
<path d="M745.259 223.566C745.506 223.215 745.648 222.803 745.67 222.375C745.67 220.942 744.548 219.992 742.907 219.992H740.227V227.702H742.037V224.507H742.478L744.324 227.696H746.385L744.271 224.355C744.669 224.192 745.012 223.918 745.259 223.566ZM743.77 222.658C743.728 222.752 743.667 222.837 743.592 222.908C743.516 222.976 743.427 223.027 743.33 223.057C743.234 223.087 743.132 223.097 743.032 223.086H742.073V221.627H743.032C743.132 221.612 743.234 221.621 743.33 221.654C743.428 221.686 743.518 221.74 743.592 221.812C743.672 221.878 743.734 221.964 743.77 222.062C743.811 222.156 743.829 222.258 743.824 222.36C743.828 222.462 743.81 222.563 743.77 222.658Z" fill="#FF8200"/>
<path d="M735.769 217.25H653.52L597.731 266.121V217.25H538.839V278.702C530.079 239.196 497.528 217.256 448.017 217.256H355.032V263.516C338.461 229.721 300.703 212 256.807 212C192.678 212 150 248.481 150 302.605C150 350.765 188.86 388.663 255.616 388.663C256.436 388.663 257.245 388.657 258.043 388.645C258.594 388.645 259.136 388.645 259.678 388.615C281.195 388.213 298.88 384.536 312.93 378.884C335.263 368.92 349.589 351.488 355.032 327.267V383.428H447.296C498.46 383.428 530.225 362.825 538.839 324.501V383.428H597.731V327.875L614.177 314.772L663.055 383.437H735.048L658.287 279.238L735.769 217.25ZM449.881 243.014L451.894 242.001L453.722 241.251H456.066L457.09 241.623L457.468 242.141L458.412 242.299L459.306 242.781L459.487 243.532L459.311 244.312L457.745 245.503L457.316 246.218L456.676 246.962L456.337 247.26L455.741 248.04L454.083 249.118L453.106 249.198L451.915 249.047L451.176 248.499L450.756 247.448L450.494 246.956L449.434 246.218L449.172 245.735V245.199L448.928 244.604L448.836 243.812L449.881 243.014ZM428.485 243.014L430.492 242.001L432.327 241.251H434.676L435.695 241.623L436.073 242.141L437.02 242.299L437.895 242.781L438.08 243.532L437.901 244.312L436.329 245.503L435.909 246.218L435.269 246.962L434.92 247.26L434.325 248.034L432.675 249.121L431.699 249.222L430.507 249.07L429.775 248.523L429.361 247.471L429.09 246.98L428.03 246.242L427.762 245.753V245.223L427.518 244.628L427.425 243.836L428.485 243.014ZM209.13 300.696C209.13 274.233 222.476 256.586 256.331 256.586C280.171 256.586 292.094 264.695 299.72 281.147L355.032 264.055V288.3H258.716V327.398H295.191C293.759 335.501 286.853 344.074 259.91 344.074C226.294 344.086 209.13 328.592 209.13 300.696ZM467.432 282.3L457.01 283.52L456.322 286.263C449.741 288.02 445.712 287.055 438.675 287.532L438.777 289.116C446.546 289.062 461.566 289.02 466.693 285.897C466.991 289.08 466.315 294.235 464.133 296.203C463.168 297.075 461.578 297.477 459.791 297.722C458.004 297.966 456.015 298.037 454.258 298.246L446.516 299.648C446.62 299.684 450.283 299.63 444.566 301.268C442.931 301.739 441.82 301.825 440.295 302.111C440.548 302.255 440.813 302.375 441.087 302.471C441.936 302.769 442.535 302.971 442.943 303.129C443.124 303.153 443.333 303.177 443.595 303.221C444.813 303.403 446.063 303.251 447.29 303.221C448.517 303.192 449.416 303.117 450.125 303.117C451.04 303.077 451.945 303.315 452.722 303.799L462.2 303.6C460.893 308.263 461.131 308.587 456.736 310.449C455.166 311.116 453.82 311.756 452.4 312.235C450.869 312.79 449.262 313.107 447.636 313.176L445.524 316.866L456.069 315.675C453.136 321.035 448.72 325.695 442.928 328.628V353.445C438.428 353.162 439.238 353.993 439.176 349.276L439.274 328.232C434.042 326.6 427.818 319.581 425.183 314.165C425.415 314.305 425.642 314.463 425.853 314.617C425.642 314.454 425.415 314.32 425.183 314.159C421.014 310.225 416.402 296.542 415.922 289.416C413.838 282.359 413.617 275.019 418.998 271.044C425.758 266.056 431.04 267.58 438.967 265.514C439.935 259.91 438.899 253.629 439.247 250.306C439.643 246.536 438.699 248.293 440.864 247.328C443.63 248.153 442.773 246.712 443.053 251.069L443.014 266.002C452.939 265.603 464.404 268.959 466.58 275.081L451.257 275.945C452.608 277.011 454.021 277.996 455.488 278.896C461.703 278.848 461.965 279.039 467.417 277.374L467.432 282.3Z" fill="#FF8200"/>
</g>
<defs>
<clipPath id="clip0_340_201">
<rect width="600" height="176.672" fill="white" transform="translate(150 212)"/>
</clipPath>
</defs>
</svg>
