<svg width="900" height="600" viewBox="0 0 900 600" fill="none" xmlns="http://www.w3.org/2000/svg">
<g clip-path="url(#clip0_352_401)">
<path d="M808 252.616C807.829 253.264 807.673 253.916 807.484 254.558C806.734 257.095 805.345 259.236 803.432 261.048C801.833 262.563 799.986 263.7 797.941 264.492C791.864 266.843 785.802 269.233 779.687 271.477C774.066 273.543 770.946 277.507 770.094 283.366C769.558 287.055 769.584 290.769 769.575 294.48C769.551 303.944 769.563 313.409 769.517 322.873C769.499 326.539 769.422 330.208 769.261 333.871C769.106 337.426 768.122 340.737 765.888 343.589C763.797 346.259 761.041 347.927 757.777 348.719C754.131 349.607 750.484 349.517 746.932 348.262C740.849 346.114 737.492 341.69 736.8 335.378C736.443 332.103 736.536 328.777 736.523 325.474C736.466 310.621 736.432 295.768 736.419 280.915C736.419 271.587 736.489 262.259 736.571 252.931C736.592 250.539 736.629 248.14 737.284 245.793C739.035 239.518 744.228 235.221 750.72 234.664C753.114 234.458 755.526 234.645 757.859 235.219C761.001 235.983 763.471 237.696 765.222 240.403C766.108 241.77 766.904 243.194 767.743 244.591C768.02 245.054 768.302 245.512 768.659 246.1C769.099 245.73 769.466 245.423 769.832 245.113C772.081 243.214 774.259 241.223 776.594 239.438C779.9 236.906 783.591 235.127 787.714 234.292C796.113 232.588 804.371 237.214 807.232 245.286C807.545 246.168 807.747 247.089 808 247.992V252.616Z" fill="#F33E3E"/>
<path d="M532.948 347.542C533.117 343.741 533.07 340.962 532.82 340.701C532.711 340.59 532.579 340.504 532.434 340.449C531.816 340.252 531.534 340.722 531.195 341.074C525.765 346.702 519.023 349.561 511.352 350.461C494.286 352.458 476.623 344.021 467.229 329.75C461.693 321.342 458.027 312.221 456.612 302.24C455.769 296.292 455.756 290.332 456.448 284.362C456.919 280.308 457.685 276.317 458.679 272.363C458.877 271.579 458.964 270.762 459.036 269.955C459.136 268.84 458.599 268.036 457.644 267.515C457.129 267.234 456.598 266.952 456.04 266.787C445.198 263.563 440.641 248.61 450.297 239.301C456.318 233.496 466.095 233.175 472.243 238.55C473.022 239.231 473.677 240.055 474.372 240.83C474.703 241.2 474.968 241.63 475.299 242C476.527 243.364 477.53 243.528 479.144 242.62C479.656 242.331 480.144 241.999 480.635 241.673C486.662 237.672 493.269 235.245 500.456 234.392C505.074 233.849 509.688 233.81 514.273 234.562C520.146 235.527 525.225 238.213 529.738 242.031C530.188 242.413 530.624 242.811 531.094 243.164C532.383 244.131 533.194 244.037 534.239 242.789C534.731 242.199 535.155 241.551 535.641 240.954C538.118 237.916 541.189 235.799 545.042 234.861C550.507 233.532 558.47 235.298 562.365 241.691C566.805 248.979 566.84 256.316 562.404 263.628C561.511 265.107 560.342 266.4 558.961 267.438C558.073 268.106 557.996 268.49 558.628 269.379C562.888 275.361 564.454 282.19 564.722 289.351C565.043 297.902 565.226 306.46 565.33 315.016C565.459 325.746 565.578 336.48 565.446 347.209C565.37 353.404 564.98 359.611 564.389 365.779C563.516 374.904 560.614 383.365 555.112 390.811C549.13 398.916 541.111 404.189 531.676 407.472C526.637 409.224 521.439 410.173 516.131 410.501C511.883 410.763 507.626 411.051 503.372 411.046C499.026 411.04 494.687 410.62 490.381 409.955C483.316 408.864 476.488 406.997 470.133 403.655C468.335 402.709 466.541 401.69 464.939 400.452C460.455 396.991 458.117 392.425 458.447 386.678C458.787 380.803 463.204 373.272 472.562 373.048C474.83 372.99 477.091 373.344 479.234 374.091C483.508 375.574 487.766 377.104 492.042 378.582C498.238 380.722 504.612 381.696 511.158 381.163C513.492 380.973 515.844 380.603 518.106 380.007C522.92 378.738 526.423 375.754 528.697 371.32C529.226 370.289 530.864 367.319 532.015 361.3C532.639 358.043 533.24 353.336 532.948 347.542ZM506.591 323.733C507.816 323.541 509.865 323.386 511.82 322.881C518.645 321.119 523.814 317.001 527.541 311.135C532.609 303.161 533.842 294.471 531.716 285.324C529.969 277.82 526.119 271.613 519.756 267.129C511.185 261.086 500.329 261.141 491.787 267.221C487.642 270.171 484.467 273.968 482.285 278.552C479.598 284.197 478.613 290.145 479.219 296.382C479.786 302.228 481.559 307.631 484.987 312.414C490.078 319.516 496.947 323.427 506.593 323.733H506.591Z" fill="#F33E3E"/>
<path d="M108.012 269.022C108.012 252.084 108.012 235.145 108.012 218.207C108.012 213.677 107.952 209.148 108.075 204.619C108.215 199.458 110.02 194.974 114.067 191.587C116.871 189.241 120.131 188.08 123.805 188.002C125.961 187.957 128.05 188.247 130.081 188.917C135.548 190.718 138.812 194.599 140.204 200.052C140.73 202.112 141.007 204.228 141.029 206.354C141.111 217.404 141.074 228.455 141.069 239.506C141.069 240.183 140.96 240.86 140.952 241.537C140.944 242.195 141.108 242.802 141.759 243.144C142.422 243.493 143.004 243.27 143.505 242.828C147.847 238.993 153.121 237.18 158.614 235.826C162.135 234.965 165.749 234.542 169.373 234.564C178.611 234.598 187.343 236.515 194.967 242.105C200.806 246.387 205.105 251.808 207.018 258.869C207.653 261.211 208.079 263.66 208.202 266.08C208.88 279.559 209.02 293.055 208.906 306.551C208.871 310.763 208.873 314.975 208.777 319.186C208.651 324.663 208.608 330.149 208.231 335.612C207.641 344.155 201.823 348.636 194.832 349.342C192.031 349.625 189.307 349.456 186.647 348.642C180.783 346.847 176.479 341.617 176.109 335.451C175.781 330.033 175.747 324.591 175.72 319.164C175.665 308.748 175.774 298.332 175.683 287.917C175.651 284.304 175.381 280.675 174.935 277.089C174.405 272.829 172.701 269.073 169.118 266.423C166.881 264.769 164.329 263.983 161.582 263.608C158.177 263.144 154.884 263.453 151.728 264.757C146.143 267.063 142.778 271.284 141.678 277.174C141.25 279.466 141.215 281.856 141.202 284.203C141.128 298.151 141.126 312.101 141.068 326.05C141.056 328.718 141.002 331.394 140.788 334.052C140.53 337.248 139.596 340.273 137.813 342.975C135.275 346.822 131.619 348.759 127.094 349.324C124.439 349.655 121.859 349.454 119.297 348.784C113.73 347.327 109.244 342.945 108.375 336.117C107.96 332.857 108.053 329.523 108.047 326.223C108.021 307.156 108.017 288.089 108.034 269.021L108.012 269.022Z" fill="#F33E3E"/>
<path d="M337.286 292.3C337.286 282.473 337.286 272.645 337.288 262.818C337.292 259.377 337.329 255.935 337.356 252.494C337.376 249.983 337.775 247.538 338.657 245.181C340.322 240.737 343.405 237.751 347.942 236.337C351.637 235.185 355.399 234.937 359.204 235.781C362.58 236.53 365.097 238.441 366.848 241.402C367.216 242.025 367.571 242.663 368.011 243.234C369.01 244.531 369.999 244.727 371.449 243.933C372.002 243.623 372.53 243.27 373.028 242.877C378.263 238.836 384.21 236.457 390.676 235.248C394.301 234.571 397.957 234.295 401.631 234.484C411.331 234.985 420.101 237.937 427.405 244.554C432.878 249.51 436.067 255.721 437.392 262.947C438.147 267.073 438.101 271.248 438.116 275.403C438.18 294.015 438.15 312.629 438.137 331.241C438.137 333.915 437.985 336.589 437.077 339.144C434.923 345.208 430.575 348.508 424.239 349.356C421.719 349.703 419.155 349.546 416.696 348.893C410.633 347.28 407.064 343.26 405.669 337.221C405.115 334.82 405.133 332.369 405.119 329.925C405.063 319.284 405.011 308.642 404.965 298.001C404.939 292.614 404.968 287.225 404.871 281.839C404.806 278.275 404.076 274.826 402.415 271.631C399.804 266.607 395.557 264.105 389.986 263.691C386.293 263.418 382.756 263.931 379.499 265.807C374.715 268.563 371.895 272.726 371.037 278.124C370.678 280.387 370.694 282.723 370.684 285.027C370.617 299.88 370.572 314.733 370.548 329.586C370.541 332.032 370.493 334.474 369.918 336.874C369.409 339.002 368.66 341.033 367.438 342.861C364.857 346.72 361.187 348.748 356.624 349.352C353.786 349.728 351 349.531 348.3 348.658C342.62 346.821 339.357 342.765 337.927 337.089C337.21 334.24 337.338 331.334 337.333 328.442C337.314 316.395 337.311 304.349 337.325 292.303L337.286 292.3Z" fill="#F33E3E"/>
<path d="M222.412 281.346C222.412 275.413 222.387 269.48 222.42 263.547C222.446 258.792 222.497 254.036 222.628 249.282C222.691 246.918 223.271 244.596 224.328 242.48C226.298 238.519 229.469 235.969 233.698 234.789C237.171 233.82 240.708 233.813 244.165 234.83C249.944 236.53 253.418 240.484 254.795 246.276C255.574 249.553 255.63 252.915 255.628 256.27C255.622 270.855 255.617 285.441 255.612 300.026C255.612 303.39 255.918 306.717 257.01 309.931C259.096 316.074 263.753 319.616 270.702 320.073C273.242 320.24 275.781 320.179 278.248 319.437C284.227 317.639 287.788 313.568 289.174 307.582C289.569 305.878 289.744 304.09 289.757 302.336C289.866 287.435 289.905 272.533 290 257.631C290.018 254.827 290.131 252.019 290.327 249.222C290.488 246.865 291.113 244.563 292.169 242.449C294.727 237.325 299.023 234.771 304.589 234.219C306.751 234.005 308.935 234.068 311.077 234.578C316.693 235.916 320.232 239.465 322.019 244.857C322.808 247.24 323.125 249.704 323.126 252.212C323.13 270.104 323.135 287.997 323.14 305.889C323.14 307.565 323.173 309.244 323.082 310.916C322.785 316.384 321.713 321.685 319.432 326.695C315.271 335.837 308.277 341.92 298.998 345.522C295.055 347.053 290.947 347.898 286.774 348.542C280.343 349.533 273.877 349.906 267.397 349.552C258.145 349.043 249.14 347.326 240.901 342.84C230.742 337.309 224.921 328.69 223.062 317.318C222.511 313.944 222.502 310.551 222.486 307.159C222.448 298.555 222.474 289.949 222.474 281.345L222.412 281.346Z" fill="#F33E3E"/>
<path d="M577.896 292.009C577.896 278.922 577.898 265.835 577.9 252.749C577.9 249.546 578.391 246.426 579.788 243.514C582.383 238.103 586.75 235.228 592.692 234.69C594.87 234.492 597.042 234.575 599.172 235.108C602.998 236.066 605.762 238.409 607.707 241.77C608.228 242.669 608.63 243.635 609.135 244.545C609.838 245.809 610.534 245.942 611.627 245.021C612.215 244.525 612.744 243.961 613.3 243.429C617.071 239.828 621.207 236.784 626.234 235.15C631.07 233.577 635.864 233.578 640.511 235.835C646.637 238.81 650.055 245.097 649.437 251.874C648.876 258.017 645.687 262.103 640.003 264.311C634.393 266.489 628.753 268.588 623.157 270.798C621.348 271.514 619.594 272.36 617.908 273.33C614.106 275.513 612.069 278.919 611.539 283.221C611.33 284.927 611.223 286.644 611.218 288.363C611.185 301.813 611.206 315.262 611.168 328.711C611.16 331.512 611.197 334.332 610.433 337.073C608.766 343.052 605.213 347.291 599.048 348.86C594.12 350.115 589.393 349.287 585.101 346.576C581.322 344.191 579.292 340.536 578.451 336.247C578.069 334.307 577.906 332.296 577.899 330.317C577.852 317.547 577.875 304.778 577.875 292.009H577.896Z" fill="#F33E3E"/>
<path d="M689.344 246.094C690.272 245.315 691.024 244.675 691.784 244.046C693.737 242.428 695.637 240.738 697.662 239.215C700.96 236.733 704.627 234.991 708.732 234.306C718.387 232.694 726.661 238.415 728.352 247.029C729.413 252.438 728.297 257.289 724.307 261.281C722.744 262.846 720.851 263.919 718.741 264.555C712.617 266.4 706.81 269.067 700.875 271.401C699.743 271.847 698.666 272.445 697.601 273.038C693.387 275.379 691.119 279.032 690.713 283.768C690.454 286.784 690.404 289.825 690.395 292.854C690.355 305.353 690.386 317.853 690.34 330.353C690.331 333.16 690.108 335.963 689.158 338.648C686.988 344.783 682.706 348.289 676.218 349.125C673.42 349.485 670.685 349.258 668.041 348.35C662.018 346.282 658.71 341.896 657.595 335.756C657.001 332.487 657.101 329.17 657.1 325.866C657.09 303.675 657.092 281.483 657.104 259.291C657.106 256.394 657.178 253.498 657.319 250.603C657.379 249.247 657.577 247.9 657.908 246.584C659.56 240.163 663.704 236.309 670.186 234.988C672.229 234.572 674.287 234.377 676.397 234.628C679.754 235.027 682.566 236.438 684.746 238.974C685.887 240.304 686.808 241.829 687.775 243.301C688.314 244.127 688.746 245.023 689.344 246.094Z" fill="#F33E3E"/>
<path d="M504.666 276.05C506.445 275.784 507.983 275.977 509.495 276.457C511.72 277.166 513.497 278.527 515.018 280.262C517.68 283.297 519.067 286.891 519.475 290.851C519.906 295.035 519.284 299.071 517.3 302.831C515.965 305.363 514.168 307.503 511.644 308.92C507.573 311.207 503.502 311.114 499.553 308.633C496.432 306.672 494.523 303.731 493.281 300.335C491.885 296.515 491.866 292.628 492.828 288.711C492.89 288.459 492.997 288.217 493.111 287.888C493.907 288.303 494.139 288.998 494.23 289.697C494.464 291.498 495.403 292.908 496.581 294.193C499.55 297.432 504.448 297.388 507.194 293.971C510.169 290.27 510.924 286.153 508.682 281.816C507.839 280.184 506.625 278.742 505.571 277.22C505.325 276.865 505.045 276.534 504.666 276.05Z" fill="#F33E3E"/>
</g>
<defs>
<clipPath id="clip0_352_401">
<rect width="700" height="223.045" fill="white" transform="translate(108 188)"/>
</clipPath>
</defs>
</svg>
