<svg width="900" height="600" viewBox="0 0 900 600" fill="none" xmlns="http://www.w3.org/2000/svg">
<path d="M306.216 245.033V289.27H312.572V254.827L326.324 271.952H327.491L341.113 254.827V289.27H347.47V245.033H341.567L326.908 263.195L312.183 245.033H306.216Z" fill="currentColor"/>
<path d="M375.889 244.773L356.884 289.27H363.37L368.949 276.232H387.759L393.662 289.27H400.149L380.365 244.773H375.889ZM378.095 253.4L385.295 270.524H371.349L378.095 253.4Z" fill="currentColor"/>
<path d="M429.578 244.449C416.411 244.449 405.644 254.243 405.644 267.216C405.644 277.595 413.168 289.854 429.449 289.854C435.027 289.854 440.346 288.751 445.535 285.962V279.022C440.735 282.2 435.481 283.951 429.708 283.951C418.682 283.951 412.26 275.973 412.26 267.281C412.26 258.589 418.941 250.351 429.773 250.351C435.157 250.351 440.346 252.103 445.081 254.762V248.081C439.762 245.681 434.508 244.449 429.578 244.449Z" fill="currentColor"/>
<path d="M457.865 245.033V289.27H474.73C488.741 289.27 498.535 280.319 498.535 266.633C498.535 254.179 489.454 245.033 474.665 245.033H457.865ZM464.222 283.562V250.676H473.497C486.016 250.676 491.984 257.292 491.984 266.827C491.984 277.335 485.562 283.562 474.405 283.562H464.222Z" fill="currentColor"/>
<path d="M532.595 244.449C517.222 244.449 508.919 255.735 508.919 267.281C508.919 279.411 518.259 289.854 532.27 289.854C547.643 289.854 556.465 278.892 556.465 267.087C556.465 254.503 546.67 244.449 532.595 244.449ZM532.789 250.416C544.141 250.416 549.914 259.497 549.914 267.022C549.914 278.308 541.805 283.887 532.4 283.887C523.319 283.887 515.47 277.076 515.47 267.281C515.47 257.876 521.827 250.416 532.789 250.416Z" fill="currentColor"/>
<path d="M568.805 245.033V289.27H574.903V255.216L604.286 289.27H609.8V245.033H603.703V279.346L574.059 245.033H568.805Z" fill="currentColor"/>
<path d="M638.224 244.773L619.219 289.27H625.705L631.284 276.232H650.095L655.997 289.27H662.484L642.7 244.773H638.224ZM640.43 253.4L647.63 270.524H633.684L640.43 253.4Z" fill="currentColor"/>
<path d="M671.889 245.033V289.27H698.224V283.498H678.311V245.033H671.889Z" fill="currentColor"/>
<path d="M708.292 245.033V289.27H725.157C739.168 289.27 748.962 280.319 748.962 266.633C748.962 254.179 739.881 245.033 725.092 245.033H708.292ZM714.649 283.562V250.676H723.924C736.443 250.676 742.411 257.292 742.411 266.827C742.411 277.335 735.989 283.562 724.832 283.562H714.649Z" fill="currentColor"/>
<path d="M307.298 319.239V348.731H311.536V335.887H328.098V348.731H332.336V319.239H328.098V331.996H311.536V319.239H307.298Z" fill="currentColor"/>
<path d="M357.612 318.85C347.363 318.85 341.828 326.374 341.828 334.071C341.828 342.158 348.055 349.12 357.396 349.12C367.644 349.12 373.525 341.812 373.525 333.941C373.525 325.552 366.996 318.85 357.612 318.85ZM357.742 322.828C365.309 322.828 369.158 328.882 369.158 333.898C369.158 341.423 363.752 345.141 357.482 345.141C351.428 345.141 346.196 340.601 346.196 334.071C346.196 327.801 350.434 322.828 357.742 322.828Z" fill="currentColor"/>
<path d="M378.683 319.239V322.958H388.802V348.731H393.04V322.958H403.332V319.239H378.683Z" fill="currentColor"/>
<path d="M411.614 319.239V348.731H428.738V344.925H415.852V335.758H427.916V331.996H415.852V323.001H428.349V319.239H411.614Z" fill="currentColor"/>
<path d="M438.489 319.239V348.731H456.046V344.882H442.77V319.239H438.489Z" fill="currentColor"/>
<path d="M472.086 318.85C467.027 318.85 463.395 322.006 463.395 326.201C463.395 329.833 465.038 332.169 469.405 334.72C475.243 338.136 475.805 339.477 475.805 341.466C475.805 343.758 473.946 345.358 471.481 345.358C468.411 345.358 465.6 343.758 463.524 341.033V346.396C465.859 348.125 468.584 349.12 471.481 349.12C476.627 349.12 480.043 345.747 480.043 341.423C480.043 337.401 478.703 335.325 472.476 331.736C467.978 329.141 467.632 327.714 467.632 326.071C467.632 324.039 469.276 322.655 471.957 322.655C474.595 322.655 476.886 323.779 478.876 325.725V320.925C476.843 319.585 474.508 318.85 472.086 318.85Z" fill="currentColor"/>
<path d="M514.33 331.217C512.643 329.617 511.605 327.758 511.605 326.201C511.605 324.601 513.119 323.39 514.849 323.39C516.708 323.39 518.178 324.731 518.178 326.417C518.178 328.017 517.054 329.574 514.33 331.217ZM503.822 342.374C503.822 346.222 507.411 349.12 511.173 349.12C515.065 349.12 518.351 346.525 520.6 344.709L524.016 348.731H529.422L523.454 341.812C525.832 339.087 527.346 336.536 528.254 334.071H524.016C523.108 335.931 521.984 337.66 520.859 338.828L516.708 334.071C520.86 331.217 522.157 328.882 522.157 326.244C522.157 323.303 519.908 319.801 514.805 319.801C509.27 319.801 507.454 323.866 507.454 326.59C507.454 329.271 509.097 331.693 510.784 333.422C506.243 336.06 503.822 338.698 503.822 342.374ZM508.059 342.028C508.059 340.039 509.616 338.612 513.205 336.233L518.005 341.768C516.189 343.368 514.114 345.098 511.692 345.098C509.616 345.098 508.059 343.671 508.059 342.028Z" fill="currentColor"/>
<path d="M553.565 319.239V348.731H557.803V335.887H559.705C561.781 335.887 563.641 336.796 566.624 341.466L571.295 348.731H576.311L571.122 340.86C568.268 336.536 567.446 335.844 565.716 334.72C568.959 333.423 570.646 330.871 570.646 327.455C570.646 323.131 567.576 319.239 561.695 319.239H553.565ZM557.803 322.958H561.392C564.592 322.958 566.322 324.601 566.322 327.455C566.322 331.39 563.597 332.168 560.527 332.168H557.803V322.958Z" fill="currentColor"/>
<path d="M583.859 319.239V348.731H600.984V344.925H588.097V335.758H600.162V331.996H588.097V323.001H600.595V319.239H583.859Z" fill="currentColor"/>
<path d="M618.259 318.85C613.2 318.85 609.568 322.006 609.568 326.201C609.568 329.833 611.211 332.169 615.578 334.72C621.416 338.136 621.978 339.477 621.978 341.466C621.978 343.758 620.119 345.358 617.654 345.358C614.584 345.358 611.773 343.758 609.697 341.033V346.396C612.032 348.125 614.757 349.12 617.654 349.12C622.8 349.12 626.216 345.747 626.216 341.423C626.216 337.401 624.876 335.325 618.649 331.736C614.151 329.141 613.805 327.714 613.805 326.071C613.805 324.039 615.449 322.655 618.13 322.655C620.768 322.655 623.059 323.779 625.049 325.725V320.925C623.016 319.585 620.681 318.85 618.259 318.85Z" fill="currentColor"/>
<path d="M650.154 318.85C639.905 318.85 634.37 326.374 634.37 334.071C634.37 342.158 640.597 349.12 649.938 349.12C660.187 349.12 666.068 341.812 666.068 333.941C666.068 325.552 659.538 318.85 650.154 318.85ZM650.284 322.828C657.851 322.828 661.7 328.882 661.7 333.898C661.7 341.423 656.295 345.141 650.024 345.141C643.97 345.141 638.738 340.601 638.738 334.071C638.738 327.801 642.976 322.828 650.284 322.828Z" fill="currentColor"/>
<path d="M675.592 319.239V348.731H679.83V335.887H681.732C683.808 335.887 685.668 336.796 688.651 341.466L693.322 348.731H698.338L693.149 340.86C690.295 336.536 689.473 335.844 687.743 334.72C690.986 333.423 692.673 330.871 692.673 327.455C692.673 323.131 689.603 319.239 683.722 319.239H675.592ZM679.83 322.958H683.419C686.619 322.958 688.349 324.601 688.349 327.455C688.349 331.39 685.624 332.168 682.554 332.168H679.83V322.958Z" fill="currentColor"/>
<path d="M701.351 319.239V322.958H711.47V348.731H715.708V322.958H726V319.239H701.351Z" fill="currentColor"/>
<path d="M741.808 318.85C736.749 318.85 733.116 322.006 733.116 326.201C733.116 329.833 734.759 332.169 739.127 334.72C744.965 338.136 745.527 339.477 745.527 341.466C745.527 343.758 743.668 345.358 741.203 345.358C738.132 345.358 735.322 343.758 733.246 341.033V346.396C735.581 348.125 738.305 349.12 741.203 349.12C746.349 349.12 749.765 345.747 749.765 341.423C749.765 337.401 748.424 335.325 742.197 331.736C737.7 329.141 737.354 327.714 737.354 326.071C737.354 324.039 738.997 322.655 741.678 322.655C744.316 322.655 746.608 323.779 748.597 325.725V320.925C746.565 319.585 744.23 318.85 741.808 318.85Z" fill="currentColor"/>
<path d="M198.244 359.054V355.351C200.887 354.633 203.612 354.261 206.352 354.243C209.037 354.27 211.711 354.597 214.325 355.216H214.487V358.946H214.217C211.637 358.349 209 358.032 206.352 358C203.703 358.02 201.069 358.383 198.514 359.081L198.244 359.054ZM198.649 355.676V358.378C201.156 357.725 203.734 357.38 206.325 357.351C208.916 357.38 211.498 357.679 214.027 358.243V355.54C211.501 354.954 208.918 354.646 206.325 354.622C203.732 354.648 201.153 355.002 198.649 355.676Z" fill="currentColor"/>
<path d="M206.351 380.297L204.838 378.459L251.378 339.405C253.852 337.242 255.953 334.685 257.595 331.838C259.53 328.324 260.63 324.412 260.811 320.405V233.676C257.459 234.703 249 236.378 233.595 234.405C222.79 232.854 212.708 228.067 204.676 220.676L206.351 219C214.009 225.96 223.553 230.502 233.784 232.054C253.297 234.568 261.297 230.973 261.378 230.946L263.054 230.162V320.378C262.918 324.747 261.761 329.024 259.676 332.865C257.899 336.018 255.596 338.842 252.865 341.216L206.351 380.297ZM206.351 370.73L204.838 368.892L212.946 362.027V359.541C210.742 359.078 208.496 358.843 206.243 358.838V356.459C208.494 356.469 210.738 356.696 212.946 357.135V356.297C210.74 355.84 208.496 355.595 206.243 355.568C203.976 355.603 201.72 355.884 199.513 356.405V357.216C201.724 356.726 203.979 356.463 206.243 356.432V358.811C203.976 358.845 201.72 359.126 199.513 359.649V362.351H197.135V347.216L206.351 337.919L215.459 347.189V360L229.513 348.243L244.838 335.216C247.098 333.394 248.941 331.108 250.243 328.514C251.685 325.312 252.685 321.93 253.216 318.459V242.784C244.935 243.548 236.589 243.184 228.405 241.703C219.506 240.493 211.185 236.61 204.541 230.568L206.27 228.919C212.6 234.612 220.488 238.282 228.919 239.459C237.283 241.052 245.842 241.353 254.297 240.351L255.703 240.108V318.73C255.147 322.467 254.065 326.107 252.486 329.541C251.015 332.479 248.911 335.054 246.324 337.081L231.081 350.108L206.351 370.73ZM199.649 348.73V354.135C201.859 353.645 204.114 353.382 206.378 353.351C208.628 353.374 210.872 353.6 213.081 354.027V348.73C210.876 348.269 208.631 348.025 206.378 348C204.115 347.999 201.859 348.244 199.649 348.73ZM206.351 341.351L201.892 346.027C203.378 345.812 204.877 345.703 206.378 345.703C207.87 345.708 209.359 345.807 210.838 346L206.351 341.351ZM183.459 349.865H181.081V334.757L175.676 329.351L168.243 310.892L179.054 306.351L184.027 307.919L185 311.595L188.135 311.054V304.162L199.081 302.324L203.513 305.649V309.865H206.432V312.243H201.027V306.838L198.324 304.838L190.351 306.189V313.135L183.081 314.378L181.919 309.865L179.027 308.919L171.324 312.216L174.946 321.135C185.124 318.046 195.689 316.417 206.324 316.297C217.325 316.399 228.252 318.111 238.757 321.378L238 323.622C233.762 322.273 229.436 321.216 225.054 320.459L227.378 323L226.676 327.649L230.162 331.081L229.892 332.892L230.622 333.081L229.973 335.351C222.303 333.475 214.436 332.522 206.541 332.514V330.162C208.541 330.162 210.459 330.162 212.27 330.324V329.757L209.703 327.595H203.108L200.189 329.757V330.351C202.189 330.351 204.27 330.162 206.432 330.162V332.514C198.662 332.546 190.919 333.453 183.351 335.216L183.459 349.865ZM177.757 328.054L182.649 332.946L182.378 331.135L185.865 327.703L185.135 323.054L187.405 320.541C183.484 321.225 179.604 322.127 175.784 323.243L177.757 328.054ZM184.946 331.946L185.135 332.514C186.486 332.243 188.243 331.892 190.324 331.541L189.919 329.027L187.838 329.351L184.946 331.946ZM222.378 331.378C224.459 331.703 226.216 332.054 227.568 332.351V331.946L224.865 329.243L222.811 328.919L222.378 331.378ZM192.135 328.676L192.541 331.189C194.189 330.946 196 330.73 197.946 330.568V330.081L194.513 328.324L192.135 328.676ZM214.649 330.541C216.568 330.703 218.351 330.919 220.054 331.135L220.432 328.676L218.189 328.324L214.73 330.108L214.649 330.541ZM195.73 326.324L198.784 327.892L201.486 325.838V321L204.189 318.703C200.028 318.82 195.876 319.181 191.757 319.784L194.838 321.514L195.73 326.324ZM211.459 325.865L213.838 327.892L216.892 326.324L217.568 321.514L220.703 319.757C216.673 319.172 212.611 318.829 208.541 318.73L211.405 320.973L211.459 325.865ZM219.324 326.108L224.432 326.865L224.892 323.919L222.703 321.514L219.784 323.162L219.324 326.108ZM187.838 323.784L188.297 326.73L193.243 325.973L192.784 323.027L189.865 321.378L187.838 323.784ZM204.054 325.108H209.216V322.135L206.513 320.081L204 322.135L204.054 325.108Z" fill="currentColor"/>
<path d="M167.595 334.946C165.236 333.084 163.309 330.732 161.946 328.054C160.524 324.752 159.612 321.252 159.243 317.676V241.378C159.243 241.378 167.351 243.378 182.838 241.378C191.366 240.331 199.501 237.182 206.514 232.216V219C198.885 225.753 189.365 229.999 179.243 231.162C158.27 233.865 150 229.946 150 229.946V321.027C150.487 325.281 151.617 329.436 153.351 333.351C154.987 336.506 157.282 339.271 160.081 341.459L206.378 380.297V367.649L167.595 334.946Z" fill="currentColor"/>
<path d="M182.432 252.351L171.622 274.107L182.432 296.08L192.541 274.107L182.432 252.351Z" fill="currentColor"/>
<path d="M228.892 240.62C220.528 239.734 212.654 236.245 206.378 230.647V312.215H211.405V306.81L214.108 304.756L222.081 306.107V313.107L229.297 314.404L230.486 309.756L233.513 308.837L241.189 312.188L234.648 328.134L229.054 333.539V349.756L230.27 348.756L245.838 335.431C248.109 333.23 250.008 330.674 251.459 327.864C252.94 324.583 253.898 321.09 254.297 317.512V241.188C254.297 241.188 246.378 242.972 228.865 240.729L228.892 240.62ZM230.27 246.81C230.27 246.81 227.784 248.215 227.784 246.81C227.784 245.404 230.27 246.891 230.27 246.891V246.81ZM226.594 255.08L225.675 253.783L223.784 254.242C225.838 252.35 226.486 246.35 226.486 246.35C226.486 246.35 227.162 252.35 229.189 254.242L227.243 253.783L226.405 255.161L226.594 255.08ZM227.54 278.458C226.27 278.458 227.54 276.188 227.54 276.188C227.54 276.188 228.811 278.458 227.54 278.458ZM226.594 243.323C226.594 243.323 228 245.81 226.594 245.81C225.189 245.81 226.594 243.161 226.594 243.161V243.323ZM223.513 263.296C223.513 263.296 221.243 264.566 221.243 263.296C221.243 262.026 223.513 263.296 223.513 263.296ZM220.27 270.81L219.432 269.566L217.729 269.972C219.567 268.269 220.162 262.81 220.162 262.81C220.375 265.36 221.21 267.819 222.594 269.972L220.838 269.566L220.054 270.81H220.27ZM220.405 294.675C219.135 294.675 220.405 292.404 220.405 292.404C220.405 292.404 221.648 294.675 220.405 294.675ZM220.27 259.891C220.27 259.891 221.54 262.161 220.27 262.161C219 262.161 220.27 259.891 220.27 259.891ZM216.135 247.107C216.135 247.107 213.892 248.377 213.892 247.107C213.892 245.837 216.135 247.107 216.135 247.107ZM212.784 254.621L211.946 253.377L210.243 253.783C212.108 252.053 212.675 246.621 212.675 246.621C212.896 249.169 213.73 251.627 215.108 253.783L213.351 253.377L212.567 254.621H212.784ZM213.027 278.458C211.756 278.458 213.027 276.188 213.027 276.188C213.027 276.188 214.297 278.458 213.027 278.458ZM212.784 243.702C212.784 243.702 214.054 245.972 212.784 245.972C211.513 245.972 212.784 243.702 212.784 243.702ZM211.648 247.107C211.648 248.377 209.378 247.107 209.378 247.107C209.378 247.107 211.648 245.837 211.648 247.107ZM211.865 279.539C211.865 280.81 209.621 279.539 209.621 279.539C209.621 279.539 211.865 278.242 211.865 279.512V279.539ZM213.811 285.783L213.027 287.053L212.162 285.756L210.459 286.188C212.324 284.458 212.892 278.999 212.892 278.999C213.108 281.557 213.942 284.024 215.324 286.188L213.567 285.756L213.811 285.783ZM214.108 279.539C214.108 278.269 216.378 279.539 216.378 279.539C216.378 279.539 214.108 280.783 214.108 279.512V279.539ZM219.027 263.323C219.027 264.593 216.756 263.323 216.756 263.323C216.756 263.323 219.027 262.026 219.027 263.296V263.323ZM219.27 295.756C219.27 297.026 217 295.756 217 295.756C217 295.756 219.27 294.431 219.27 295.702V295.756ZM221.189 302.026L220.405 303.269L219.567 302.026L217.865 302.431C219.729 300.729 220.297 295.269 220.297 295.269C220.51 297.819 221.345 300.279 222.729 302.431L220.946 302.026H221.189ZM221.486 295.756C221.486 294.485 223.756 295.756 223.756 295.756C223.756 295.756 221.486 296.972 221.486 295.702V295.756ZM225.324 246.945C225.324 248.35 222.838 246.945 222.838 246.945C222.838 246.945 225.324 245.485 225.324 246.891V246.945ZM226.405 279.566C226.405 280.837 224.135 279.566 224.135 279.566C224.135 279.566 226.405 278.242 226.405 279.512V279.566ZM228.378 285.756L227.594 287.026L226.756 285.756L225.054 286.161C226.919 284.458 227.486 278.999 227.486 278.999C227.698 281.549 228.533 284.009 229.919 286.161L228.378 285.756ZM228.675 279.512C228.675 278.242 230.946 279.512 230.946 279.512C230.946 279.512 228.621 280.783 228.621 279.512H228.675ZM245.973 247.08C245.973 247.08 243.675 248.35 243.675 247.08C243.675 245.81 245.919 247.107 245.919 247.107L245.973 247.08ZM245.162 253.756L243.405 253.35L242.621 254.593L241.784 253.35L240.081 253.756C241.468 251.605 242.304 249.145 242.513 246.593C242.723 249.145 243.558 251.605 244.946 253.756H245.162ZM242.054 278.458C240.784 278.458 242.054 276.188 242.054 276.188C242.054 276.188 243.324 278.458 242.054 278.458ZM242.54 243.783C242.54 243.783 243.811 246.053 242.54 246.053C241.27 246.053 242.54 243.702 242.54 243.702V243.783ZM238.027 263.377C238.027 263.377 235.756 264.648 235.756 263.377C235.756 262.107 238.027 263.296 238.027 263.296V263.377ZM234.675 270.891L233.784 269.566L232.081 269.972C233.946 268.269 234.513 262.81 234.513 262.81H234.648C234.862 265.36 235.697 267.819 237.081 269.972L235.324 269.566L234.513 270.81L234.675 270.891ZM234.892 294.675C233.648 294.675 234.892 292.404 234.892 292.404C234.892 292.404 236.162 294.675 234.892 294.675ZM234.675 259.999C234.675 259.999 235.919 262.269 234.675 262.269C233.432 262.269 234.675 259.891 234.675 259.891V259.999ZM233.513 263.404C233.513 264.675 231.27 263.404 231.27 263.404C231.27 263.404 233.513 262.026 233.513 263.296V263.404ZM233.756 295.837C233.756 297.107 231.513 295.837 231.513 295.837C231.513 295.837 233.784 294.431 233.784 295.702L233.756 295.837ZM235.702 302.107L234.919 303.35L234.081 302.107L232.378 302.512C234.243 300.81 234.811 295.35 234.811 295.35C235.031 297.899 235.865 300.356 237.243 302.512L235.486 302.107H235.702ZM236 295.837C236 294.566 238.27 295.837 238.27 295.837C238.27 295.837 236 296.972 236 295.702V295.837ZM241.405 247.188C241.405 248.458 239.135 247.188 239.135 247.188C239.135 247.188 241.405 245.837 241.405 247.107V247.188ZM240.892 279.621C240.892 280.891 238.621 279.621 238.621 279.621C238.621 279.621 240.892 278.242 240.892 279.512V279.621ZM242.838 285.864L242.054 287.134L241.216 285.864L239.486 286.269C241.351 284.566 241.946 279.107 241.946 279.107C242.158 281.658 242.993 284.117 244.378 286.269L242.594 285.864H242.838ZM243.135 279.621C243.135 278.35 245.378 279.621 245.378 279.621C245.378 279.621 243.135 280.783 243.135 279.512V279.621ZM252.54 263.404C252.54 263.404 250.27 264.675 250.27 263.404C250.27 262.134 252.54 263.296 252.54 263.296V263.404ZM249.189 270.81L248.351 269.566L246.648 269.972C248.513 268.269 249.081 262.81 249.081 262.81C249.3 265.359 250.135 267.816 251.513 269.972L250 269.566L249.216 270.81H249.189ZM249.432 294.675C248.135 294.675 249.432 292.404 249.432 292.404C249.432 292.404 250.675 294.675 249.432 294.675ZM249.162 259.999C249.162 259.999 250.432 262.269 249.162 262.269C247.892 262.269 249.162 259.891 249.162 259.891V259.999ZM248.027 263.404C248.027 264.675 245.756 263.404 245.756 263.404C245.756 263.404 248.027 262.026 248.027 263.296V263.404ZM248.27 295.837C248.27 297.107 246 295.837 246 295.837C246 295.837 248.27 294.431 248.27 295.702V295.837ZM250.216 302.107L249.432 303.35L248.594 302.107L246.892 302.512C248.729 300.81 249.324 295.35 249.324 295.35C249.544 297.899 250.379 300.356 251.756 302.512L250 302.107H250.216ZM250.513 295.837C250.513 294.566 252.756 295.837 252.756 295.837C252.756 295.837 250.513 296.972 250.513 295.702V295.837Z" fill="currentColor"/>
</svg>
