<svg width="900" height="600" viewBox="0 0 900 600" fill="none" xmlns="http://www.w3.org/2000/svg">
<path d="M221.856 200.644L212.212 218.986C201.434 213.502 192.736 210.666 186.495 210.666C182.903 210.666 180.633 211.99 180.633 214.448C180.633 223.335 221.667 219.364 221.667 246.216C221.667 262.478 207.674 272.311 187.063 272.311C173.826 272.5 160.968 268.718 150 261.154L159.077 242.812C168.91 249.241 178.932 252.456 187.63 252.456C191.601 252.456 194.248 251.321 194.248 248.863C193.87 239.976 153.593 244.325 153.593 217.473C153.593 200.833 167.397 191 187.252 191C199.354 191.189 211.267 194.404 221.856 200.644Z" fill="#06549E"/>
<path d="M309.597 221.066V270.987H280.287V229.386C280.287 221.633 275.749 216.717 268.941 216.717C260.999 216.906 256.083 223.146 256.083 232.034V270.987H226.773V192.135H256.083V204.237C261.566 195.538 270.076 191 281.043 191C297.873 191 309.597 202.724 309.597 221.066Z" fill="#06549E"/>
<path d="M391.664 219.743V270.798H362.922V262.1C358.194 268.529 350.252 272.311 339.852 272.311C323.022 272.311 313.189 262.289 313.189 247.54C313.189 232.412 323.779 223.903 343.634 223.714H362.922V223.524C362.922 217.095 358.383 213.124 349.307 213.124C341.176 213.502 333.044 215.393 325.481 218.797L318.484 199.131C330.397 194.026 343.445 191.189 356.492 191C378.616 191 391.664 201.589 391.664 219.743ZM363.111 245.081V237.896H349.874C344.012 237.896 340.986 240.354 340.986 245.27C340.986 250.187 344.201 253.023 349.874 253.023C355.547 253.212 360.652 249.998 363.111 245.081Z" fill="#06549E"/>
<path d="M484.132 232.223C484.132 256.427 470.139 272.122 448.393 272.122C439.883 272.311 431.563 268.718 426.079 261.911V299.919H396.77V192.324H426.079V201.4C431.374 194.782 439.316 191.189 447.636 191.189C469.761 191.378 484.132 207.64 484.132 232.223ZM454.633 231.466C454.633 221.066 448.96 213.88 440.262 213.88C431.941 213.88 426.079 221.066 426.079 231.466C426.079 241.867 431.941 249.052 440.262 249.052C448.96 249.052 454.633 241.867 454.633 231.466Z" fill="#06549E"/>
<path d="M574.709 232.223C574.709 256.427 560.715 272.122 538.97 272.122C530.46 272.311 522.14 268.529 516.656 261.911V299.919H487.346V192.324H516.656V201.4C521.951 194.782 529.893 191.189 538.213 191.189C560.148 191.378 574.709 207.64 574.709 232.223ZM545.21 231.466C545.21 221.066 539.537 213.88 530.838 213.88C522.518 213.88 516.656 221.066 516.656 231.466C516.656 241.867 522.518 249.052 530.838 249.052C539.537 249.052 545.21 241.867 545.21 231.466Z" fill="#06549E"/>
<path d="M623.684 277.795C617.444 293.301 606.666 300.487 590.971 300.487C581.705 300.676 572.818 297.461 565.632 291.788L577.734 272.312C580.571 275.148 584.353 276.85 588.324 276.85C591.916 277.039 595.32 275.148 596.833 271.744L598.346 268.908L565.821 192.324H595.698L612.906 240.544L627.466 192.324H656.587L623.684 277.795Z" fill="#06549E"/>
<path d="M221.856 311.076L212.212 329.418C201.434 323.934 192.736 321.098 186.495 321.098C182.903 321.098 180.633 322.421 180.633 324.879C180.633 333.767 221.667 329.796 221.667 356.648C221.667 372.91 207.674 382.743 187.063 382.743C173.826 382.932 160.968 379.15 150 371.586L159.077 353.244C168.72 359.673 178.553 363.077 187.252 363.077C191.223 363.077 193.87 361.942 193.87 359.484C193.87 350.407 153.593 354.757 153.593 327.716C153.593 311.265 167.397 301.432 187.252 301.432C199.354 301.621 211.267 304.835 221.856 311.076Z" fill="#E42833"/>
<path d="M309.597 331.498V381.419H280.287V339.818C280.287 332.065 275.938 326.959 268.941 326.959C260.999 327.149 256.083 333.389 256.083 342.276V381.23H226.773V274.013H256.083V314.857C261.566 306.159 270.076 301.621 281.043 301.621C298.062 301.621 309.597 313.345 309.597 331.498Z" fill="#E42833"/>
<path d="M391.664 342.087C391.664 366.48 376.158 382.553 352.521 382.553C328.884 382.553 313.379 366.48 313.379 342.087C313.379 317.694 328.884 301.621 352.521 301.621C376.158 301.621 391.664 317.694 391.664 342.087ZM337.961 341.898C337.961 352.487 343.823 359.484 352.71 359.484C361.598 359.484 367.271 352.487 367.271 341.898C367.271 331.309 361.409 324.312 352.71 324.312C344.012 324.312 337.961 331.498 337.961 341.898Z" fill="#E42833"/>
<path d="M484.132 342.844C484.132 367.048 470.139 382.743 448.393 382.743C439.883 382.932 431.563 379.15 426.079 372.532V409.784H396.77V302.945H426.079V312.021C431.374 305.403 439.316 301.81 447.636 301.81C469.761 301.999 484.132 318.261 484.132 342.844ZM454.633 342.087C454.633 331.687 448.96 324.502 440.262 324.502C431.941 324.502 426.079 331.687 426.079 342.087C426.079 352.488 431.941 359.673 440.262 359.673C448.96 359.673 454.633 352.488 454.633 342.087Z" fill="#E42833"/>
<path d="M574.709 342.843C574.709 367.047 560.715 382.742 538.97 382.742C530.46 382.931 522.14 379.15 516.656 372.531V409.783H487.346V302.944H516.656V312.021C521.951 305.402 529.893 301.62 538.213 301.81C560.148 301.999 574.709 318.261 574.709 342.843ZM545.21 342.087C545.21 331.687 539.537 324.501 530.838 324.501C522.518 324.501 516.656 331.687 516.656 342.087C516.656 352.487 522.518 359.673 530.838 359.673C539.537 359.673 545.21 352.487 545.21 342.087Z" fill="#E42833"/>
<path d="M659.991 349.462H607.044C609.313 357.026 614.797 361.186 622.361 361.186C628.979 360.997 635.03 358.161 639.757 353.623L654.885 368.561C646.565 377.638 634.841 382.743 619.902 382.743C593.618 382.743 577.545 366.859 577.545 342.655C577.545 318.073 594.185 302 619.146 302C646.565 302 661.692 320.531 659.991 349.462ZM631.059 335.091C631.248 327.338 626.332 321.855 619.146 321.855C612.338 321.855 607.8 327.149 606.287 335.091H631.059Z" fill="#E42833"/>
<path d="M691.759 315.425C697.053 306.726 706.508 301.621 716.53 301.81V328.094C701.402 326.203 691.759 332.632 691.759 343.978V381.608H662.449V302.944H691.759V315.425Z" fill="#E42833"/>
<path d="M672.282 206.317C673.038 203.292 675.497 199.888 678.522 199.888H686.842C686.842 208.208 688.355 208.208 690.057 208.208H708.966C710.668 208.208 712.181 208.208 712.181 199.888H720.501C723.527 199.888 725.985 203.481 726.741 206.317L731.28 228.252H737.898L732.603 204.237C731.28 198.375 726.174 192.324 720.312 192.324H678.333C672.471 192.324 667.365 198.564 666.042 204.237L661.125 228.063H667.744L672.282 206.317Z" fill="#E42833"/>
<path d="M681.547 268.529C673.795 268.529 667.554 274.769 667.554 282.522C667.554 290.275 673.795 296.515 681.547 296.515C689.3 296.515 695.54 290.275 695.54 282.522C695.54 274.769 689.3 268.529 681.547 268.529ZM686.275 282.522C686.275 285.17 684.195 287.25 681.547 287.25C678.9 287.25 676.82 285.17 676.82 282.522C676.82 279.875 678.9 277.795 681.547 277.795C684.006 277.795 686.275 279.875 686.275 282.522Z" fill="#06549E"/>
<path d="M717.097 268.529C709.344 268.529 703.104 274.769 703.104 282.522C703.104 290.275 709.344 296.515 717.097 296.515C724.85 296.515 731.09 290.275 731.09 282.522C731.09 274.769 724.85 268.529 717.097 268.529ZM721.825 282.522C721.825 285.17 719.556 287.25 716.908 287.25C714.261 287.25 712.181 284.981 712.181 282.333C712.181 279.686 714.261 277.606 716.908 277.606C719.745 277.606 721.825 279.686 721.825 282.522C722.014 282.522 722.014 282.522 721.825 282.522Z" fill="#06549E"/>
<path d="M743.76 228.252H655.074C651.67 228.252 648.834 231.089 648.834 234.492C648.834 237.896 651.67 240.732 655.074 240.732H655.831L661.503 274.581C661.882 276.661 663.205 278.741 665.096 279.875C666.231 270.609 674.74 264.18 683.817 265.315C691.759 266.26 697.81 272.69 698.377 280.632H700.457C701.213 271.366 709.155 264.558 718.421 265.126C726.363 265.693 732.792 271.744 733.738 279.686C735.629 278.362 736.953 276.471 737.331 274.391L743.004 240.543H743.76C747.164 240.543 750 237.707 750 234.303C750 230.899 747.164 228.063 743.76 228.252ZM670.391 244.514H670.58C670.769 244.514 671.147 244.514 671.336 244.514H670.391ZM689.49 244.514H689.868H690.246H689.49ZM708.399 244.514H708.777H709.155H708.399ZM727.309 244.514C727.498 244.514 727.876 244.514 728.065 244.514H728.254H727.309Z" fill="#E42833"/>
</svg>
