<svg width="900" height="600" viewBox="0 0 900 600" fill="none" xmlns="http://www.w3.org/2000/svg">
<mask id="mask0_351_182" style="mask-type:luminance" maskUnits="userSpaceOnUse" x="150" y="105" width="600" height="390">
<path d="M150 494.695H750V105H150V494.695Z" fill="white"/>
</mask>
<g mask="url(#mask0_351_182)">
<path d="M441.969 141.6L216.711 235.769C213.534 237.108 213.534 239.255 216.711 240.589L441.969 334.816C446.384 336.631 453.601 336.631 458.012 334.816L683.274 240.589C686.465 239.255 686.465 237.108 683.274 235.769L458.012 141.6C453.601 139.751 446.384 139.751 441.969 141.6ZM741.331 224.743C746.478 227.026 750.001 232.175 750.001 238.191C750.001 244.202 746.408 249.344 741.24 251.632L460.833 368.901C454.881 371.376 445.126 371.376 439.168 368.901L158.742 251.632C153.563 249.344 150 244.202 150 238.191C150 232.175 153.563 226.992 158.742 224.708L439.168 107.487C445.126 105 454.881 105 460.833 107.487L741.331 224.743ZM589.308 231.749C591.776 232.848 593.472 235.294 593.472 238.191C593.472 241.063 591.756 243.503 589.308 244.601L455.216 300.684C452.342 301.902 447.679 301.902 444.809 300.684L310.708 244.601C308.264 243.503 306.508 241.063 306.508 238.191C306.508 235.294 308.264 232.848 310.708 231.738L444.809 175.664C447.679 174.48 452.342 174.48 455.216 175.664L589.308 231.749ZM447.644 266.615C448.92 267.122 451.068 267.122 452.342 266.615L518.627 238.883C519.551 238.491 519.551 237.853 518.627 237.454L452.342 209.772C451.068 209.251 448.92 209.251 447.644 209.772L381.394 237.454C380.456 237.853 380.456 238.491 381.394 238.883L447.644 266.615Z" fill="currentColor"/>
<path d="M563.543 429.776H563.242V415.493H538.882V492.94H565.641V460.223C565.641 445.052 572.627 436.009 585.102 436.009C588.213 436.009 591.133 436.009 594.095 436.857V414.364C591.757 414.013 589.047 413.691 586.418 413.691C574.874 413.691 568.17 419.95 563.543 429.776Z" fill="currentColor"/>
<path d="M499.475 413.647C488.787 413.647 479.724 416.768 472.898 425.37H472.598V388.052H445.693V492.849H470.337V479.038H470.638C474.062 487.69 484.933 494.651 497.278 494.651C520.293 494.651 532.638 475.626 532.638 452.741C532.638 433.986 520.875 413.647 499.475 413.647ZM488.886 475.259C479.563 475.259 471.795 466.412 471.795 454.582C471.795 442.451 478.619 433.445 488.886 433.445C499.777 433.445 505.86 442.753 505.86 453.505C505.86 466.412 499.455 475.259 488.886 475.259Z" fill="currentColor"/>
<path d="M408.951 413.692C397.976 413.692 387.707 418.152 381.465 428.575C377.315 418.454 368.235 413.692 357.226 413.692C345.061 413.692 334.351 418.58 328.99 429.776H328.724V415.494H304.346V492.94H331.104V460.223C331.104 443.581 336.724 436.008 346.249 436.008C353.817 436.008 356.959 442.558 356.959 451.301V492.94H383.718V460.223C383.718 443.581 389.374 436.008 398.859 436.008C406.452 436.008 409.568 442.558 409.568 451.301V492.94H436.332V447.294C436.332 426.333 431.259 413.692 408.951 413.692Z" fill="currentColor"/>
<path d="M640.697 413.692C615.112 413.692 595.64 428.576 595.64 454.282C595.64 479.871 615.112 494.697 640.697 494.697C666.231 494.697 685.702 479.871 685.702 454.282C685.702 428.576 666.231 413.692 640.697 413.692ZM621.687 454.497C621.687 441.001 629.265 431.202 640.416 431.202C652.31 431.202 659.015 441.352 659.015 453.254C659.015 467.601 651.959 477.247 640.416 477.247C630.289 477.247 621.687 467.581 621.687 454.497Z" fill="currentColor"/>
<path d="M214.262 415.493V459.32C214.262 484.141 231.727 494.696 254.339 494.696C276.914 494.696 294.398 484.141 294.398 459.32V415.493H267.674V457.157C267.674 466.698 265.316 475.259 254.339 475.259C243.31 475.259 240.951 466.698 240.951 457.157V415.493H214.262Z" fill="currentColor"/>
</g>
</svg>
