<svg width="104" height="44" viewBox="0 0 104 44" fill="none" xmlns="http://www.w3.org/2000/svg">
  <g clip-path="url(#clip0_208_477)">
    <path fill-rule="evenodd" clip-rule="evenodd" d="M44 0H0V44H44V0ZM10.9932 14.025H8.25V23.2409H8.26299V30.0667H11.0751V20.1099C11.0751 19.5093 11.1855 18.9754 11.4063 18.5082C11.6314 18.0411 11.9475 17.674 12.3545 17.4071C12.7615 17.1401 13.2356 17.0067 13.7768 17.0067C14.3223 17.0067 14.7964 17.1401 15.199 17.4071C15.606 17.674 15.9199 18.0411 16.1407 18.5082C16.3658 18.9754 16.4784 19.5093 16.4784 20.1099V30.0667H16.4927H19.2906H19.3049V20.1099C19.3049 19.5093 19.4153 18.9754 19.636 18.5082C19.8612 18.0411 20.1772 17.674 20.5842 17.4071C20.9912 17.1401 21.4653 17.0067 22.0065 17.0067C22.5521 17.0067 23.0262 17.1401 23.4288 17.4071C23.8358 17.674 24.1497 18.0411 24.3705 18.5082C24.5956 18.9754 24.7082 19.5093 24.7082 20.1099V30.0667H27.5202V30.0174H27.5345V27.0358H32.9379V30.0174H35.75V23.0777C35.75 21.9278 35.5183 20.9216 35.0551 20.0591C34.5961 19.1967 33.9532 18.5241 33.1262 18.0415C32.2993 17.5641 31.336 17.3254 30.2362 17.3254C29.1321 17.3254 28.1667 17.5641 27.3397 18.0415C27.3299 18.0473 27.32 18.0531 27.3102 18.0588C27.1956 17.6122 27.034 17.1948 26.8254 16.8065C26.3664 15.9439 25.7235 15.2714 24.8966 14.7889C24.0695 14.3114 23.1062 14.0727 22.0065 14.0727C20.9025 14.0727 19.9369 14.3114 19.11 14.7889C18.6444 15.0605 18.2373 15.3923 17.8883 15.7844C17.5395 15.3923 17.1322 15.0605 16.6668 14.7889C15.8399 14.3114 14.8765 14.0727 13.7768 14.0727C12.7226 14.0727 11.7948 14.2904 10.9932 14.7256V14.025ZM32.9379 23.3626V23.7831H27.5345V23.3626C27.5345 22.762 27.6449 22.2281 27.8658 21.7609C28.091 21.2938 28.4069 20.9267 28.814 20.6598C29.221 20.3928 29.695 20.2593 30.2362 20.2593C30.7817 20.2593 31.2558 20.3928 31.6586 20.6598C32.0656 20.9267 32.3793 21.2938 32.6002 21.7609C32.8254 22.2281 32.9379 22.762 32.9379 23.3626Z" fill="currentColor"/>
  </g>
  <path d="M50.8849 9.81818H53.5398L56.3438 16.6591H56.4631L59.267 9.81818H61.9219V20H59.8338V13.3729H59.7493L57.1143 19.9503H55.6925L53.0575 13.348H52.973V20H50.8849V9.81818ZM63.6557 20V12.3636H65.7736V20H63.6557ZM64.7196 11.3793C64.4048 11.3793 64.1346 11.2749 63.9093 11.0661C63.6872 10.8539 63.5762 10.6004 63.5762 10.3054C63.5762 10.0137 63.6872 9.76349 63.9093 9.55469C64.1346 9.34257 64.4048 9.23651 64.7196 9.23651C65.0345 9.23651 65.303 9.34257 65.525 9.55469C65.7504 9.76349 65.8631 10.0137 65.8631 10.3054C65.8631 10.6004 65.7504 10.8539 65.525 11.0661C65.303 11.2749 65.0345 11.3793 64.7196 11.3793ZM70.9205 20.1491C70.1383 20.1491 69.4654 19.9834 68.902 19.652C68.3419 19.3172 67.911 18.8532 67.6094 18.2599C67.3111 17.6667 67.1619 16.9839 67.1619 16.2116C67.1619 15.4295 67.3127 14.7434 67.6143 14.1534C67.9193 13.5601 68.3518 13.0978 68.9119 12.7663C69.4721 12.4316 70.1383 12.2642 70.9105 12.2642C71.5767 12.2642 72.16 12.3852 72.6605 12.6271C73.161 12.8691 73.5571 13.2088 73.8487 13.6463C74.1404 14.0838 74.3011 14.5975 74.331 15.1875H72.3324C72.276 14.8063 72.1269 14.4998 71.8849 14.2678C71.6463 14.0324 71.3331 13.9148 70.9453 13.9148C70.6172 13.9148 70.3305 14.0043 70.0852 14.1832C69.8433 14.3589 69.6544 14.6158 69.5185 14.9538C69.3826 15.2919 69.3146 15.7012 69.3146 16.1818C69.3146 16.669 69.3809 17.0833 69.5135 17.4247C69.6494 17.7661 69.84 18.0263 70.0852 18.2053C70.3305 18.3842 70.6172 18.4737 70.9453 18.4737C71.1873 18.4737 71.4044 18.424 71.5966 18.3246C71.7921 18.2251 71.9529 18.081 72.0788 17.892C72.2081 17.6998 72.2926 17.4695 72.3324 17.201H74.331C74.2978 17.7843 74.1387 18.2981 73.8537 18.7422C73.572 19.183 73.1825 19.5277 72.6854 19.7763C72.1882 20.0249 71.5999 20.1491 70.9205 20.1491ZM77.8049 15.5852V20H75.687V9.81818H77.7452V13.7109H77.8347C78.007 13.2602 78.2855 12.9072 78.6699 12.652C79.0544 12.3935 79.5366 12.2642 80.1167 12.2642C80.647 12.2642 81.1093 12.3802 81.5037 12.6122C81.9015 12.8409 82.2097 13.1707 82.4284 13.6016C82.6505 14.0291 82.7599 14.5412 82.7566 15.1378V20H80.6387V15.5156C80.642 15.045 80.5227 14.6787 80.2807 14.4169C80.0421 14.1551 79.7073 14.0241 79.2765 14.0241C78.9881 14.0241 78.7329 14.0855 78.5108 14.2081C78.2921 14.3307 78.1197 14.5097 77.9938 14.745C77.8712 14.977 77.8082 15.2571 77.8049 15.5852ZM86.6009 20.1442C86.1136 20.1442 85.6795 20.0597 85.2983 19.8906C84.9171 19.7183 84.6155 19.4647 84.3935 19.13C84.1747 18.7919 84.0653 18.371 84.0653 17.8672C84.0653 17.4429 84.1432 17.0866 84.299 16.7983C84.4548 16.5099 84.6669 16.2779 84.9354 16.1023C85.2038 15.9266 85.5088 15.794 85.8501 15.7045C86.1948 15.6151 86.5561 15.5521 86.9339 15.5156C87.3781 15.4692 87.736 15.4261 88.0078 15.3864C88.2796 15.3433 88.4768 15.2803 88.5994 15.1974C88.7221 15.1146 88.7834 14.992 88.7834 14.8295V14.7997C88.7834 14.4848 88.6839 14.2412 88.4851 14.0689C88.2895 13.8965 88.0111 13.8104 87.6499 13.8104C87.2687 13.8104 86.9654 13.8949 86.7401 14.0639C86.5147 14.2296 86.3655 14.4384 86.2926 14.6903L84.3338 14.5312C84.4332 14.0672 84.6288 13.6662 84.9205 13.3281C85.2121 12.9867 85.5883 12.7249 86.049 12.5426C86.513 12.357 87.05 12.2642 87.6598 12.2642C88.084 12.2642 88.4901 12.3139 88.8778 12.4134C89.2689 12.5128 89.6153 12.6669 89.9169 12.8757C90.2218 13.0845 90.4621 13.353 90.6378 13.6811C90.8134 14.0059 90.9013 14.3954 90.9013 14.8494V20H88.8928V18.9411H88.8331C88.7105 19.1797 88.5464 19.3902 88.3409 19.5724C88.1354 19.7514 87.8885 19.8923 87.6001 19.995C87.3118 20.0945 86.9787 20.1442 86.6009 20.1442ZM87.2074 18.6825C87.5189 18.6825 87.794 18.6212 88.0327 18.4986C88.2713 18.3726 88.4586 18.2036 88.5945 17.9915C88.7304 17.7794 88.7983 17.5391 88.7983 17.2706V16.4602C88.732 16.5033 88.6409 16.5431 88.5249 16.5795C88.4122 16.6127 88.2846 16.6442 88.142 16.674C87.9995 16.7005 87.857 16.7254 87.7145 16.7486C87.572 16.7685 87.4427 16.7867 87.3267 16.8033C87.0781 16.8397 86.861 16.8977 86.6754 16.9773C86.4898 17.0568 86.3456 17.1645 86.2429 17.3004C86.1402 17.433 86.0888 17.5987 86.0888 17.7976C86.0888 18.0859 86.1932 18.3063 86.402 18.4588C86.6141 18.608 86.8826 18.6825 87.2074 18.6825ZM96.0245 20.1491C95.239 20.1491 94.5629 19.9901 93.9961 19.6719C93.4326 19.3504 92.9985 18.8963 92.6935 18.3097C92.3886 17.7197 92.2362 17.022 92.2362 16.2166C92.2362 15.4311 92.3886 14.7417 92.6935 14.1484C92.9985 13.5552 93.4277 13.0928 93.9812 12.7614C94.538 12.4299 95.1909 12.2642 95.94 12.2642C96.4438 12.2642 96.9128 12.3454 97.3469 12.5078C97.7844 12.6669 98.1656 12.9072 98.4904 13.2287C98.8185 13.5502 99.0737 13.9545 99.256 14.4418C99.4383 14.9257 99.5295 15.4924 99.5295 16.142V16.7237H93.0813V15.4112H97.5359C97.5359 15.1063 97.4696 14.8362 97.337 14.6009C97.2044 14.3655 97.0205 14.1816 96.7852 14.049C96.5531 13.9131 96.283 13.8452 95.9748 13.8452C95.6533 13.8452 95.3683 13.9197 95.1197 14.0689C94.8744 14.2147 94.6822 14.4119 94.543 14.6605C94.4038 14.9058 94.3325 15.1792 94.3292 15.4808V16.7287C94.3292 17.1065 94.3988 17.433 94.538 17.7081C94.6805 17.9832 94.881 18.1953 95.1396 18.3445C95.3981 18.4936 95.7047 18.5682 96.0593 18.5682C96.2946 18.5682 96.5101 18.535 96.7056 18.4688C96.9012 18.4025 97.0685 18.303 97.2077 18.1705C97.3469 18.0379 97.453 17.8755 97.5259 17.6832L99.4847 17.8125C99.3853 18.2831 99.1815 18.6941 98.8732 19.0455C98.5683 19.3935 98.1739 19.6652 97.69 19.8608C97.2094 20.053 96.6542 20.1491 96.0245 20.1491ZM103.029 9.81818V20H100.912V9.81818H103.029ZM52.6399 34H50.3331L53.848 23.8182H56.6222L60.1321 34H57.8253L55.2749 26.1449H55.1953L52.6399 34ZM52.4957 29.9979H57.9446V31.6783H52.4957V29.9979ZM63.4357 23.8182V34H61.3178V23.8182H63.4357ZM67.2502 23.8182V34H65.1323V23.8182H67.2502ZM72.4268 34.1491C71.6413 34.1491 70.9652 33.9901 70.3984 33.6719C69.835 33.3504 69.4008 32.8963 69.0959 32.3097C68.791 31.7197 68.6385 31.022 68.6385 30.2166C68.6385 29.4311 68.791 28.7417 69.0959 28.1484C69.4008 27.5552 69.83 27.0928 70.3835 26.7614C70.9403 26.4299 71.5933 26.2642 72.3423 26.2642C72.8461 26.2642 73.3151 26.3454 73.7493 26.5078C74.1868 26.6669 74.5679 26.9072 74.8928 27.2287C75.2209 27.5502 75.4761 27.9545 75.6584 28.4418C75.8407 28.9257 75.9318 29.4924 75.9318 30.142V30.7237H69.4837V29.4112H73.9382C73.9382 29.1063 73.8719 28.8362 73.7393 28.6009C73.6068 28.3655 73.4228 28.1816 73.1875 28.049C72.9555 27.9131 72.6854 27.8452 72.3771 27.8452C72.0556 27.8452 71.7706 27.9197 71.522 28.0689C71.2768 28.2147 71.0845 28.4119 70.9453 28.6605C70.8061 28.9058 70.7348 29.1792 70.7315 29.4808V30.7287C70.7315 31.1065 70.8011 31.433 70.9403 31.7081C71.0829 31.9832 71.2834 32.1953 71.5419 32.3445C71.8004 32.4936 72.107 32.5682 72.4616 32.5682C72.697 32.5682 72.9124 32.535 73.108 32.4688C73.3035 32.4025 73.4709 32.303 73.6101 32.1705C73.7493 32.0379 73.8554 31.8755 73.9283 31.6832L75.8871 31.8125C75.7876 32.2831 75.5838 32.6941 75.2756 33.0455C74.9706 33.3935 74.5762 33.6652 74.0923 33.8608C73.6117 34.053 73.0566 34.1491 72.4268 34.1491ZM79.4318 29.5852V34H77.3139V26.3636H79.3324V27.7109H79.4219C79.5909 27.2668 79.8743 26.9155 80.272 26.657C80.6697 26.3951 81.152 26.2642 81.7188 26.2642C82.2491 26.2642 82.7114 26.3802 83.1058 26.6122C83.5002 26.8442 83.8068 27.1757 84.0256 27.6065C84.2443 28.0341 84.3537 28.5445 84.3537 29.1378V34H82.2358V29.5156C82.2391 29.0483 82.1198 28.6837 81.8778 28.4219C81.6359 28.1567 81.3028 28.0241 80.8786 28.0241C80.5935 28.0241 80.3416 28.0855 80.1229 28.2081C79.9074 28.3307 79.7384 28.5097 79.6158 28.745C79.4964 28.977 79.4351 29.2571 79.4318 29.5852Z" fill="currentColor"/>
  <defs>
    <clipPath id="clip0_208_477">
      <rect width="44" height="44" rx="4" fill="white"/>
    </clipPath>
  </defs>
</svg>